{"glyphs":{"0":{"ha":878,"x_min":73,"x_max":806,"o":"m 806 486 q 769 217 806 329 q 651 46 732 106 q 438 -14 570 -14 q 162 119 252 -14 q 73 486 73 251 q 109 753 73 642 q 226 924 145 865 q 438 983 307 983 q 714 852 623 983 q 806 486 806 722 m 192 486 q 248 187 192 286 q 438 88 304 88 q 628 187 570 88 q 685 486 685 286 q 628 783 685 684 q 438 882 570 882 q 248 783 304 882 q 192 486 192 684 z "},"1":{"ha":878,"x_min":132,"x_max":555,"o":"m 555 968 l 555 0 l 442 0 l 442 677 q 444 770 442 735 q 450 844 446 805 q 395 806 420 821 q 330 769 370 791 l 195 685 l 132 765 l 462 968 l 555 968 z "},"2":{"ha":878,"x_min":71,"x_max":801,"o":"m 801 109 l 801 0 l 71 0 l 71 99 l 366 355 q 509 485 450 428 q 599 597 568 542 q 630 718 630 652 q 573 839 630 797 q 423 880 516 880 q 276 856 338 880 q 150 788 214 832 l 87 868 q 235 949 151 916 q 420 982 319 982 q 664 913 574 982 q 753 724 753 844 q 718 582 753 648 q 618 451 682 516 q 471 313 554 386 l 221 114 l 221 109 l 801 109 z "},"3":{"ha":878,"x_min":67,"x_max":793,"o":"m 760 742 q 698 586 760 644 q 530 510 636 528 l 530 505 q 729 431 664 490 q 793 275 793 371 q 691 67 793 149 q 370 -14 589 -14 q 211 -2 285 -14 q 67 39 136 10 l 67 151 q 219 103 138 120 q 377 87 301 87 q 601 138 531 87 q 670 278 670 189 q 584 409 670 369 q 349 449 497 449 l 237 449 l 237 551 l 351 551 q 562 601 488 551 q 635 734 635 652 q 579 843 635 804 q 424 882 522 882 q 268 859 332 882 q 137 800 203 836 l 74 882 q 221 952 133 922 q 417 982 309 982 q 675 914 591 982 q 760 742 760 846 z "},"4":{"ha":878,"x_min":31,"x_max":848,"o":"m 848 327 l 848 220 l 684 220 l 684 0 l 570 0 l 570 220 l 31 220 l 31 321 l 557 974 l 684 974 l 684 327 l 848 327 m 570 327 l 570 632 q 572 752 570 703 q 577 846 575 802 l 571 846 q 539 791 559 821 q 504 741 519 761 l 151 327 l 570 327 z "},"5":{"ha":878,"x_min":94,"x_max":793,"o":"m 414 594 q 691 519 589 594 q 793 309 793 445 q 684 73 793 159 q 380 -14 574 -14 q 219 0 294 -14 q 94 39 144 13 l 94 152 q 230 105 150 123 q 385 88 311 88 q 592 139 512 88 q 671 297 671 191 q 602 443 671 392 q 380 494 532 494 q 278 487 336 494 q 185 473 220 481 l 121 511 l 163 968 l 715 968 l 715 860 l 265 860 l 237 579 q 312 589 264 583 q 414 594 359 594 z "},"6":{"ha":878,"x_min":82,"x_max":808,"o":"m 82 414 q 95 579 82 497 q 141 734 109 661 q 230 862 173 806 q 374 950 287 918 q 586 982 462 982 q 657 979 618 982 q 721 970 696 976 l 721 868 q 658 880 693 876 q 590 884 623 884 q 406 853 479 884 q 291 768 333 822 q 229 643 248 713 q 205 492 209 572 l 214 492 q 316 573 250 541 q 484 606 381 606 q 719 529 629 606 q 808 312 808 452 q 714 74 808 161 q 458 -14 619 -14 q 268 33 353 -14 q 132 174 182 79 q 82 414 82 269 m 457 87 q 626 142 562 87 q 690 312 690 197 q 633 459 690 405 q 462 513 576 513 q 326 486 385 513 q 236 419 268 460 q 203 335 203 378 q 232 219 203 276 q 317 124 261 162 q 457 87 374 87 z "},"7":{"ha":878,"x_min":65,"x_max":806,"o":"m 347 0 l 214 0 l 679 860 l 65 860 l 65 968 l 806 968 l 806 876 l 347 0 z "},"8":{"ha":878,"x_min":73,"x_max":804,"o":"m 437 982 q 608 956 534 982 q 725 877 683 929 q 768 750 768 825 q 738 648 768 692 q 660 571 709 604 q 553 513 611 538 q 680 448 623 484 q 770 365 737 412 q 804 251 804 317 q 758 110 804 170 q 632 19 713 51 q 443 -14 551 -14 q 169 55 266 -14 q 73 247 73 124 q 105 362 73 313 q 192 446 138 411 q 308 506 245 481 q 166 604 224 547 q 109 751 109 662 q 152 877 109 825 q 269 955 195 928 q 437 982 343 982 m 436 886 q 286 849 344 886 q 227 746 227 813 q 256 662 227 696 q 335 604 286 628 q 445 559 385 580 q 590 631 532 589 q 648 746 648 673 q 590 849 648 813 q 436 886 532 886 m 191 245 q 252 129 191 176 q 439 81 312 81 q 622 129 559 81 q 686 250 686 176 q 620 367 686 320 q 437 449 553 414 l 412 457 q 247 369 303 418 q 191 245 191 320 z "},"9":{"ha":878,"x_min":75,"x_max":801,"o":"m 801 555 q 789 389 801 471 q 745 235 777 307 q 657 106 713 162 q 512 18 600 50 q 296 -14 423 -14 q 224 -10 265 -14 q 157 0 182 -7 l 157 102 q 222 89 184 94 q 294 84 260 84 q 478 115 406 84 q 593 200 551 146 q 655 325 635 254 q 677 475 674 395 l 668 475 q 566 395 632 428 q 397 362 500 362 q 163 438 252 362 q 75 655 75 515 q 119 829 75 756 q 242 942 163 903 q 427 982 321 982 q 617 936 532 982 q 751 794 702 889 q 801 555 801 699 m 427 882 q 259 826 324 882 q 193 656 193 770 q 249 509 193 563 q 420 456 304 456 q 558 482 500 456 q 648 549 616 509 q 680 633 680 590 q 652 749 680 692 q 568 844 624 806 q 427 882 511 882 z "},"\u0000":{"ha":0,"x_min":0,"x_max":0,"o":""},"\r":{"ha":439,"x_min":0,"x_max":0,"o":""}," ":{"ha":439,"x_min":0,"x_max":0,"o":""},"!":{"ha":439,"x_min":117,"x_max":323,"o":"m 299 968 l 248 273 l 193 273 l 142 968 l 299 968 m 117 73 q 146 144 117 123 q 219 164 175 164 q 291 144 260 164 q 323 73 323 123 q 291 3 323 24 q 219 -19 260 -19 q 146 3 175 -19 q 117 73 117 24 z "},"\"":{"ha":519,"x_min":94,"x_max":425,"o":"m 94 968 l 215 968 l 193 618 l 115 618 l 94 968 m 304 968 l 425 968 l 404 618 l 326 618 l 304 968 z "},"#":{"ha":878,"x_min":37,"x_max":840,"o":"m 840 591 l 651 591 l 610 374 l 794 374 l 794 283 l 592 283 l 536 0 l 441 0 l 496 283 l 304 283 l 251 0 l 156 0 l 208 283 l 37 283 l 37 374 l 225 374 l 268 591 l 87 591 l 87 681 l 284 681 l 338 968 l 435 968 l 382 681 l 575 681 l 629 968 l 723 968 l 669 681 l 840 681 l 840 591 m 363 591 l 321 374 l 513 374 l 555 591 l 363 591 z "},"$":{"ha":878,"x_min":92,"x_max":795,"o":"m 391 -79 l 391 66 q 223 79 305 68 q 92 111 141 91 l 92 227 q 227 189 143 205 q 391 171 310 172 l 391 445 q 165 537 234 481 q 96 689 96 593 q 175 846 96 789 q 391 910 255 903 l 391 1029 l 486 1029 l 486 911 q 636 896 569 909 q 758 861 703 882 l 719 761 q 609 791 669 779 q 486 808 549 804 l 486 536 q 658 481 589 510 q 761 409 726 452 q 795 298 795 366 q 714 145 795 204 q 486 72 633 85 l 486 -79 l 391 -79 m 391 566 l 391 806 q 259 772 301 801 q 217 699 217 743 q 254 615 217 645 q 391 566 291 586 m 486 416 l 486 178 q 629 215 583 186 q 674 290 674 245 q 634 368 674 341 q 486 416 595 394 z "},"%":{"ha":928,"x_min":46,"x_max":883,"o":"m 213 982 q 340 903 296 982 q 385 680 385 823 q 342 455 385 536 q 213 374 300 374 q 90 455 133 374 q 46 680 46 536 q 87 903 46 823 q 213 982 128 982 m 629 968 l 728 968 l 299 0 l 199 0 l 629 968 m 214 898 q 142 680 142 898 q 214 460 142 460 q 288 680 288 460 q 214 898 288 898 m 712 594 q 838 515 793 594 q 883 292 883 435 q 841 67 883 149 q 712 -14 799 -14 q 589 67 632 -14 q 545 292 545 149 q 586 515 545 435 q 712 594 627 594 m 712 509 q 642 292 642 509 q 712 72 642 72 q 787 292 787 72 q 712 509 787 509 z "},"&":{"ha":968,"x_min":79,"x_max":966,"o":"m 408 983 q 575 928 514 983 q 636 774 636 873 q 583 629 636 689 q 450 521 530 570 l 698 269 q 752 366 732 311 q 788 484 773 420 l 909 484 q 856 323 888 397 q 775 193 824 249 l 966 0 l 805 0 l 694 114 q 557 22 632 57 q 374 -14 483 -14 q 158 55 238 -14 q 79 252 79 124 q 133 419 79 356 q 279 537 186 482 q 202 642 237 586 q 166 772 166 698 q 231 927 166 871 q 408 983 296 983 m 404 886 q 317 856 351 886 q 283 773 283 826 q 307 683 283 724 q 378 591 332 642 q 486 679 454 637 q 519 774 519 720 q 488 854 519 823 q 404 886 456 886 m 618 189 l 351 463 q 242 374 281 419 q 203 256 203 330 q 251 137 203 182 q 378 92 298 92 q 519 121 460 92 q 618 189 578 149 z "},"'":{"ha":318,"x_min":97,"x_max":221,"o":"m 97 968 l 221 968 l 198 618 l 121 618 l 97 968 z "},"(":{"ha":452,"x_min":60,"x_max":407,"o":"m 60 372 q 116 692 60 538 q 291 968 173 846 l 407 968 q 242 688 298 842 q 185 373 185 534 q 241 64 185 216 q 406 -214 298 -87 l 291 -214 q 116 57 173 -95 q 60 372 60 208 z "},")":{"ha":452,"x_min":45,"x_max":392,"o":"m 392 372 q 336 57 392 208 q 161 -214 279 -95 l 47 -214 q 211 64 155 -87 q 267 373 267 216 q 211 688 267 534 q 45 968 154 842 l 161 968 q 336 692 279 846 q 392 372 392 538 z "},"*":{"ha":669,"x_min":61,"x_max":606,"o":"m 271 1031 l 393 1031 l 370 770 l 589 844 l 606 719 l 398 699 l 533 484 l 427 420 l 331 658 l 245 420 l 134 484 l 267 699 l 61 719 l 79 844 l 295 770 l 271 1031 z "},"+":{"ha":1104,"x_min":81,"x_max":1022,"o":"m 608 807 l 608 526 l 1022 526 l 1022 430 l 608 430 l 608 151 l 495 151 l 495 430 l 81 430 l 81 526 l 495 526 l 495 807 l 608 807 z "},",":{"ha":439,"x_min":61,"x_max":326,"o":"m 313 157 l 326 142 q 250 -16 299 71 q 152 -175 200 -102 l 61 -175 q 100 -64 81 -123 q 136 52 119 -5 q 163 157 153 110 l 313 157 z "},"-":{"ha":804,"x_min":165,"x_max":638,"o":"m 638 311 l 165 311 l 165 416 l 638 416 l 638 311 z "},".":{"ha":439,"x_min":117,"x_max":323,"o":"m 117 73 q 145 144 117 123 q 216 164 174 164 q 291 144 259 164 q 323 73 323 123 q 291 3 323 24 q 216 -19 259 -19 q 145 3 174 -19 q 117 73 117 24 z "},"/":{"ha":728,"x_min":31,"x_max":699,"o":"m 572 968 l 699 968 l 157 0 l 31 0 l 572 968 z "},":":{"ha":439,"x_min":117,"x_max":323,"o":"m 117 654 q 145 725 117 705 q 216 746 174 746 q 291 725 259 746 q 323 654 323 705 q 291 583 323 605 q 216 562 259 562 q 145 583 174 562 q 117 654 117 605 m 117 73 q 145 144 117 123 q 216 164 174 164 q 291 144 259 164 q 323 73 323 123 q 291 3 323 24 q 216 -19 259 -19 q 145 3 174 -19 q 117 73 117 24 z "},";":{"ha":439,"x_min":46,"x_max":330,"o":"m 131 654 q 159 725 131 705 q 227 746 187 746 q 300 725 271 746 q 330 654 330 705 q 300 583 330 605 q 227 562 271 562 q 159 583 187 562 q 131 654 131 605 m 290 157 l 303 142 q 231 -16 277 71 q 139 -175 184 -102 l 46 -175 q 83 -65 64 -124 q 119 52 102 -6 q 145 157 136 110 l 290 157 z "},"<":{"ha":1104,"x_min":79,"x_max":1024,"o":"m 1024 263 l 1024 157 l 79 438 l 79 506 l 1024 825 l 1024 719 l 214 477 l 1024 263 z "},"=":{"ha":1104,"x_min":96,"x_max":1006,"o":"m 1006 564 l 96 564 l 96 661 l 1006 661 l 1006 564 m 1006 294 l 96 294 l 96 391 l 1006 391 l 1006 294 z "},">":{"ha":1104,"x_min":79,"x_max":1024,"o":"m 79 157 l 79 263 l 889 476 l 79 719 l 79 825 l 1024 506 l 1024 438 l 79 157 z "},"?":{"ha":586,"x_min":18,"x_max":547,"o":"m 189 273 l 189 309 q 199 398 189 360 q 233 469 209 436 q 301 540 258 503 q 381 614 353 584 q 422 672 410 644 q 434 742 434 701 q 393 842 434 807 q 273 878 351 878 q 157 860 208 878 q 60 821 106 843 l 18 916 q 136 963 71 944 q 281 982 201 982 q 478 918 409 982 q 547 745 547 854 q 528 641 547 684 q 474 563 509 598 q 391 486 439 527 q 322 419 345 448 q 292 362 300 391 q 283 296 283 334 l 283 273 l 189 273 m 158 73 q 182 144 158 123 q 241 164 205 164 q 300 144 275 164 q 324 73 324 123 q 300 3 324 24 q 241 -19 275 -19 q 182 3 205 -19 q 158 73 158 24 z "},"@":{"ha":1192,"x_min":86,"x_max":1106,"o":"m 1106 484 q 1081 324 1106 401 q 1007 197 1057 247 q 881 148 957 148 q 787 183 822 148 q 744 266 752 219 l 737 266 q 668 182 713 216 q 554 148 623 148 q 400 217 454 148 q 347 400 347 286 q 380 558 347 489 q 476 666 414 627 q 624 705 538 705 q 737 695 682 705 q 824 673 793 685 l 810 397 q 810 363 810 373 q 810 349 810 353 q 833 255 810 277 q 888 232 857 232 q 956 266 928 232 q 998 358 983 300 q 1013 486 1013 416 q 964 699 1013 611 q 831 833 916 787 q 638 879 747 879 q 389 815 491 879 q 235 640 288 751 q 183 384 183 528 q 284 76 183 184 q 575 -31 385 -31 q 727 -13 654 -31 q 857 27 800 5 l 857 -65 q 730 -105 801 -90 q 576 -121 660 -121 q 312 -61 422 -121 q 144 111 203 -1 q 86 380 86 222 q 124 614 86 507 q 233 801 161 721 q 407 924 305 880 q 638 968 509 968 q 880 910 774 968 q 1046 743 985 851 q 1106 484 1106 634 m 450 397 q 483 271 450 310 q 572 232 516 232 q 675 289 643 232 q 711 437 707 347 l 720 606 q 677 616 703 612 q 625 620 652 620 q 523 587 562 620 q 467 504 484 555 q 450 397 450 453 z "},"A":{"ha":958,"x_min":0,"x_max":957,"o":"m 957 0 l 833 0 l 694 300 l 258 300 l 121 0 l 0 0 l 431 972 l 529 972 l 957 0 m 656 408 l 527 701 q 513 741 523 712 q 493 799 503 769 q 477 846 483 829 q 454 765 466 805 q 432 701 441 725 l 302 408 l 656 408 z "},"B":{"ha":799,"x_min":144,"x_max":719,"o":"m 144 968 l 385 968 q 616 915 539 968 q 694 728 694 861 q 654 587 694 643 q 545 514 614 530 l 545 507 q 633 471 593 497 q 695 398 672 446 q 719 275 719 351 q 643 72 719 143 q 434 0 566 0 l 144 0 l 144 968 m 267 556 l 401 556 q 532 596 496 556 q 568 715 568 637 q 525 829 568 794 q 387 864 481 864 l 267 864 l 267 556 m 407 454 l 267 454 l 267 103 l 415 103 q 552 153 513 103 q 591 285 591 203 q 551 408 591 361 q 407 454 511 454 z "},"C":{"ha":961,"x_min":91,"x_max":915,"o":"m 615 875 q 405 828 493 875 q 269 693 317 781 q 221 484 221 606 q 319 199 221 304 q 612 94 417 94 q 747 104 683 94 q 873 132 811 115 l 873 26 q 749 -4 813 5 q 593 -14 685 -14 q 315 48 427 -14 q 147 221 203 109 q 91 486 91 333 q 152 744 91 632 q 330 919 213 856 q 617 982 448 982 q 778 967 701 982 q 915 925 855 953 l 863 822 q 752 859 814 842 q 615 875 690 875 z "},"D":{"ha":1040,"x_min":144,"x_max":949,"o":"m 949 494 q 811 124 949 249 q 424 0 673 0 l 144 0 l 144 968 l 454 968 q 716 915 605 968 q 888 755 827 861 q 949 494 949 649 m 821 490 q 720 773 821 683 q 435 864 619 864 l 267 864 l 267 104 l 406 104 q 821 490 821 104 z "},"E":{"ha":753,"x_min":144,"x_max":663,"o":"m 663 107 l 663 0 l 144 0 l 144 968 l 663 968 l 663 861 l 267 861 l 267 559 l 640 559 l 640 453 l 267 453 l 267 107 l 663 107 z "},"F":{"ha":745,"x_min":144,"x_max":711,"o":"m 267 411 l 267 0 l 144 0 l 144 968 l 711 968 l 711 861 l 267 861 l 267 518 l 684 518 l 684 411 l 267 411 z "},"G":{"ha":1004,"x_min":91,"x_max":894,"o":"m 559 403 l 559 511 l 894 511 l 894 37 q 736 -1 816 12 q 554 -14 656 -14 q 301 47 404 -14 q 144 219 197 108 q 91 484 91 331 q 150 747 91 635 q 322 921 210 859 q 592 982 434 982 q 746 967 673 982 q 881 925 819 951 l 835 819 q 719 858 783 842 q 585 875 654 875 q 315 770 412 875 q 218 484 218 665 q 255 280 218 368 q 373 142 292 192 q 583 92 453 92 q 691 99 647 92 q 772 115 736 106 l 772 403 l 559 403 z "},"H":{"ha":1021,"x_min":144,"x_max":875,"o":"m 875 968 l 875 0 l 753 0 l 753 452 l 267 452 l 267 0 l 144 0 l 144 968 l 267 968 l 267 559 l 753 559 l 753 968 l 875 968 z "},"I":{"ha":400,"x_min":46,"x_max":353,"o":"m 353 71 l 353 0 l 46 0 l 46 71 l 139 96 l 139 871 l 46 898 l 46 968 l 353 968 l 353 898 l 261 871 l 261 96 l 353 71 z "},"J":{"ha":432,"x_min":-117,"x_max":296,"o":"m 1 -258 q -66 -253 -37 -258 q -117 -240 -95 -248 l -117 -137 q -59 -147 -90 -143 q 6 -151 -28 -151 q 85 -137 46 -151 q 149 -90 123 -124 q 174 5 174 -56 l 174 968 l 296 968 l 296 15 q 216 -192 296 -125 q 1 -258 136 -258 z "},"K":{"ha":907,"x_min":144,"x_max":907,"o":"m 465 547 l 907 0 l 762 0 l 376 463 l 267 376 l 267 0 l 144 0 l 144 968 l 267 968 l 267 491 q 360 583 313 537 q 455 675 408 629 l 745 968 l 889 968 l 465 547 z "},"L":{"ha":741,"x_min":144,"x_max":703,"o":"m 703 0 l 144 0 l 144 968 l 267 968 l 267 109 l 703 109 l 703 0 z "},"M":{"ha":1196,"x_min":144,"x_max":1052,"o":"m 644 0 l 542 0 l 252 849 l 248 849 q 254 736 251 808 q 256 587 256 665 l 256 0 l 144 0 l 144 968 l 323 968 l 594 175 l 600 175 l 876 968 l 1052 968 l 1052 0 l 932 0 l 932 595 q 936 735 932 666 q 942 848 939 804 l 937 848 l 644 0 z "},"N":{"ha":1026,"x_min":144,"x_max":882,"o":"m 882 968 l 882 0 l 738 0 l 252 804 l 246 804 q 253 686 250 757 q 257 541 257 616 l 257 0 l 144 0 l 144 968 l 288 968 l 772 167 l 777 167 q 774 232 777 189 q 770 327 772 275 q 768 422 768 378 l 768 968 l 882 968 z "},"O":{"ha":1079,"x_min":91,"x_max":988,"o":"m 988 486 q 937 223 988 336 q 787 49 886 111 q 541 -14 687 -14 q 289 49 389 -14 q 140 224 189 112 q 91 487 91 337 q 140 747 91 635 q 289 921 189 859 q 542 983 389 983 q 787 922 688 983 q 937 748 886 860 q 988 486 988 636 m 220 486 q 298 197 220 302 q 541 92 376 92 q 783 197 707 92 q 859 486 859 302 q 783 772 859 669 q 542 876 707 876 q 298 772 376 876 q 220 486 220 669 z "},"P":{"ha":768,"x_min":144,"x_max":692,"o":"m 144 968 l 376 968 q 616 894 541 968 q 692 684 692 819 q 661 534 692 604 q 557 420 629 464 q 359 377 484 377 l 267 377 l 267 0 l 144 0 l 144 968 m 368 864 l 267 864 l 267 481 l 346 481 q 512 527 456 481 q 567 678 567 572 q 519 818 567 772 q 368 864 471 864 z "},"Q":{"ha":1079,"x_min":91,"x_max":988,"o":"m 988 486 q 917 183 988 308 q 705 11 845 58 l 938 -231 l 763 -231 l 574 -12 q 557 -13 566 -12 q 541 -14 549 -14 q 289 49 389 -14 q 140 224 189 112 q 91 487 91 337 q 140 747 91 635 q 289 921 189 859 q 542 983 389 983 q 787 922 688 983 q 937 748 886 860 q 988 486 988 636 m 220 486 q 298 197 220 302 q 541 92 376 92 q 783 197 707 92 q 859 486 859 302 q 783 772 859 669 q 542 876 707 876 q 298 772 376 876 q 220 486 220 669 z "},"R":{"ha":878,"x_min":144,"x_max":856,"o":"m 144 968 l 420 968 q 694 900 606 968 q 783 693 783 831 q 754 565 783 616 q 678 482 724 513 q 582 434 632 451 l 856 0 l 713 0 l 470 400 l 267 400 l 267 0 l 144 0 l 144 968 m 412 863 l 267 863 l 267 503 l 420 503 q 600 550 543 503 q 657 688 657 596 q 597 823 657 783 q 412 863 537 863 z "},"S":{"ha":748,"x_min":76,"x_max":678,"o":"m 678 259 q 586 58 678 130 q 338 -14 494 -14 q 190 -2 258 -14 q 76 33 122 10 l 76 149 q 196 110 125 128 q 343 92 267 92 q 503 134 448 92 q 557 248 557 176 q 536 328 557 296 q 468 388 516 361 q 333 448 419 416 q 150 557 212 492 q 88 735 88 623 q 127 867 88 812 q 234 952 165 922 q 393 982 302 982 q 537 967 471 982 q 656 928 602 952 l 618 823 q 510 860 568 845 q 390 875 452 875 q 257 836 302 875 q 212 734 212 797 q 231 652 212 685 q 296 594 251 620 q 419 538 342 568 q 561 471 503 507 q 648 385 618 435 q 678 259 678 335 z "},"T":{"ha":878,"x_min":15,"x_max":862,"o":"m 501 861 l 501 0 l 378 0 l 378 861 l 15 861 l 15 968 l 862 968 l 862 861 l 501 861 z "},"U":{"ha":962,"x_min":134,"x_max":827,"o":"m 827 968 l 827 342 q 789 161 827 241 q 673 34 751 81 q 477 -14 596 -14 q 222 85 309 -14 q 134 345 134 183 l 134 968 l 256 968 l 256 340 q 313 157 256 222 q 483 92 370 92 q 653 162 600 92 q 706 342 706 232 l 706 968 l 827 968 z "},"V":{"ha":908,"x_min":0,"x_max":908,"o":"m 781 968 l 908 968 l 513 0 l 396 0 l 0 968 l 125 968 l 383 347 q 426 235 409 286 q 454 136 442 184 q 526 350 476 229 l 781 968 z "},"W":{"ha":1188,"x_min":18,"x_max":1169,"o":"m 1043 968 l 1169 968 l 930 0 l 805 0 l 635 635 q 615 713 625 673 q 598 783 605 753 q 590 826 592 814 q 575 750 588 808 q 547 631 563 693 l 382 0 l 256 0 l 18 968 l 144 968 l 281 377 q 325 146 312 248 q 345 262 332 199 q 374 384 358 324 l 528 968 l 652 968 l 812 380 q 843 255 829 317 q 863 146 856 193 q 880 256 868 197 q 907 378 892 315 l 1043 968 z "},"X":{"ha":869,"x_min":5,"x_max":864,"o":"m 503 507 l 864 0 l 726 0 l 432 420 l 133 0 l 5 0 l 366 505 l 28 968 l 165 968 l 437 589 l 712 968 l 838 968 l 503 507 z "},"Y":{"ha":865,"x_min":0,"x_max":865,"o":"m 134 968 l 433 492 l 734 968 l 865 968 l 494 376 l 494 0 l 372 0 l 372 370 l 0 968 l 134 968 z "},"Z":{"ha":840,"x_min":56,"x_max":782,"o":"m 782 109 l 782 0 l 56 0 l 56 92 l 620 860 l 75 860 l 75 968 l 767 968 l 767 876 l 204 109 l 782 109 z "},"[":{"ha":452,"x_min":119,"x_max":414,"o":"m 414 -117 l 414 -214 l 119 -214 l 119 968 l 414 968 l 414 871 l 235 871 l 235 -117 l 414 -117 z "},"\\":{"ha":728,"x_min":30,"x_max":701,"o":"m 30 968 l 157 968 l 701 0 l 571 0 l 30 968 z "},"]":{"ha":452,"x_min":37,"x_max":332,"o":"m 37 -214 l 37 -117 l 217 -117 l 217 871 l 37 871 l 37 968 l 332 968 l 332 -214 l 37 -214 z "},"^":{"ha":878,"x_min":56,"x_max":822,"o":"m 168 362 l 56 362 l 387 975 l 459 975 l 822 362 l 712 362 l 424 849 l 168 362 z "},"_":{"ha":694,"x_min":-3,"x_max":698,"o":"m 698 -122 l 698 -209 l -3 -209 l -3 -122 l 698 -122 z "},"`":{"ha":853,"x_min":262,"x_max":591,"o":"m 262 1039 l 415 1039 q 464 971 434 1008 q 527 899 493 934 q 591 838 561 863 l 591 822 l 511 822 q 415 885 467 846 q 320 962 363 923 q 262 1025 278 1000 l 262 1039 z "},"a":{"ha":767,"x_min":68,"x_max":646,"o":"m 391 739 q 584 681 521 739 q 646 495 646 623 l 646 0 l 560 0 l 537 103 l 532 103 q 434 15 485 43 q 293 -14 382 -14 q 133 39 197 -14 q 68 202 68 92 q 152 370 68 311 q 409 434 235 428 l 530 438 l 530 481 q 491 608 530 572 q 384 643 453 643 q 278 626 328 643 q 184 587 228 609 l 147 677 q 258 721 194 703 q 391 739 321 739 m 528 355 l 425 351 q 242 308 293 347 q 192 201 192 270 q 228 111 192 140 q 321 83 264 83 q 469 134 410 83 q 528 290 528 184 l 528 355 z "},"b":{"ha":874,"x_min":127,"x_max":792,"o":"m 246 1031 l 246 780 q 244 694 246 734 q 239 631 241 653 l 246 631 q 335 708 278 677 q 481 739 392 739 q 707 645 622 739 q 792 363 792 551 q 706 81 792 176 q 481 -14 621 -14 q 335 18 393 -14 q 246 92 278 49 l 237 92 l 212 0 l 127 0 l 127 1031 l 246 1031 m 462 640 q 293 574 340 640 q 246 368 246 507 l 246 362 q 292 157 246 228 q 465 85 338 85 q 618 158 568 85 q 669 365 669 230 q 462 640 669 640 z "},"c":{"ha":711,"x_min":82,"x_max":663,"o":"m 448 -14 q 259 26 341 -14 q 129 148 176 66 q 82 359 82 231 q 131 578 82 494 q 264 701 180 662 q 456 741 349 741 q 572 729 515 741 q 663 701 629 718 l 626 602 q 543 625 591 614 q 452 636 494 636 q 267 567 327 636 q 206 361 206 497 q 266 160 206 230 q 444 90 326 90 q 560 102 510 90 q 650 132 610 115 l 650 26 q 563 -3 611 7 q 448 -14 515 -14 z "},"d":{"ha":874,"x_min":82,"x_max":747,"o":"m 393 -14 q 167 81 252 -14 q 82 362 82 175 q 168 645 82 549 q 394 741 253 741 q 537 709 481 741 q 628 633 593 678 l 637 633 q 632 686 635 651 q 629 741 629 720 l 629 1031 l 747 1031 l 747 0 l 651 0 l 634 98 l 629 98 q 538 19 595 51 q 393 -14 481 -14 m 410 85 q 580 149 531 85 q 629 339 629 212 l 629 361 q 583 569 629 496 q 408 642 536 642 q 256 565 307 642 q 206 359 206 489 q 257 157 206 229 q 410 85 307 85 z "},"e":{"ha":774,"x_min":82,"x_max":698,"o":"m 401 741 q 618 651 539 741 q 698 412 698 561 l 698 340 l 205 340 q 268 153 209 218 q 435 88 328 88 q 556 101 503 88 q 666 138 610 114 l 666 34 q 557 -2 610 9 q 429 -14 503 -14 q 249 29 327 -14 q 126 154 170 71 q 82 358 82 237 q 122 563 82 477 q 234 695 162 649 q 401 741 306 741 m 399 643 q 267 588 315 643 q 208 435 218 533 l 574 435 q 531 586 573 528 q 399 643 489 643 z "},"f":{"ha":511,"x_min":22,"x_max":575,"o":"m 490 727 l 490 635 l 286 635 l 286 0 l 166 0 l 166 635 l 22 635 l 22 690 l 165 731 l 165 773 q 235 976 165 913 q 425 1038 304 1038 q 510 1030 471 1038 q 575 1013 548 1023 l 543 920 q 486 933 518 927 q 422 940 454 940 q 319 900 353 940 q 286 774 286 860 l 286 727 l 490 727 z "},"g":{"ha":866,"x_min":82,"x_max":739,"o":"m 388 741 q 520 714 460 741 q 621 631 580 687 l 629 631 l 645 727 l 739 727 l 739 -12 q 659 -247 739 -168 q 408 -326 578 -326 q 141 -279 245 -326 l 141 -170 q 416 -227 251 -227 q 567 -172 511 -227 q 622 -22 622 -117 l 622 7 q 624 54 622 23 q 626 96 625 84 l 620 96 q 389 -14 544 -14 q 163 85 244 -14 q 82 362 82 184 q 163 638 82 536 q 388 741 244 741 m 403 640 q 257 568 309 640 q 206 361 206 495 q 257 155 206 227 q 406 84 307 84 q 571 143 519 84 q 623 334 623 203 l 623 362 q 569 575 623 511 q 403 640 516 640 z "},"h":{"ha":862,"x_min":127,"x_max":741,"o":"m 246 1031 l 246 728 q 239 627 246 674 l 248 627 q 344 711 283 683 q 475 739 405 739 q 674 676 608 739 q 741 473 741 613 l 741 0 l 624 0 l 624 465 q 460 640 624 640 q 292 572 338 640 q 246 376 246 503 l 246 0 l 127 0 l 127 1031 l 246 1031 z "},"i":{"ha":401,"x_min":125,"x_max":277,"o":"m 203 1000 q 255 982 232 1000 q 277 924 277 964 q 255 866 277 885 q 203 848 232 848 q 148 866 170 848 q 125 924 125 885 q 148 982 125 964 q 203 1000 170 1000 m 141 727 l 260 727 l 260 0 l 141 0 l 141 727 z "},"j":{"ha":422,"x_min":-82,"x_max":308,"o":"m 161 924 q 183 982 161 964 q 236 1000 205 1000 q 286 982 264 1000 q 308 924 308 964 q 286 866 308 885 q 236 848 264 848 q 183 866 205 848 q 161 924 161 885 m 45 -326 q -31 -321 -1 -326 q -82 -309 -60 -316 l -82 -213 q -27 -223 -56 -219 q 37 -227 2 -227 q 136 -202 98 -227 q 174 -113 174 -178 l 174 727 l 294 727 l 294 -109 q 233 -268 294 -210 q 45 -326 173 -326 z "},"k":{"ha":812,"x_min":127,"x_max":799,"o":"m 244 1031 l 244 492 q 242 436 244 471 q 239 374 240 400 l 246 374 q 274 406 256 385 q 314 447 293 426 q 349 481 335 468 l 633 727 l 774 727 l 422 416 l 799 0 l 653 0 l 342 339 l 244 267 l 244 0 l 127 0 l 127 1031 l 244 1031 z "},"l":{"ha":401,"x_min":141,"x_max":260,"o":"m 260 1031 l 260 0 l 141 0 l 141 1031 l 260 1031 z "},"m":{"ha":1297,"x_min":127,"x_max":1176,"o":"m 929 741 q 1115 677 1053 741 q 1176 473 1176 614 l 1176 0 l 1059 0 l 1059 468 q 909 640 1059 640 q 757 579 803 640 q 711 401 711 517 l 711 0 l 593 0 l 593 468 q 442 640 593 640 q 289 572 332 640 q 246 377 246 505 l 246 0 l 127 0 l 127 727 l 224 727 l 241 628 l 248 628 q 340 713 282 685 q 464 741 398 741 q 688 618 635 741 l 694 618 q 794 711 731 681 q 929 741 857 741 z "},"n":{"ha":862,"x_min":127,"x_max":741,"o":"m 477 741 q 675 677 608 741 q 741 473 741 614 l 741 0 l 624 0 l 624 465 q 460 640 624 640 q 293 572 339 640 q 246 377 246 505 l 246 0 l 127 0 l 127 727 l 224 727 l 241 628 l 248 628 q 346 713 284 685 q 477 741 408 741 z "},"o":{"ha":853,"x_min":82,"x_max":773,"o":"m 773 365 q 679 85 773 184 q 425 -14 585 -14 q 249 31 326 -14 q 126 160 171 75 q 82 365 82 244 q 175 643 82 545 q 429 741 269 741 q 608 696 530 741 q 729 569 686 652 q 773 365 773 485 m 206 365 q 259 161 206 236 q 428 85 313 85 q 596 161 543 85 q 650 365 650 236 q 596 567 650 494 q 427 640 542 640 q 259 567 311 640 q 206 365 206 494 z "},"p":{"ha":874,"x_min":127,"x_max":792,"o":"m 482 741 q 707 647 622 741 q 792 365 792 553 q 707 83 792 179 q 481 -14 622 -14 q 336 18 393 -14 q 246 92 279 50 l 238 92 q 243 34 240 69 q 246 -27 246 -1 l 246 -326 l 127 -326 l 127 727 l 225 727 l 241 628 l 246 628 q 335 708 280 675 q 482 741 390 741 m 462 640 q 296 578 345 640 q 246 388 246 515 l 246 365 q 293 158 246 231 q 465 85 340 85 q 619 165 569 85 q 669 366 669 244 q 618 565 669 490 q 462 640 568 640 z "},"q":{"ha":874,"x_min":82,"x_max":747,"o":"m 628 -326 l 628 -15 q 629 42 628 9 q 635 98 631 75 l 627 98 q 537 19 594 51 q 390 -14 479 -14 q 167 81 252 -14 q 82 362 82 175 q 169 645 82 549 q 394 741 256 741 q 539 708 483 741 q 629 628 596 675 l 635 628 l 653 727 l 747 727 l 747 -326 l 628 -326 m 411 85 q 578 148 528 85 q 629 336 629 210 l 629 361 q 581 570 629 499 q 408 642 532 642 q 256 565 306 642 q 206 359 206 489 q 256 158 206 231 q 411 85 307 85 z "},"r":{"ha":568,"x_min":127,"x_max":546,"o":"m 463 741 q 505 739 482 741 q 546 732 528 736 l 532 623 q 493 629 515 627 q 454 632 472 632 q 351 602 399 632 q 275 516 304 571 q 246 388 246 461 l 246 0 l 127 0 l 127 727 l 224 727 l 238 594 l 243 594 q 332 697 277 654 q 463 741 387 741 z "},"s":{"ha":708,"x_min":76,"x_max":641,"o":"m 641 201 q 554 41 641 95 q 325 -14 468 -14 q 181 -2 241 -14 q 78 33 122 10 l 78 141 q 190 101 122 120 q 329 83 257 83 q 479 112 432 83 q 526 190 526 141 q 509 239 526 217 q 449 282 492 260 q 327 331 406 304 q 193 385 249 358 q 106 450 136 412 q 76 548 76 488 q 158 691 76 641 q 373 741 240 741 q 507 727 445 741 q 624 692 570 714 l 582 597 q 478 630 532 616 q 363 643 423 643 q 234 619 279 643 q 190 555 190 595 q 210 503 190 524 q 276 463 230 482 q 399 416 321 443 q 530 363 476 391 q 612 297 584 336 q 641 201 641 259 z "},"t":{"ha":519,"x_min":24,"x_max":487,"o":"m 380 84 q 439 89 408 84 q 487 99 470 93 l 487 8 q 431 -7 468 -1 q 361 -14 394 -14 q 250 6 302 -14 q 167 75 199 26 q 136 212 136 123 l 136 635 l 24 635 l 24 692 l 136 739 l 185 894 l 255 894 l 255 727 l 481 727 l 481 635 l 255 635 l 255 214 q 290 116 255 149 q 380 84 326 84 z "},"u":{"ha":862,"x_min":117,"x_max":735,"o":"m 616 727 l 735 727 l 735 0 l 637 0 l 620 96 l 614 96 q 516 13 579 39 q 383 -14 454 -14 q 184 50 252 -14 q 117 251 117 113 l 117 727 l 239 727 l 239 259 q 401 85 239 85 q 569 154 522 85 q 616 349 616 222 l 616 727 z "},"v":{"ha":719,"x_min":0,"x_max":719,"o":"m 429 0 l 290 0 l 0 727 l 128 727 l 292 298 q 317 232 304 269 q 341 162 330 196 q 355 106 351 128 l 361 106 q 378 162 367 128 q 403 233 389 197 q 428 298 416 269 l 591 727 l 719 727 l 429 0 z "},"w":{"ha":1070,"x_min":16,"x_max":1054,"o":"m 712 1 l 587 411 q 557 520 570 467 q 537 604 543 573 l 531 604 q 513 519 526 573 q 482 410 500 466 l 352 1 l 216 1 l 16 728 l 140 728 l 241 340 q 270 222 256 281 q 288 123 283 162 l 294 123 q 306 180 298 146 q 323 252 314 215 q 342 319 333 289 l 472 728 l 602 728 l 727 319 q 756 218 741 272 q 776 125 771 163 l 781 125 q 800 219 785 159 q 830 340 814 279 l 932 728 l 1054 728 l 852 1 l 712 1 z "},"x":{"ha":852,"x_min":26,"x_max":825,"o":"m 26 0 l 360 372 l 42 727 l 178 727 l 427 453 l 674 727 l 808 727 l 490 372 l 825 0 l 690 0 l 427 290 l 160 0 l 26 0 z "},"y":{"ha":726,"x_min":2,"x_max":726,"o":"m 312 -3 l 2 727 l 130 727 l 298 313 q 338 209 321 258 q 365 115 356 160 l 370 115 q 399 204 380 149 q 439 315 418 259 l 596 727 l 726 727 l 393 -100 q 291 -264 353 -203 q 118 -326 228 -326 q 58 -322 84 -326 q 14 -315 32 -319 l 14 -220 q 51 -225 29 -222 q 98 -228 73 -228 q 205 -193 164 -228 q 270 -99 245 -158 l 312 -3 z "},"z":{"ha":796,"x_min":58,"x_max":739,"o":"m 739 92 l 739 0 l 58 0 l 58 79 l 599 635 l 90 635 l 90 727 l 728 727 l 728 637 l 192 92 l 739 92 z "},"{":{"ha":452,"x_min":41,"x_max":404,"o":"m 404 -117 l 404 -214 q 175 1 175 -212 l 175 201 q 139 299 175 270 q 41 328 104 328 l 41 427 q 139 457 104 429 q 175 553 175 486 l 175 754 q 234 915 175 862 q 404 968 294 968 l 404 871 q 320 839 353 869 q 287 743 287 810 l 287 548 q 165 382 287 409 l 165 374 q 287 209 287 348 l 287 9 q 319 -86 287 -56 q 404 -117 351 -115 z "},"|":{"ha":519,"x_min":214,"x_max":306,"o":"m 214 -327 l 214 1031 l 306 1031 l 306 -327 l 214 -327 z "},"}":{"ha":452,"x_min":47,"x_max":410,"o":"m 47 -214 l 47 -117 q 133 -85 100 -115 q 165 11 165 -55 l 165 208 q 287 373 165 347 l 287 381 q 165 547 165 408 l 165 745 q 134 841 165 811 q 47 871 102 870 l 47 968 q 277 753 277 966 l 277 555 q 313 456 277 486 q 410 427 349 427 l 410 328 q 313 299 349 328 q 277 202 277 271 l 277 0 q 218 -161 277 -108 q 47 -214 159 -214 z "},"~":{"ha":878,"x_min":75,"x_max":802,"o":"m 414 433 q 322 462 358 454 q 252 469 286 469 q 160 446 209 469 q 75 389 112 423 l 75 495 q 260 567 150 567 q 349 558 304 567 q 464 524 393 550 q 556 495 520 503 q 624 487 591 487 q 718 510 669 487 q 802 567 766 534 l 802 463 q 618 389 727 389 q 528 398 574 389 q 414 433 483 406 z "}," ":{"ha":439,"x_min":0,"x_max":0,"o":""},"¡":{"ha":439,"x_min":117,"x_max":322,"o":"m 322 648 q 292 577 322 597 q 220 557 262 557 q 147 577 177 557 q 117 648 117 597 q 147 719 117 697 q 220 741 177 741 q 292 719 262 741 q 322 648 322 697 m 138 -247 l 189 448 l 247 448 l 298 -247 l 138 -247 z "},"¢":{"ha":878,"x_min":136,"x_max":749,"o":"m 544 982 l 544 873 q 657 861 602 871 q 749 834 711 850 l 713 735 q 620 760 673 749 q 525 770 567 770 q 322 702 387 770 q 258 492 258 633 q 323 287 258 351 q 517 222 389 222 q 638 234 588 222 q 736 263 689 246 l 736 159 q 649 130 694 140 q 542 118 604 120 l 542 -14 l 441 -14 l 441 122 q 280 175 349 134 q 174 293 212 216 q 136 491 136 370 q 174 693 136 614 q 280 814 212 772 q 441 868 349 856 l 441 982 l 544 982 z "},"£":{"ha":878,"x_min":47,"x_max":823,"o":"m 515 981 q 667 965 600 981 q 785 925 734 949 l 741 830 q 639 866 696 850 q 515 882 581 882 q 373 842 422 882 q 324 712 324 802 l 324 524 l 646 524 l 646 434 l 324 434 l 324 293 q 293 171 324 211 q 220 109 261 130 l 823 109 l 823 0 l 47 0 l 47 100 q 159 158 115 115 q 204 292 204 202 l 204 434 l 53 434 l 53 524 l 204 524 l 204 724 q 289 913 204 846 q 515 981 374 981 z "},"¤":{"ha":879,"x_min":87,"x_max":788,"o":"m 134 479 q 150 558 134 519 q 191 628 166 597 l 87 720 l 157 784 l 261 697 q 344 732 298 720 q 440 745 389 745 q 533 732 489 745 q 615 697 578 720 l 721 784 l 788 720 l 688 629 q 729 559 713 598 q 745 479 745 521 q 688 327 745 393 l 787 237 l 721 174 l 615 260 q 534 227 578 239 q 440 214 489 214 q 261 262 336 214 l 157 175 l 90 239 l 191 328 q 150 399 166 360 q 134 479 134 437 m 229 479 q 257 390 229 430 q 333 327 286 351 q 440 304 381 304 q 548 327 500 304 q 625 390 596 351 q 653 479 653 430 q 625 569 653 528 q 548 633 596 609 q 440 656 500 656 q 333 633 381 656 q 257 569 286 609 q 229 479 229 528 z "},"¥":{"ha":878,"x_min":20,"x_max":854,"o":"m 148 968 l 438 495 l 729 968 l 854 968 l 539 460 l 736 460 l 736 373 l 496 373 l 496 262 l 736 262 l 736 175 l 496 175 l 496 0 l 378 0 l 378 175 l 140 175 l 140 262 l 378 262 l 378 373 l 140 373 l 140 460 l 334 460 l 20 968 l 148 968 z "},"¦":{"ha":519,"x_min":214,"x_max":306,"o":"m 214 514 l 214 1031 l 306 1031 l 306 514 l 214 514 m 214 -327 l 214 190 l 306 190 l 306 -327 l 214 -327 z "},"§":{"ha":878,"x_min":87,"x_max":780,"o":"m 107 536 q 150 645 107 603 q 248 707 192 686 q 146 770 182 733 q 109 863 109 808 q 200 991 109 944 q 461 1038 291 1038 q 630 1025 564 1038 q 762 991 696 1012 l 722 901 q 600 932 660 919 q 448 945 541 945 q 281 924 328 945 q 233 865 233 903 q 256 821 233 840 q 334 781 279 801 q 486 736 389 762 q 700 649 621 698 q 778 519 778 601 q 737 407 778 450 q 643 339 696 363 q 744 278 709 314 q 780 190 780 242 q 675 45 780 96 q 389 -7 571 -7 q 215 5 288 -7 q 87 38 142 17 l 87 140 q 225 102 142 119 q 397 84 308 84 q 550 97 494 84 q 629 133 606 111 q 652 180 652 155 q 633 225 652 205 q 562 264 615 244 q 405 313 509 285 q 184 399 261 352 q 107 536 107 446 m 216 549 q 242 490 216 516 q 328 440 268 464 q 493 389 389 416 l 536 378 q 625 427 584 397 q 667 502 667 456 q 640 563 667 536 q 548 615 614 590 q 361 666 481 640 q 261 625 305 656 q 216 549 216 594 z "},"¨":{"ha":853,"x_min":222,"x_max":629,"o":"m 222 924 q 241 975 222 960 q 288 990 261 990 q 334 975 315 990 q 354 924 354 960 q 334 872 354 889 q 288 856 315 856 q 241 872 261 856 q 222 924 222 889 m 499 924 q 518 975 499 960 q 564 990 538 990 q 610 975 590 990 q 629 924 629 960 q 610 872 629 889 q 564 856 590 856 q 518 872 538 856 q 499 924 499 889 z "},"©":{"ha":1188,"x_min":73,"x_max":1116,"o":"m 594 -14 q 386 23 481 -14 q 220 127 290 60 q 111 285 150 194 q 73 484 73 376 q 111 684 73 593 q 220 841 150 774 q 386 945 290 908 q 594 982 481 982 q 797 945 702 982 q 963 841 891 908 q 1075 684 1035 774 q 1116 484 1116 593 q 1077 285 1116 376 q 968 127 1038 194 q 803 23 899 60 q 594 -14 708 -14 m 594 58 q 766 90 686 58 q 907 178 846 121 q 1002 313 968 235 q 1037 484 1037 391 q 1004 649 1037 572 q 912 785 972 726 q 772 877 853 844 q 594 910 691 910 q 365 856 465 910 q 208 705 265 801 q 151 484 151 608 q 183 319 151 396 q 276 183 216 242 q 416 92 335 125 q 594 58 498 58 m 616 180 q 407 264 476 180 q 338 484 338 347 q 371 641 338 572 q 467 748 404 709 q 623 787 531 787 q 795 746 714 787 l 755 663 q 624 699 684 699 q 492 641 538 699 q 446 484 446 584 q 486 325 446 380 q 622 269 527 269 q 695 278 654 269 q 770 300 735 287 l 770 213 q 702 190 736 199 q 616 180 667 180 z "},"ª":{"ha":652,"x_min":50,"x_max":578,"o":"m 320 979 q 515 943 452 979 q 578 826 578 907 l 578 528 l 501 528 l 483 585 q 384 538 442 556 q 254 519 326 519 q 104 553 158 519 q 50 654 50 586 q 127 758 50 722 q 366 796 203 793 l 488 799 l 488 829 q 440 891 488 873 q 331 909 393 909 q 220 899 273 909 q 127 873 167 889 l 90 940 q 200 968 136 958 q 320 979 264 979 m 488 738 l 386 735 q 241 723 293 733 q 168 695 189 713 q 146 654 146 678 q 180 604 146 619 q 268 589 213 589 q 436 621 385 589 q 488 707 488 653 l 488 738 z "},"«":{"ha":728,"x_min":60,"x_max":670,"o":"m 60 349 l 60 366 l 302 639 l 388 590 l 184 358 l 388 126 l 302 76 l 60 349 m 341 349 l 341 366 l 587 639 l 670 590 l 467 358 l 670 126 l 587 76 l 341 349 z "},"¬":{"ha":1104,"x_min":81,"x_max":1022,"o":"m 81 526 l 1022 526 l 1022 174 l 913 174 l 913 430 l 81 430 l 81 526 z "},"­":{"ha":804,"x_min":165,"x_max":638,"o":"m 638 311 l 165 311 l 165 416 l 638 416 l 638 311 z "},"®":{"ha":1188,"x_min":73,"x_max":1116,"o":"m 594 -14 q 386 23 481 -14 q 220 127 290 60 q 111 285 150 194 q 73 484 73 376 q 111 684 73 593 q 220 841 150 774 q 386 945 290 908 q 594 982 481 982 q 797 945 702 982 q 963 841 891 908 q 1075 684 1035 774 q 1116 484 1116 593 q 1077 285 1116 376 q 968 127 1038 194 q 803 23 899 60 q 594 -14 708 -14 m 594 58 q 766 90 686 58 q 907 178 846 121 q 1002 313 968 235 q 1037 484 1037 391 q 1004 649 1037 572 q 912 785 972 726 q 772 877 853 844 q 594 910 691 910 q 365 856 465 910 q 208 705 265 801 q 151 484 151 608 q 183 319 151 396 q 276 183 216 242 q 416 92 335 125 q 594 58 498 58 m 506 187 l 401 187 l 401 780 l 583 780 q 751 736 698 780 q 805 605 805 692 q 771 504 805 541 q 694 450 736 467 l 860 187 l 740 187 l 597 422 l 506 422 l 506 187 m 506 506 l 579 506 q 667 533 635 506 q 699 602 699 559 q 669 672 699 650 q 578 693 640 693 l 506 693 l 506 506 z "},"¯":{"ha":694,"x_min":-5,"x_max":699,"o":"m 699 1120 l 699 1031 l -5 1031 l -5 1120 l 699 1120 z "},"°":{"ha":602,"x_min":82,"x_max":520,"o":"m 301 566 q 142 623 202 566 q 82 773 82 681 q 141 924 82 866 q 301 982 200 982 q 459 924 399 982 q 520 773 520 866 q 459 623 520 681 q 301 566 399 566 m 303 646 q 401 681 370 646 q 432 773 432 716 q 399 868 432 832 q 303 903 366 903 q 203 868 235 903 q 171 773 171 832 q 202 681 171 716 q 303 646 234 646 z "},"±":{"ha":1104,"x_min":80,"x_max":1024,"o":"m 607 811 l 607 530 l 1021 530 l 1021 434 l 607 434 l 607 155 l 494 155 l 494 434 l 80 434 l 80 530 l 494 530 l 494 811 l 607 811 m 1024 0 l 80 0 l 80 96 l 1024 96 l 1024 0 z "},"²":{"ha":586,"x_min":35,"x_max":522,"o":"m 517 648 l 517 564 l 35 564 l 35 637 l 242 789 q 356 876 318 842 q 408 935 395 909 q 421 991 421 961 q 386 1056 421 1034 q 292 1078 350 1078 q 189 1062 234 1078 q 99 1020 143 1046 l 49 1082 q 157 1137 99 1116 q 283 1157 216 1157 q 457 1114 393 1157 q 522 997 522 1072 q 473 877 522 930 q 323 753 424 824 l 164 648 l 517 648 z "},"³":{"ha":586,"x_min":25,"x_max":543,"o":"m 277 1157 q 461 1115 400 1157 q 522 1008 522 1073 q 483 918 522 953 q 397 869 445 883 l 397 865 q 503 821 462 855 q 543 731 543 786 q 472 603 543 653 q 246 553 401 553 q 131 562 184 553 q 25 591 77 571 l 25 677 q 250 631 148 631 q 394 659 349 631 q 438 734 438 686 q 382 805 438 783 q 233 827 326 827 l 132 827 l 132 902 l 237 902 q 371 928 328 902 q 414 997 414 954 q 376 1060 414 1040 q 285 1080 337 1080 q 181 1066 229 1080 q 86 1028 134 1052 l 31 1090 q 141 1139 84 1121 q 277 1157 199 1157 z "},"´":{"ha":853,"x_min":262,"x_max":591,"o":"m 591 1039 l 591 1025 q 530 962 572 1000 q 437 885 488 923 q 340 822 387 846 l 262 822 l 262 838 q 323 899 290 863 q 385 971 355 934 q 435 1039 415 1008 l 591 1039 z "},"µ":{"ha":870,"x_min":127,"x_max":743,"o":"m 625 727 l 743 727 l 743 0 l 647 0 l 628 98 l 621 98 q 533 15 587 44 q 402 -14 479 -14 q 310 3 349 -14 q 245 47 272 20 l 239 47 q 244 -18 243 23 q 246 -114 246 -59 l 246 -326 l 127 -326 l 127 727 l 246 727 l 246 258 q 410 85 246 85 q 578 154 532 85 q 625 349 625 222 l 625 727 z "},"μ":{"ha":870,"x_min":127,"x_max":743,"o":"m 625 727 l 743 727 l 743 0 l 647 0 l 628 98 l 621 98 q 533 15 587 44 q 402 -14 479 -14 q 310 3 349 -14 q 245 47 272 20 l 239 47 q 244 -18 243 23 q 246 -114 246 -59 l 246 -326 l 127 -326 l 127 727 l 246 727 l 246 258 q 410 85 246 85 q 578 154 532 85 q 625 349 625 222 l 625 727 z "},"¶":{"ha":878,"x_min":82,"x_max":720,"o":"m 720 1031 l 720 -172 l 644 -172 l 644 955 l 514 955 l 514 -172 l 437 -172 l 437 370 q 394 361 418 364 q 347 358 369 358 q 207 390 267 358 q 115 494 148 421 q 82 690 82 566 q 118 894 82 820 q 217 1000 153 968 q 366 1031 281 1031 l 720 1031 z "},"·":{"ha":439,"x_min":336,"x_max":543,"o":"m 336 479 q 365 549 336 529 q 435 570 394 570 q 511 549 479 570 q 543 479 543 529 q 511 408 543 430 q 435 387 479 387 q 365 408 394 387 q 336 479 336 430 z "},"¸":{"ha":853,"x_min":239,"x_max":616,"o":"m 616 -189 q 540 -290 616 -254 q 307 -326 464 -326 q 239 -319 264 -326 l 239 -244 q 282 -249 252 -247 q 339 -251 312 -251 q 466 -238 422 -251 q 509 -191 509 -224 q 482 -153 509 -168 q 410 -130 454 -138 q 313 -117 365 -121 l 408 0 l 505 0 l 441 -72 q 567 -110 518 -83 q 616 -189 616 -136 z "},"¹":{"ha":586,"x_min":55,"x_max":422,"o":"m 295 1145 l 422 1145 l 422 564 l 317 564 l 317 939 q 320 1002 317 973 q 325 1059 322 1031 q 276 1033 302 1047 q 222 1006 250 1019 l 105 954 l 55 1020 l 295 1145 z "},"º":{"ha":652,"x_min":47,"x_max":606,"o":"m 606 750 q 530 580 606 640 q 325 519 453 519 q 126 578 204 519 q 47 750 47 637 q 123 920 47 861 q 328 979 199 979 q 531 921 456 979 q 606 750 606 862 m 139 750 q 182 631 139 671 q 326 591 226 591 q 470 631 425 591 q 514 750 514 671 q 470 869 514 831 q 326 907 425 907 q 183 869 228 907 q 139 750 139 831 z "},"»":{"ha":728,"x_min":58,"x_max":668,"o":"m 668 366 l 668 349 l 422 76 l 339 126 l 543 358 l 339 590 l 422 639 l 668 366 m 386 366 l 386 349 l 142 76 l 58 126 l 262 358 l 58 590 l 142 639 l 386 366 z "},"¼":{"ha":1113,"x_min":50,"x_max":1100,"o":"m 282 0 l 178 0 l 858 968 l 962 968 l 282 0 m 253 388 l 253 762 q 255 826 253 797 q 258 883 256 854 q 223 857 243 871 q 184 830 203 842 l 99 777 l 50 844 l 245 968 l 351 968 l 351 388 l 253 388 m 1006 0 l 901 0 l 901 130 l 599 130 l 599 201 l 905 585 l 1006 585 l 1006 212 l 1100 212 l 1100 130 l 1006 130 l 1006 0 m 829 370 l 701 212 l 901 212 l 901 338 q 902 404 901 366 q 905 475 903 442 q 872 427 898 460 q 829 370 847 393 z "},"½":{"ha":1113,"x_min":33,"x_max":1049,"o":"m 233 0 l 130 0 l 775 968 l 878 968 l 233 0 m 226 388 l 226 762 q 228 826 226 797 q 232 883 229 854 q 199 857 217 871 q 161 830 180 842 l 81 777 l 33 844 l 220 968 l 323 968 l 323 388 l 226 388 m 1047 0 l 639 0 l 639 73 l 808 225 q 899 312 868 278 q 941 371 930 345 q 952 427 952 397 q 924 492 952 470 q 850 514 896 514 q 769 498 806 514 q 695 456 733 482 l 647 518 q 739 572 689 552 q 850 593 788 593 q 996 550 943 593 q 1049 433 1049 507 q 1005 313 1049 366 q 876 189 960 260 l 759 84 l 1047 84 l 1047 0 z "},"¾":{"ha":1113,"x_min":22,"x_max":1100,"o":"m 209 377 q 112 386 157 377 q 22 415 66 395 l 22 500 q 211 454 123 454 q 322 482 287 454 q 357 557 357 510 q 315 629 357 606 q 197 651 272 651 l 115 651 l 115 726 l 197 726 q 304 752 271 726 q 338 821 338 778 q 309 883 338 863 q 237 903 279 903 q 153 889 192 903 q 76 852 115 876 l 26 914 q 119 963 70 945 q 234 981 168 981 q 387 939 336 981 q 438 831 438 897 q 407 742 438 777 q 334 693 376 707 l 334 689 q 423 644 389 679 q 456 555 456 610 q 396 427 456 477 q 209 377 336 377 m 346 0 l 243 0 l 872 968 l 975 968 l 346 0 m 1013 0 l 909 0 l 909 130 l 629 130 l 629 201 l 913 585 l 1013 585 l 1013 212 l 1100 212 l 1100 130 l 1013 130 l 1013 0 m 844 370 l 727 212 l 909 212 l 909 338 q 910 404 909 366 q 913 475 911 442 q 883 427 907 460 q 844 370 860 393 z "},"¿":{"ha":586,"x_min":35,"x_max":566,"o":"m 425 648 q 402 578 425 599 q 342 557 378 557 q 284 578 309 557 q 260 648 260 599 q 284 719 260 697 q 342 741 309 741 q 402 719 378 741 q 425 648 425 697 m 395 449 l 395 412 q 385 323 395 361 q 351 252 375 286 q 283 182 326 219 q 202 108 231 138 q 161 49 173 78 q 149 -20 149 20 q 191 -121 149 -85 q 310 -156 233 -156 q 427 -139 376 -156 q 524 -99 477 -121 l 566 -194 q 448 -241 513 -222 q 302 -260 382 -260 q 105 -197 175 -260 q 35 -23 35 -133 q 55 81 35 38 q 110 159 75 123 q 193 236 146 195 q 261 303 238 275 q 292 359 283 331 q 300 426 300 387 l 300 449 l 395 449 z "},"À":{"ha":958,"x_min":0,"x_max":957,"o":"m 957 0 l 833 0 l 694 300 l 258 300 l 121 0 l 0 0 l 431 972 l 529 972 l 957 0 m 656 408 l 527 701 q 513 741 523 712 q 493 799 503 769 q 477 846 483 829 q 454 765 466 805 q 432 701 441 725 l 302 408 l 656 408 m 269 1280 l 416 1280 q 459 1213 433 1250 q 514 1140 486 1175 q 569 1080 543 1105 l 569 1063 l 489 1063 q 406 1126 452 1088 q 323 1203 361 1164 q 269 1267 285 1242 l 269 1280 z "},"Á":{"ha":958,"x_min":0,"x_max":957,"o":"m 957 0 l 833 0 l 694 300 l 258 300 l 121 0 l 0 0 l 431 972 l 529 972 l 957 0 m 656 408 l 527 701 q 513 741 523 712 q 493 799 503 769 q 477 846 483 829 q 454 765 466 805 q 432 701 441 725 l 302 408 l 656 408 m 701 1280 l 701 1267 q 646 1203 684 1242 q 563 1126 608 1164 q 479 1063 518 1088 l 401 1063 l 401 1080 q 453 1140 425 1105 q 508 1213 481 1175 q 552 1280 534 1250 l 701 1280 z "},"Â":{"ha":958,"x_min":0,"x_max":957,"o":"m 957 0 l 833 0 l 694 300 l 258 300 l 121 0 l 0 0 l 431 972 l 529 972 l 957 0 m 656 408 l 527 701 q 513 741 523 712 q 493 799 503 769 q 477 846 483 829 q 454 765 466 805 q 432 701 441 725 l 302 408 l 656 408 m 414 1280 l 537 1280 q 590 1213 555 1250 q 662 1140 624 1175 q 730 1078 701 1104 l 730 1063 l 644 1063 q 560 1117 604 1085 q 474 1185 516 1149 q 390 1117 433 1149 q 307 1063 347 1086 l 224 1063 l 224 1078 q 290 1140 254 1105 q 361 1213 327 1176 q 414 1280 395 1250 z "},"Ã":{"ha":958,"x_min":0,"x_max":957,"o":"m 957 0 l 833 0 l 694 300 l 258 300 l 121 0 l 0 0 l 431 972 l 529 972 l 957 0 m 656 408 l 527 701 q 513 741 523 712 q 493 799 503 769 q 477 846 483 829 q 454 765 466 805 q 432 701 441 725 l 302 408 l 656 408 m 276 1063 l 203 1063 q 255 1191 213 1144 q 368 1237 298 1237 q 454 1218 414 1237 q 529 1179 494 1198 q 596 1160 565 1160 q 652 1179 633 1160 q 682 1238 671 1199 l 752 1238 q 702 1112 743 1159 q 589 1065 661 1065 q 507 1084 547 1065 q 431 1123 467 1103 q 361 1142 395 1142 q 305 1123 323 1142 q 276 1063 286 1103 z "},"Ä":{"ha":958,"x_min":0,"x_max":957,"o":"m 957 0 l 833 0 l 694 300 l 258 300 l 121 0 l 0 0 l 431 972 l 529 972 l 957 0 m 656 408 l 527 701 q 513 741 523 712 q 493 799 503 769 q 477 846 483 829 q 454 765 466 805 q 432 701 441 725 l 302 408 l 656 408 m 268 1165 q 288 1216 268 1201 q 336 1232 308 1232 q 382 1216 362 1232 q 402 1165 402 1201 q 382 1114 402 1131 q 336 1097 362 1097 q 288 1114 308 1097 q 268 1165 268 1131 m 555 1165 q 575 1216 555 1201 q 621 1232 595 1232 q 668 1216 648 1232 q 688 1165 688 1201 q 668 1114 688 1131 q 621 1097 648 1097 q 575 1114 595 1097 q 555 1165 555 1131 z "},"Å":{"ha":958,"x_min":0,"x_max":957,"o":"m 957 0 l 833 0 l 694 300 l 258 300 l 121 0 l 0 0 l 406 916 q 338 964 363 930 q 313 1048 313 998 q 358 1153 313 1116 q 476 1191 404 1191 q 594 1154 547 1191 q 642 1050 642 1116 q 617 967 642 1001 q 553 918 593 934 l 957 0 m 476 972 q 539 993 515 972 q 563 1048 563 1013 q 538 1104 563 1084 q 476 1124 513 1124 q 414 1104 439 1124 q 389 1048 389 1084 q 411 993 389 1013 q 476 972 434 972 m 656 408 l 527 701 q 513 741 523 712 q 493 799 503 769 q 477 846 483 829 q 454 765 466 805 q 432 701 441 725 l 302 408 l 656 408 z "},"Æ":{"ha":1259,"x_min":-2,"x_max":1170,"o":"m 1170 107 l 1170 0 l 641 0 l 641 300 l 281 300 l 123 0 l -2 0 l 486 968 l 1170 968 l 1170 861 l 763 861 l 763 559 l 1143 559 l 1143 453 l 763 453 l 763 107 l 1170 107 m 557 860 l 329 408 l 641 408 l 641 860 l 557 860 z "},"Ç":{"ha":961,"x_min":91,"x_max":915,"o":"m 718 -189 q 661 -290 718 -254 q 489 -326 604 -326 q 421 -319 446 -326 l 421 -244 q 457 -249 434 -247 q 500 -251 479 -251 q 589 -238 559 -251 q 619 -191 619 -224 q 577 -139 619 -155 q 477 -117 535 -123 l 538 -12 q 203 137 315 4 q 91 486 91 270 q 152 744 91 632 q 330 919 213 856 q 617 982 448 982 q 778 967 701 982 q 915 925 855 953 l 863 822 q 752 859 814 842 q 615 875 690 875 q 405 828 493 875 q 269 693 317 781 q 221 484 221 606 q 319 199 221 304 q 612 94 417 94 q 747 104 683 94 q 873 132 811 115 l 873 26 q 759 -3 817 7 q 620 -14 701 -12 l 586 -72 q 680 -110 642 -83 q 718 -189 718 -136 z "},"È":{"ha":753,"x_min":144,"x_max":663,"o":"m 663 107 l 663 0 l 144 0 l 144 968 l 663 968 l 663 861 l 267 861 l 267 559 l 640 559 l 640 453 l 267 453 l 267 107 l 663 107 m 206 1280 l 354 1280 q 397 1213 371 1250 q 452 1140 423 1175 q 507 1080 481 1105 l 507 1063 l 427 1063 q 344 1126 389 1088 q 260 1203 298 1164 q 206 1267 222 1242 l 206 1280 z "},"É":{"ha":753,"x_min":144,"x_max":663,"o":"m 663 107 l 663 0 l 144 0 l 144 968 l 663 968 l 663 861 l 267 861 l 267 559 l 640 559 l 640 453 l 267 453 l 267 107 l 663 107 m 639 1280 l 639 1267 q 583 1203 621 1242 q 500 1126 545 1164 q 417 1063 456 1088 l 338 1063 l 338 1080 q 391 1140 363 1105 q 446 1213 419 1175 q 490 1280 472 1250 l 639 1280 z "},"Ê":{"ha":753,"x_min":144,"x_max":667,"o":"m 663 107 l 663 0 l 144 0 l 144 968 l 663 968 l 663 861 l 267 861 l 267 559 l 640 559 l 640 453 l 267 453 l 267 107 l 663 107 m 352 1280 l 475 1280 q 527 1213 493 1250 q 600 1140 562 1175 q 667 1078 638 1104 l 667 1063 l 582 1063 q 497 1117 541 1085 q 412 1185 454 1149 q 328 1117 370 1149 q 244 1063 285 1086 l 162 1063 l 162 1078 q 228 1140 191 1105 q 298 1213 264 1176 q 352 1280 332 1250 z "},"Ë":{"ha":753,"x_min":144,"x_max":663,"o":"m 663 107 l 663 0 l 144 0 l 144 968 l 663 968 l 663 861 l 267 861 l 267 559 l 640 559 l 640 453 l 267 453 l 267 107 l 663 107 m 205 1165 q 225 1216 205 1201 q 273 1232 245 1232 q 320 1216 300 1232 q 340 1165 340 1201 q 320 1114 340 1131 q 273 1097 300 1097 q 225 1114 245 1097 q 205 1165 205 1131 m 493 1165 q 513 1216 493 1201 q 559 1232 532 1232 q 605 1216 585 1232 q 625 1165 625 1201 q 605 1114 625 1131 q 559 1097 585 1097 q 513 1114 532 1097 q 493 1165 493 1131 z "},"Ì":{"ha":400,"x_min":-8,"x_max":353,"o":"m 353 71 l 353 0 l 46 0 l 46 71 l 139 96 l 139 871 l 46 898 l 46 968 l 353 968 l 353 898 l 261 871 l 261 96 l 353 71 m -8 1280 l 140 1280 q 183 1213 157 1250 q 238 1140 209 1175 q 292 1080 267 1105 l 292 1063 l 212 1063 q 130 1126 175 1088 q 46 1203 84 1164 q -8 1267 8 1242 l -8 1280 z "},"Í":{"ha":400,"x_min":46,"x_max":425,"o":"m 353 71 l 353 0 l 46 0 l 46 71 l 139 96 l 139 871 l 46 898 l 46 968 l 353 968 l 353 898 l 261 871 l 261 96 l 353 71 m 425 1280 l 425 1267 q 369 1203 407 1242 q 286 1126 331 1164 q 203 1063 241 1088 l 124 1063 l 124 1080 q 177 1140 149 1105 q 231 1213 205 1175 q 275 1280 258 1250 l 425 1280 z "},"Î":{"ha":400,"x_min":-52,"x_max":453,"o":"m 353 71 l 353 0 l 46 0 l 46 71 l 139 96 l 139 871 l 46 898 l 46 968 l 353 968 l 353 898 l 261 871 l 261 96 l 353 71 m 138 1280 l 260 1280 q 313 1213 279 1250 q 386 1140 347 1175 q 453 1078 424 1104 l 453 1063 l 368 1063 q 283 1117 327 1085 q 197 1185 239 1149 q 113 1117 156 1149 q 30 1063 71 1086 l -52 1063 l -52 1078 q 14 1140 -23 1105 q 84 1213 50 1176 q 138 1280 118 1250 z "},"Ï":{"ha":400,"x_min":-9,"x_max":411,"o":"m 353 71 l 353 0 l 46 0 l 46 71 l 139 96 l 139 871 l 46 898 l 46 968 l 353 968 l 353 898 l 261 871 l 261 96 l 353 71 m -9 1165 q 11 1216 -9 1201 q 59 1232 31 1232 q 105 1216 85 1232 q 125 1165 125 1201 q 105 1114 125 1131 q 59 1097 85 1097 q 11 1114 31 1097 q -9 1165 -9 1131 m 279 1165 q 298 1216 279 1201 q 345 1232 318 1232 q 391 1216 371 1232 q 411 1165 411 1201 q 391 1114 411 1131 q 345 1097 371 1097 q 298 1114 318 1097 q 279 1165 279 1131 z "},"Ð":{"ha":1040,"x_min":45,"x_max":949,"o":"m 151 968 l 451 968 q 714 915 602 968 q 888 755 826 861 q 949 494 949 649 q 810 124 949 249 q 419 0 671 0 l 151 0 l 151 426 l 45 426 l 45 532 l 151 532 l 151 968 m 432 864 l 273 864 l 273 532 l 530 532 l 530 426 l 273 426 l 273 104 l 403 104 q 821 490 821 104 q 719 773 821 683 q 432 864 616 864 z "},"Ñ":{"ha":1026,"x_min":144,"x_max":882,"o":"m 882 968 l 882 0 l 738 0 l 252 804 l 246 804 q 253 686 250 757 q 257 541 257 616 l 257 0 l 144 0 l 144 968 l 288 968 l 772 167 l 777 167 q 774 232 777 189 q 770 327 772 275 q 768 422 768 378 l 768 968 l 882 968 m 312 1063 l 239 1063 q 291 1191 249 1144 q 404 1237 334 1237 q 490 1218 450 1237 q 565 1179 530 1198 q 632 1160 601 1160 q 688 1179 669 1160 q 718 1238 707 1199 l 788 1238 q 738 1112 779 1159 q 625 1065 696 1065 q 543 1084 583 1065 q 467 1123 503 1103 q 397 1142 431 1142 q 341 1123 359 1142 q 312 1063 322 1103 z "},"Ò":{"ha":1079,"x_min":91,"x_max":988,"o":"m 988 486 q 937 223 988 336 q 787 49 886 111 q 541 -14 687 -14 q 289 49 389 -14 q 140 224 189 112 q 91 487 91 337 q 140 747 91 635 q 289 921 189 859 q 542 983 389 983 q 787 922 688 983 q 937 748 886 860 q 988 486 988 636 m 220 486 q 298 197 220 302 q 541 92 376 92 q 783 197 707 92 q 859 486 859 302 q 783 772 859 669 q 542 876 707 876 q 298 772 376 876 q 220 486 220 669 m 332 1280 l 479 1280 q 523 1213 496 1250 q 577 1140 549 1175 q 632 1080 606 1105 l 632 1063 l 552 1063 q 469 1126 515 1088 q 386 1203 424 1164 q 332 1267 348 1242 l 332 1280 z "},"Ó":{"ha":1079,"x_min":91,"x_max":988,"o":"m 988 486 q 937 223 988 336 q 787 49 886 111 q 541 -14 687 -14 q 289 49 389 -14 q 140 224 189 112 q 91 487 91 337 q 140 747 91 635 q 289 921 189 859 q 542 983 389 983 q 787 922 688 983 q 937 748 886 860 q 988 486 988 636 m 220 486 q 298 197 220 302 q 541 92 376 92 q 783 197 707 92 q 859 486 859 302 q 783 772 859 669 q 542 876 707 876 q 298 772 376 876 q 220 486 220 669 m 764 1280 l 764 1267 q 709 1203 747 1242 q 626 1126 671 1164 q 543 1063 581 1088 l 464 1063 l 464 1080 q 516 1140 488 1105 q 571 1213 545 1175 q 615 1280 597 1250 l 764 1280 z "},"Ô":{"ha":1079,"x_min":91,"x_max":988,"o":"m 988 486 q 937 223 988 336 q 787 49 886 111 q 541 -14 687 -14 q 289 49 389 -14 q 140 224 189 112 q 91 487 91 337 q 140 747 91 635 q 289 921 189 859 q 542 983 389 983 q 787 922 688 983 q 937 748 886 860 q 988 486 988 636 m 220 486 q 298 197 220 302 q 541 92 376 92 q 783 197 707 92 q 859 486 859 302 q 783 772 859 669 q 542 876 707 876 q 298 772 376 876 q 220 486 220 669 m 477 1280 l 600 1280 q 653 1213 618 1250 q 725 1140 687 1175 q 793 1078 764 1104 l 793 1063 l 707 1063 q 623 1117 667 1085 q 537 1185 579 1149 q 453 1117 496 1149 q 370 1063 410 1086 l 288 1063 l 288 1078 q 353 1140 317 1105 q 424 1213 390 1176 q 477 1280 458 1250 z "},"Õ":{"ha":1079,"x_min":91,"x_max":988,"o":"m 988 486 q 937 223 988 336 q 787 49 886 111 q 541 -14 687 -14 q 289 49 389 -14 q 140 224 189 112 q 91 487 91 337 q 140 747 91 635 q 289 921 189 859 q 542 983 389 983 q 787 922 688 983 q 937 748 886 860 q 988 486 988 636 m 220 486 q 298 197 220 302 q 541 92 376 92 q 783 197 707 92 q 859 486 859 302 q 783 772 859 669 q 542 876 707 876 q 298 772 376 876 q 220 486 220 669 m 339 1063 l 267 1063 q 318 1191 276 1144 q 431 1237 361 1237 q 517 1218 477 1237 q 592 1179 557 1198 q 659 1160 628 1160 q 715 1179 696 1160 q 745 1238 734 1199 l 815 1238 q 765 1112 806 1159 q 652 1065 724 1065 q 570 1084 610 1065 q 494 1123 530 1103 q 425 1142 458 1142 q 368 1123 387 1142 q 339 1063 349 1103 z "},"Ö":{"ha":1079,"x_min":91,"x_max":988,"o":"m 988 486 q 937 223 988 336 q 787 49 886 111 q 541 -14 687 -14 q 289 49 389 -14 q 140 224 189 112 q 91 487 91 337 q 140 747 91 635 q 289 921 189 859 q 542 983 389 983 q 787 922 688 983 q 937 748 886 860 q 988 486 988 636 m 220 486 q 298 197 220 302 q 541 92 376 92 q 783 197 707 92 q 859 486 859 302 q 783 772 859 669 q 542 876 707 876 q 298 772 376 876 q 220 486 220 669 m 331 1165 q 351 1216 331 1201 q 399 1232 371 1232 q 445 1216 425 1232 q 465 1165 465 1201 q 445 1114 465 1131 q 399 1097 425 1097 q 351 1114 371 1097 q 331 1165 331 1131 m 618 1165 q 638 1216 618 1201 q 684 1232 658 1232 q 731 1216 711 1232 q 751 1165 751 1201 q 731 1114 751 1131 q 684 1097 711 1097 q 638 1114 658 1097 q 618 1165 618 1131 z "},"×":{"ha":1104,"x_min":102,"x_max":999,"o":"m 552 547 l 922 779 l 999 709 l 632 479 l 998 248 l 919 179 l 549 408 l 189 179 l 104 248 l 471 479 l 102 708 l 187 779 l 552 547 z "},"Ø":{"ha":1079,"x_min":91,"x_max":988,"o":"m 988 486 q 937 223 988 336 q 787 49 886 111 q 541 -14 687 -14 q 288 50 388 -14 l 223 -42 l 140 12 l 211 113 q 121 274 151 179 q 91 487 91 369 q 140 747 91 635 q 289 921 189 859 q 542 983 389 983 q 673 967 612 983 q 785 922 734 951 l 847 1012 l 930 956 l 861 860 q 988 486 988 726 m 220 486 q 236 335 220 402 q 284 217 252 267 l 719 829 q 542 876 649 876 q 298 772 376 876 q 220 486 220 669 m 859 486 q 790 760 859 660 l 353 144 q 436 106 389 119 q 541 92 483 92 q 783 197 707 92 q 859 486 859 302 z "},"Ù":{"ha":962,"x_min":134,"x_max":827,"o":"m 827 968 l 827 342 q 789 161 827 241 q 673 34 751 81 q 477 -14 596 -14 q 222 85 309 -14 q 134 345 134 183 l 134 968 l 256 968 l 256 340 q 313 157 256 222 q 483 92 370 92 q 653 162 600 92 q 706 342 706 232 l 706 968 l 827 968 m 273 1280 l 421 1280 q 464 1213 438 1250 q 519 1140 490 1175 q 574 1080 548 1105 l 574 1063 l 494 1063 q 411 1126 456 1088 q 328 1203 366 1164 q 273 1267 290 1242 l 273 1280 z "},"Ú":{"ha":962,"x_min":134,"x_max":827,"o":"m 827 968 l 827 342 q 789 161 827 241 q 673 34 751 81 q 477 -14 596 -14 q 222 85 309 -14 q 134 345 134 183 l 134 968 l 256 968 l 256 340 q 313 157 256 222 q 483 92 370 92 q 653 162 600 92 q 706 342 706 232 l 706 968 l 827 968 m 706 1280 l 706 1267 q 650 1203 688 1242 q 568 1126 612 1164 q 484 1063 523 1088 l 406 1063 l 406 1080 q 458 1140 430 1105 q 513 1213 486 1175 q 557 1280 539 1250 l 706 1280 z "},"Û":{"ha":962,"x_min":134,"x_max":827,"o":"m 827 968 l 827 342 q 789 161 827 241 q 673 34 751 81 q 477 -14 596 -14 q 222 85 309 -14 q 134 345 134 183 l 134 968 l 256 968 l 256 340 q 313 157 256 222 q 483 92 370 92 q 653 162 600 92 q 706 342 706 232 l 706 968 l 827 968 m 419 1280 l 542 1280 q 594 1213 560 1250 q 667 1140 629 1175 q 734 1078 705 1104 l 734 1063 l 649 1063 q 565 1117 608 1085 q 479 1185 521 1149 q 395 1117 437 1149 q 311 1063 352 1086 l 229 1063 l 229 1078 q 295 1140 258 1105 q 366 1213 332 1176 q 419 1280 399 1250 z "},"Ü":{"ha":962,"x_min":134,"x_max":827,"o":"m 827 968 l 827 342 q 789 161 827 241 q 673 34 751 81 q 477 -14 596 -14 q 222 85 309 -14 q 134 345 134 183 l 134 968 l 256 968 l 256 340 q 313 157 256 222 q 483 92 370 92 q 653 162 600 92 q 706 342 706 232 l 706 968 l 827 968 m 273 1165 q 293 1216 273 1201 q 340 1232 313 1232 q 387 1216 367 1232 q 407 1165 407 1201 q 387 1114 407 1131 q 340 1097 367 1097 q 293 1114 313 1097 q 273 1165 273 1131 m 560 1165 q 580 1216 560 1201 q 626 1232 600 1232 q 672 1216 652 1232 q 692 1165 692 1201 q 672 1114 692 1131 q 626 1097 652 1097 q 580 1114 600 1097 q 560 1165 560 1131 z "},"Ý":{"ha":865,"x_min":0,"x_max":865,"o":"m 134 968 l 433 492 l 734 968 l 865 968 l 494 376 l 494 0 l 372 0 l 372 370 l 0 968 l 134 968 m 656 1280 l 656 1267 q 601 1203 639 1242 q 518 1126 563 1164 q 435 1063 473 1088 l 356 1063 l 356 1080 q 409 1140 380 1105 q 463 1213 437 1175 q 507 1280 490 1250 l 656 1280 z "},"Þ":{"ha":768,"x_min":144,"x_max":692,"o":"m 692 518 q 661 367 692 437 q 558 253 631 296 q 358 210 485 210 l 267 210 l 267 0 l 144 0 l 144 968 l 267 968 l 267 800 l 373 800 q 617 726 542 800 q 692 518 692 652 m 267 313 l 346 313 q 513 359 459 313 q 567 511 567 405 q 519 650 567 605 q 365 696 472 696 l 267 696 l 267 313 z "},"ß":{"ha":831,"x_min":127,"x_max":764,"o":"m 684 837 q 658 740 684 779 q 598 670 632 700 q 537 615 564 641 q 511 559 511 589 q 520 526 511 541 q 553 491 529 511 q 622 438 576 471 q 726 339 688 389 q 764 208 764 288 q 699 39 764 92 q 530 -14 635 -14 q 425 -2 469 -14 q 346 33 380 10 l 346 140 q 426 101 378 119 q 522 83 473 83 q 617 114 587 83 q 646 199 646 146 q 621 282 646 248 q 530 362 596 315 q 423 458 452 417 q 395 552 395 498 q 412 624 395 594 q 454 676 429 653 q 505 721 479 699 q 547 768 530 742 q 564 830 564 794 q 520 913 564 887 q 409 939 477 939 q 329 926 366 939 q 269 882 292 913 q 246 792 246 850 l 246 0 l 127 0 l 127 792 q 164 937 127 883 q 265 1014 201 991 q 409 1038 329 1038 q 608 988 532 1038 q 684 837 684 938 z "},"à":{"ha":767,"x_min":68,"x_max":646,"o":"m 391 739 q 584 681 521 739 q 646 495 646 623 l 646 0 l 560 0 l 537 103 l 532 103 q 434 15 485 43 q 293 -14 382 -14 q 133 39 197 -14 q 68 202 68 92 q 152 370 68 311 q 409 434 235 428 l 530 438 l 530 481 q 491 608 530 572 q 384 643 453 643 q 278 626 328 643 q 184 587 228 609 l 147 677 q 258 721 194 703 q 391 739 321 739 m 528 355 l 425 351 q 242 308 293 347 q 192 201 192 270 q 228 111 192 140 q 321 83 264 83 q 469 134 410 83 q 528 290 528 184 l 528 355 m 173 1039 l 321 1039 q 364 971 338 1008 q 419 899 390 934 q 473 838 448 863 l 473 822 l 393 822 q 311 885 356 846 q 227 962 265 923 q 173 1025 189 1000 l 173 1039 z "},"á":{"ha":767,"x_min":68,"x_max":646,"o":"m 391 739 q 584 681 521 739 q 646 495 646 623 l 646 0 l 560 0 l 537 103 l 532 103 q 434 15 485 43 q 293 -14 382 -14 q 133 39 197 -14 q 68 202 68 92 q 152 370 68 311 q 409 434 235 428 l 530 438 l 530 481 q 491 608 530 572 q 384 643 453 643 q 278 626 328 643 q 184 587 228 609 l 147 677 q 258 721 194 703 q 391 739 321 739 m 528 355 l 425 351 q 242 308 293 347 q 192 201 192 270 q 228 111 192 140 q 321 83 264 83 q 469 134 410 83 q 528 290 528 184 l 528 355 m 606 1039 l 606 1025 q 550 962 588 1000 q 467 885 512 923 q 384 822 422 846 l 305 822 l 305 838 q 358 899 330 863 q 412 971 386 934 q 456 1039 439 1008 l 606 1039 z "},"â":{"ha":767,"x_min":68,"x_max":646,"o":"m 391 739 q 584 681 521 739 q 646 495 646 623 l 646 0 l 560 0 l 537 103 l 532 103 q 434 15 485 43 q 293 -14 382 -14 q 133 39 197 -14 q 68 202 68 92 q 152 370 68 311 q 409 434 235 428 l 530 438 l 530 481 q 491 608 530 572 q 384 643 453 643 q 278 626 328 643 q 184 587 228 609 l 147 677 q 258 721 194 703 q 391 739 321 739 m 528 355 l 425 351 q 242 308 293 347 q 192 201 192 270 q 228 111 192 140 q 321 83 264 83 q 469 134 410 83 q 528 290 528 184 l 528 355 m 319 1039 l 441 1039 q 494 971 460 1008 q 567 898 528 934 q 634 837 605 863 l 634 822 l 549 822 q 464 876 508 844 q 378 944 420 907 q 294 876 337 907 q 211 822 252 844 l 129 822 l 129 837 q 195 899 158 863 q 265 971 231 935 q 319 1039 299 1008 z "},"ã":{"ha":767,"x_min":68,"x_max":656,"o":"m 391 739 q 584 681 521 739 q 646 495 646 623 l 646 0 l 560 0 l 537 103 l 532 103 q 434 15 485 43 q 293 -14 382 -14 q 133 39 197 -14 q 68 202 68 92 q 152 370 68 311 q 409 434 235 428 l 530 438 l 530 481 q 491 608 530 572 q 384 643 453 643 q 278 626 328 643 q 184 587 228 609 l 147 677 q 258 721 194 703 q 391 739 321 739 m 528 355 l 425 351 q 242 308 293 347 q 192 201 192 270 q 228 111 192 140 q 321 83 264 83 q 469 134 410 83 q 528 290 528 184 l 528 355 m 180 822 l 108 822 q 160 949 117 903 q 273 996 202 996 q 358 976 318 996 q 434 938 398 957 q 500 918 469 918 q 556 938 538 918 q 587 997 575 958 l 656 997 q 606 870 648 918 q 494 823 565 823 q 412 843 452 823 q 335 881 372 862 q 266 901 299 901 q 209 881 228 901 q 180 822 191 862 z "},"ä":{"ha":767,"x_min":68,"x_max":646,"o":"m 391 739 q 584 681 521 739 q 646 495 646 623 l 646 0 l 560 0 l 537 103 l 532 103 q 434 15 485 43 q 293 -14 382 -14 q 133 39 197 -14 q 68 202 68 92 q 152 370 68 311 q 409 434 235 428 l 530 438 l 530 481 q 491 608 530 572 q 384 643 453 643 q 278 626 328 643 q 184 587 228 609 l 147 677 q 258 721 194 703 q 391 739 321 739 m 528 355 l 425 351 q 242 308 293 347 q 192 201 192 270 q 228 111 192 140 q 321 83 264 83 q 469 134 410 83 q 528 290 528 184 l 528 355 m 172 924 q 192 975 172 960 q 240 990 212 990 q 287 975 267 990 q 307 924 307 960 q 287 872 307 889 q 240 856 267 856 q 192 872 212 856 q 172 924 172 889 m 460 924 q 479 975 460 960 q 526 990 499 990 q 572 975 552 990 q 592 924 592 960 q 572 872 592 889 q 526 856 552 856 q 479 872 499 856 q 460 924 460 889 z "},"å":{"ha":767,"x_min":68,"x_max":646,"o":"m 391 739 q 584 681 521 739 q 646 495 646 623 l 646 0 l 560 0 l 537 103 l 532 103 q 434 15 485 43 q 293 -14 382 -14 q 133 39 197 -14 q 68 202 68 92 q 152 370 68 311 q 409 434 235 428 l 530 438 l 530 481 q 491 608 530 572 q 384 643 453 643 q 278 626 328 643 q 184 587 228 609 l 147 677 q 258 721 194 703 q 391 739 321 739 m 528 355 l 425 351 q 242 308 293 347 q 192 201 192 270 q 228 111 192 140 q 321 83 264 83 q 469 134 410 83 q 528 290 528 184 l 528 355 m 380 822 q 262 860 308 822 q 217 966 217 898 q 262 1070 217 1033 q 380 1108 308 1108 q 498 1071 451 1108 q 546 967 546 1034 q 499 860 546 898 q 380 822 452 822 m 380 890 q 444 910 419 890 q 468 966 468 930 q 443 1022 468 1002 q 380 1042 418 1042 q 318 1022 343 1042 q 293 966 293 1002 q 316 910 293 930 q 380 890 338 890 z "},"æ":{"ha":1182,"x_min":68,"x_max":1106,"o":"m 823 741 q 974 700 911 741 q 1072 585 1038 659 q 1106 415 1106 512 l 1106 342 l 642 342 q 699 150 646 212 q 852 88 751 88 q 971 101 919 88 q 1074 138 1023 114 l 1074 34 q 968 -2 1021 9 q 848 -14 916 -14 q 685 25 755 -14 q 574 140 615 64 q 465 28 527 70 q 299 -14 404 -14 q 135 39 201 -14 q 68 202 68 92 q 150 370 68 311 q 399 434 231 429 l 521 438 l 521 484 q 479 608 521 573 q 369 643 438 643 q 263 626 315 643 q 166 587 211 610 l 130 677 q 245 721 178 703 q 378 739 312 739 q 518 711 463 739 q 600 623 572 684 q 693 710 636 679 q 823 741 749 741 m 821 643 q 698 590 743 643 q 645 435 652 536 l 981 435 q 942 586 981 529 q 821 643 903 643 m 518 355 l 416 351 q 241 308 290 347 q 192 201 192 270 q 227 111 192 140 q 318 83 261 83 q 460 134 403 83 q 518 290 518 184 l 518 355 z "},"ç":{"ha":711,"x_min":82,"x_max":663,"o":"m 568 -189 q 511 -290 568 -254 q 342 -326 455 -326 q 275 -319 300 -326 l 275 -244 q 310 -249 288 -247 q 353 -251 332 -251 q 439 -238 409 -251 q 469 -191 469 -224 q 428 -139 469 -155 q 329 -117 387 -123 l 389 -10 q 168 94 253 4 q 82 359 82 184 q 131 578 82 494 q 264 701 180 662 q 456 741 349 741 q 572 729 515 741 q 663 701 629 718 l 626 602 q 543 625 591 614 q 452 636 494 636 q 267 567 327 636 q 206 361 206 497 q 266 160 206 230 q 444 90 326 90 q 560 102 510 90 q 650 132 610 115 l 650 26 q 572 -2 614 8 q 471 -14 529 -12 l 437 -72 q 530 -110 492 -83 q 568 -189 568 -136 z "},"è":{"ha":774,"x_min":82,"x_max":698,"o":"m 401 741 q 618 651 539 741 q 698 412 698 561 l 698 340 l 205 340 q 268 153 209 218 q 435 88 328 88 q 556 101 503 88 q 666 138 610 114 l 666 34 q 557 -2 610 9 q 429 -14 503 -14 q 249 29 327 -14 q 126 154 170 71 q 82 358 82 237 q 122 563 82 477 q 234 695 162 649 q 401 741 306 741 m 399 643 q 267 588 315 643 q 208 435 218 533 l 574 435 q 531 586 573 528 q 399 643 489 643 m 182 1039 l 330 1039 q 373 971 347 1008 q 428 899 399 934 q 483 838 457 863 l 483 822 l 403 822 q 320 885 366 846 q 237 962 275 923 q 182 1025 199 1000 l 182 1039 z "},"é":{"ha":774,"x_min":82,"x_max":698,"o":"m 401 741 q 618 651 539 741 q 698 412 698 561 l 698 340 l 205 340 q 268 153 209 218 q 435 88 328 88 q 556 101 503 88 q 666 138 610 114 l 666 34 q 557 -2 610 9 q 429 -14 503 -14 q 249 29 327 -14 q 126 154 170 71 q 82 358 82 237 q 122 563 82 477 q 234 695 162 649 q 401 741 306 741 m 399 643 q 267 588 315 643 q 208 435 218 533 l 574 435 q 531 586 573 528 q 399 643 489 643 m 615 1039 l 615 1025 q 559 962 597 1000 q 477 885 522 923 q 393 822 432 846 l 315 822 l 315 838 q 367 899 339 863 q 422 971 395 934 q 466 1039 448 1008 l 615 1039 z "},"ê":{"ha":774,"x_min":82,"x_max":698,"o":"m 401 741 q 618 651 539 741 q 698 412 698 561 l 698 340 l 205 340 q 268 153 209 218 q 435 88 328 88 q 556 101 503 88 q 666 138 610 114 l 666 34 q 557 -2 610 9 q 429 -14 503 -14 q 249 29 327 -14 q 126 154 170 71 q 82 358 82 237 q 122 563 82 477 q 234 695 162 649 q 401 741 306 741 m 399 643 q 267 588 315 643 q 208 435 218 533 l 574 435 q 531 586 573 528 q 399 643 489 643 m 328 1039 l 451 1039 q 504 971 469 1008 q 576 898 538 934 q 644 837 614 863 l 644 822 l 558 822 q 474 876 517 844 q 388 944 430 907 q 304 876 347 907 q 220 822 261 844 l 138 822 l 138 837 q 204 899 168 863 q 275 971 241 935 q 328 1039 309 1008 z "},"ë":{"ha":774,"x_min":82,"x_max":698,"o":"m 401 741 q 618 651 539 741 q 698 412 698 561 l 698 340 l 205 340 q 268 153 209 218 q 435 88 328 88 q 556 101 503 88 q 666 138 610 114 l 666 34 q 557 -2 610 9 q 429 -14 503 -14 q 249 29 327 -14 q 126 154 170 71 q 82 358 82 237 q 122 563 82 477 q 234 695 162 649 q 401 741 306 741 m 399 643 q 267 588 315 643 q 208 435 218 533 l 574 435 q 531 586 573 528 q 399 643 489 643 m 182 924 q 202 975 182 960 q 250 990 222 990 q 296 975 276 990 q 316 924 316 960 q 296 872 316 889 q 250 856 276 856 q 202 872 222 856 q 182 924 182 889 m 469 924 q 489 975 469 960 q 535 990 509 990 q 582 975 562 990 q 602 924 602 960 q 582 872 602 889 q 535 856 562 856 q 489 872 509 856 q 469 924 469 889 z "},"ì":{"ha":401,"x_min":-9,"x_max":292,"o":"m 260 727 l 260 0 l 141 0 l 141 727 l 260 727 m -9 1039 l 139 1039 q 182 971 156 1008 q 237 899 208 934 q 292 838 266 863 l 292 822 l 212 822 q 129 885 174 846 q 45 962 83 923 q -9 1025 7 1000 l -9 1039 z "},"í":{"ha":401,"x_min":123,"x_max":424,"o":"m 260 727 l 260 0 l 141 0 l 141 727 l 260 727 m 424 1039 l 424 1025 q 368 962 406 1000 q 286 885 330 923 q 202 822 241 846 l 123 822 l 123 838 q 176 899 148 863 q 231 971 204 934 q 275 1039 257 1008 l 424 1039 z "},"î":{"ha":401,"x_min":-53,"x_max":452,"o":"m 260 727 l 260 0 l 141 0 l 141 727 l 260 727 m 137 1039 l 260 1039 q 312 971 278 1008 q 385 898 347 934 q 452 837 423 863 l 452 822 l 367 822 q 282 876 326 844 q 197 944 239 907 q 113 876 155 907 q 29 822 70 844 l -53 822 l -53 837 q 13 899 -24 863 q 83 971 50 935 q 137 1039 117 1008 z "},"ï":{"ha":401,"x_min":-9,"x_max":410,"o":"m 260 727 l 260 0 l 141 0 l 141 727 l 260 727 m -9 924 q 11 975 -9 960 q 58 990 31 990 q 105 975 85 990 q 125 924 125 960 q 105 872 125 889 q 58 856 85 856 q 11 872 31 856 q -9 924 -9 889 m 278 924 q 298 975 278 960 q 344 990 317 990 q 390 975 370 990 q 410 924 410 960 q 390 872 410 889 q 344 856 370 856 q 298 872 317 856 q 278 924 278 889 z "},"ð":{"ha":837,"x_min":82,"x_max":757,"o":"m 252 956 l 301 1038 q 389 993 345 1017 q 473 940 433 968 l 629 1031 l 681 958 l 546 880 q 698 666 639 794 q 757 373 757 538 q 666 83 757 180 q 417 -14 575 -14 q 243 26 319 -14 q 125 140 168 66 q 82 316 82 214 q 169 555 82 468 q 402 642 255 642 q 528 623 474 642 q 614 563 582 604 l 620 566 q 554 708 599 643 q 451 825 509 773 l 274 723 l 222 798 l 375 884 q 252 956 319 922 m 420 545 q 254 485 305 545 q 203 312 203 425 q 255 148 203 212 q 420 84 307 84 q 585 150 532 84 q 637 340 637 216 q 584 485 637 425 q 420 545 530 545 z "},"ñ":{"ha":862,"x_min":127,"x_max":741,"o":"m 477 741 q 675 677 608 741 q 741 473 741 614 l 741 0 l 624 0 l 624 465 q 460 640 624 640 q 293 572 339 640 q 246 377 246 505 l 246 0 l 127 0 l 127 727 l 224 727 l 241 628 l 248 628 q 346 713 284 685 q 477 741 408 741 m 230 822 l 157 822 q 209 949 167 903 q 322 996 252 996 q 408 976 368 996 q 483 938 448 957 q 550 918 519 918 q 606 938 587 918 q 636 997 625 958 l 706 997 q 656 870 697 918 q 543 823 614 823 q 461 843 501 823 q 385 881 421 862 q 315 901 349 901 q 259 881 277 901 q 230 822 240 862 z "},"ò":{"ha":853,"x_min":82,"x_max":773,"o":"m 773 365 q 679 85 773 184 q 425 -14 585 -14 q 249 31 326 -14 q 126 160 171 75 q 82 365 82 244 q 175 643 82 545 q 429 741 269 741 q 608 696 530 741 q 729 569 686 652 q 773 365 773 485 m 206 365 q 259 161 206 236 q 428 85 313 85 q 596 161 543 85 q 650 365 650 236 q 596 567 650 494 q 427 640 542 640 q 259 567 311 640 q 206 365 206 494 m 219 1039 l 367 1039 q 410 971 384 1008 q 465 899 436 934 q 519 838 494 863 l 519 822 l 439 822 q 357 885 402 846 q 273 962 311 923 q 219 1025 235 1000 l 219 1039 z "},"ó":{"ha":853,"x_min":82,"x_max":773,"o":"m 773 365 q 679 85 773 184 q 425 -14 585 -14 q 249 31 326 -14 q 126 160 171 75 q 82 365 82 244 q 175 643 82 545 q 429 741 269 741 q 608 696 530 741 q 729 569 686 652 q 773 365 773 485 m 206 365 q 259 161 206 236 q 428 85 313 85 q 596 161 543 85 q 650 365 650 236 q 596 567 650 494 q 427 640 542 640 q 259 567 311 640 q 206 365 206 494 m 652 1039 l 652 1025 q 596 962 634 1000 q 513 885 558 923 q 430 822 469 846 l 351 822 l 351 838 q 404 899 376 863 q 458 971 432 934 q 503 1039 485 1008 l 652 1039 z "},"ô":{"ha":853,"x_min":82,"x_max":773,"o":"m 773 365 q 679 85 773 184 q 425 -14 585 -14 q 249 31 326 -14 q 126 160 171 75 q 82 365 82 244 q 175 643 82 545 q 429 741 269 741 q 608 696 530 741 q 729 569 686 652 q 773 365 773 485 m 206 365 q 259 161 206 236 q 428 85 313 85 q 596 161 543 85 q 650 365 650 236 q 596 567 650 494 q 427 640 542 640 q 259 567 311 640 q 206 365 206 494 m 365 1039 l 488 1039 q 540 971 506 1008 q 613 898 574 934 q 680 837 651 863 l 680 822 l 595 822 q 510 876 554 844 q 425 944 467 907 q 340 876 383 907 q 257 822 298 844 l 175 822 l 175 837 q 241 899 204 863 q 311 971 277 935 q 365 1039 345 1008 z "},"õ":{"ha":853,"x_min":82,"x_max":773,"o":"m 773 365 q 679 85 773 184 q 425 -14 585 -14 q 249 31 326 -14 q 126 160 171 75 q 82 365 82 244 q 175 643 82 545 q 429 741 269 741 q 608 696 530 741 q 729 569 686 652 q 773 365 773 485 m 206 365 q 259 161 206 236 q 428 85 313 85 q 596 161 543 85 q 650 365 650 236 q 596 567 650 494 q 427 640 542 640 q 259 567 311 640 q 206 365 206 494 m 227 822 l 154 822 q 206 949 163 903 q 319 996 248 996 q 404 976 364 996 q 480 938 444 957 q 547 918 515 918 q 603 938 584 918 q 633 997 621 958 l 703 997 q 652 870 694 918 q 540 823 611 823 q 458 843 498 823 q 381 881 418 862 q 312 901 345 901 q 255 881 274 901 q 227 822 237 862 z "},"ö":{"ha":853,"x_min":82,"x_max":773,"o":"m 773 365 q 679 85 773 184 q 425 -14 585 -14 q 249 31 326 -14 q 126 160 171 75 q 82 365 82 244 q 175 643 82 545 q 429 741 269 741 q 608 696 530 741 q 729 569 686 652 q 773 365 773 485 m 206 365 q 259 161 206 236 q 428 85 313 85 q 596 161 543 85 q 650 365 650 236 q 596 567 650 494 q 427 640 542 640 q 259 567 311 640 q 206 365 206 494 m 218 924 q 238 975 218 960 q 286 990 258 990 q 333 975 313 990 q 353 924 353 960 q 333 872 353 889 q 286 856 313 856 q 238 872 258 856 q 218 924 218 889 m 506 924 q 526 975 506 960 q 572 990 545 990 q 618 975 598 990 q 638 924 638 960 q 618 872 638 889 q 572 856 598 856 q 526 872 545 856 q 506 924 506 889 z "},"÷":{"ha":1104,"x_min":80,"x_max":1024,"o":"m 551 627 q 478 646 508 627 q 449 709 449 666 q 478 773 449 755 q 551 791 508 791 q 622 773 593 791 q 650 709 650 755 q 622 646 650 666 q 551 627 593 627 m 1024 430 l 80 430 l 80 526 l 1024 526 l 1024 430 m 551 164 q 478 184 508 164 q 449 247 449 203 q 478 311 449 293 q 551 328 508 328 q 622 311 593 328 q 650 247 650 293 q 622 184 650 203 q 551 164 593 164 z "},"ø":{"ha":853,"x_min":82,"x_max":773,"o":"m 773 365 q 679 85 773 184 q 425 -14 585 -14 q 244 31 321 -14 l 188 -45 l 108 8 l 171 92 q 105 209 128 141 q 82 365 82 277 q 175 643 82 545 q 429 741 269 741 q 613 692 532 741 l 668 768 l 749 716 l 686 631 q 750 516 726 583 q 773 365 773 450 m 206 365 q 214 269 206 313 q 241 191 222 225 l 551 606 q 427 640 500 640 q 259 567 311 640 q 206 365 206 494 m 650 365 q 616 532 650 465 l 306 117 q 428 85 354 85 q 596 161 542 85 q 650 365 650 236 z "},"ù":{"ha":862,"x_min":117,"x_max":735,"o":"m 616 727 l 735 727 l 735 0 l 637 0 l 620 96 l 614 96 q 516 13 579 39 q 383 -14 454 -14 q 184 50 252 -14 q 117 251 117 113 l 117 727 l 239 727 l 239 259 q 401 85 239 85 q 569 154 522 85 q 616 349 616 222 l 616 727 m 222 1039 l 370 1039 q 413 971 387 1008 q 468 899 439 934 q 522 838 496 863 l 522 822 l 442 822 q 359 885 405 846 q 276 962 314 923 q 222 1025 238 1000 l 222 1039 z "},"ú":{"ha":862,"x_min":117,"x_max":735,"o":"m 616 727 l 735 727 l 735 0 l 637 0 l 620 96 l 614 96 q 516 13 579 39 q 383 -14 454 -14 q 184 50 252 -14 q 117 251 117 113 l 117 727 l 239 727 l 239 259 q 401 85 239 85 q 569 154 522 85 q 616 349 616 222 l 616 727 m 654 1039 l 654 1025 q 599 962 637 1000 q 516 885 561 923 q 433 822 471 846 l 354 822 l 354 838 q 407 899 378 863 q 461 971 435 934 q 505 1039 488 1008 l 654 1039 z "},"û":{"ha":862,"x_min":117,"x_max":735,"o":"m 616 727 l 735 727 l 735 0 l 637 0 l 620 96 l 614 96 q 516 13 579 39 q 383 -14 454 -14 q 184 50 252 -14 q 117 251 117 113 l 117 727 l 239 727 l 239 259 q 401 85 239 85 q 569 154 522 85 q 616 349 616 222 l 616 727 m 368 1039 l 490 1039 q 543 971 509 1008 q 615 898 577 934 q 683 837 654 863 l 683 822 l 597 822 q 513 876 557 844 q 427 944 469 907 q 343 876 386 907 q 260 822 300 844 l 178 822 l 178 837 q 243 899 207 863 q 314 971 280 935 q 368 1039 348 1008 z "},"ü":{"ha":862,"x_min":117,"x_max":735,"o":"m 616 727 l 735 727 l 735 0 l 637 0 l 620 96 l 614 96 q 516 13 579 39 q 383 -14 454 -14 q 184 50 252 -14 q 117 251 117 113 l 117 727 l 239 727 l 239 259 q 401 85 239 85 q 569 154 522 85 q 616 349 616 222 l 616 727 m 221 924 q 241 975 221 960 q 289 990 261 990 q 335 975 315 990 q 355 924 355 960 q 335 872 355 889 q 289 856 315 856 q 241 872 261 856 q 221 924 221 889 m 509 924 q 528 975 509 960 q 574 990 548 990 q 621 975 601 990 q 641 924 641 960 q 621 872 641 889 q 574 856 601 856 q 528 872 548 856 q 509 924 509 889 z "},"ý":{"ha":726,"x_min":2,"x_max":726,"o":"m 312 -3 l 2 727 l 130 727 l 298 313 q 338 209 321 258 q 365 115 356 160 l 370 115 q 399 204 380 149 q 439 315 418 259 l 596 727 l 726 727 l 393 -100 q 291 -264 353 -203 q 118 -326 228 -326 q 58 -322 84 -326 q 14 -315 32 -319 l 14 -220 q 51 -225 29 -222 q 98 -228 73 -228 q 205 -193 164 -228 q 270 -99 245 -158 l 312 -3 m 587 1039 l 587 1025 q 532 962 570 1000 q 449 885 494 923 q 366 822 404 846 l 287 822 l 287 838 q 339 899 311 863 q 394 971 368 934 q 438 1039 420 1008 l 587 1039 z "},"þ":{"ha":874,"x_min":127,"x_max":792,"o":"m 792 365 q 707 83 792 179 q 482 -14 622 -14 q 337 18 393 -14 q 246 92 280 49 l 238 92 q 241 60 239 82 q 245 16 243 39 q 246 -22 246 -7 l 246 -326 l 127 -326 l 127 1031 l 246 1031 l 246 727 q 245 677 246 708 q 243 629 243 647 l 248 629 q 337 708 282 675 q 482 741 391 741 q 707 645 622 741 q 792 365 792 550 m 669 366 q 619 572 669 504 q 463 640 569 640 q 296 578 346 640 q 246 391 246 516 l 246 365 q 293 158 246 231 q 465 85 340 85 q 619 158 570 85 q 669 366 669 231 z "},"ÿ":{"ha":726,"x_min":2,"x_max":726,"o":"m 312 -3 l 2 727 l 130 727 l 298 313 q 338 209 321 258 q 365 115 356 160 l 370 115 q 399 204 380 149 q 439 315 418 259 l 596 727 l 726 727 l 393 -100 q 291 -264 353 -203 q 118 -326 228 -326 q 58 -322 84 -326 q 14 -315 32 -319 l 14 -220 q 51 -225 29 -222 q 98 -228 73 -228 q 205 -193 164 -228 q 270 -99 245 -158 l 312 -3 m 154 924 q 174 975 154 960 q 222 990 194 990 q 268 975 248 990 q 288 924 288 960 q 268 872 288 889 q 222 856 248 856 q 174 872 194 856 q 154 924 154 889 m 441 924 q 461 975 441 960 q 507 990 481 990 q 554 975 534 990 q 574 924 574 960 q 554 872 574 889 q 507 856 534 856 q 461 872 481 856 q 441 924 441 889 z "},"Ā":{"ha":958,"x_min":0,"x_max":957,"o":"m 957 0 l 833 0 l 694 300 l 258 300 l 121 0 l 0 0 l 431 972 l 529 972 l 957 0 m 656 408 l 527 701 q 513 741 523 712 q 493 799 503 769 q 477 846 483 829 q 454 765 466 805 q 432 701 441 725 l 302 408 l 656 408 m 254 1160 l 698 1160 l 698 1063 l 254 1063 l 254 1160 z "},"ā":{"ha":767,"x_min":68,"x_max":646,"o":"m 391 739 q 584 681 521 739 q 646 495 646 623 l 646 0 l 560 0 l 537 103 l 532 103 q 434 15 485 43 q 293 -14 382 -14 q 133 39 197 -14 q 68 202 68 92 q 152 370 68 311 q 409 434 235 428 l 530 438 l 530 481 q 491 608 530 572 q 384 643 453 643 q 278 626 328 643 q 184 587 228 609 l 147 677 q 258 721 194 703 q 391 739 321 739 m 528 355 l 425 351 q 242 308 293 347 q 192 201 192 270 q 228 111 192 140 q 321 83 264 83 q 469 134 410 83 q 528 290 528 184 l 528 355 m 159 918 l 602 918 l 602 822 l 159 822 l 159 918 z "},"Ă":{"ha":958,"x_min":0,"x_max":957,"o":"m 957 0 l 833 0 l 694 300 l 258 300 l 121 0 l 0 0 l 431 972 l 529 972 l 957 0 m 656 408 l 527 701 q 513 741 523 712 q 493 799 503 769 q 477 846 483 829 q 454 765 466 805 q 432 701 441 725 l 302 408 l 656 408 m 633 1245 l 709 1245 q 641 1114 701 1164 q 473 1063 581 1063 q 306 1113 362 1063 q 244 1245 250 1162 l 320 1245 q 366 1175 326 1190 q 476 1160 406 1160 q 581 1176 537 1160 q 633 1245 625 1192 z "},"ă":{"ha":767,"x_min":68,"x_max":646,"o":"m 391 739 q 584 681 521 739 q 646 495 646 623 l 646 0 l 560 0 l 537 103 l 532 103 q 434 15 485 43 q 293 -14 382 -14 q 133 39 197 -14 q 68 202 68 92 q 152 370 68 311 q 409 434 235 428 l 530 438 l 530 481 q 491 608 530 572 q 384 643 453 643 q 278 626 328 643 q 184 587 228 609 l 147 677 q 258 721 194 703 q 391 739 321 739 m 528 355 l 425 351 q 242 308 293 347 q 192 201 192 270 q 228 111 192 140 q 321 83 264 83 q 469 134 410 83 q 528 290 528 184 l 528 355 m 537 1004 l 613 1004 q 545 872 606 922 q 377 822 485 822 q 211 871 267 822 q 149 1004 155 920 l 224 1004 q 270 933 231 948 q 380 918 310 918 q 486 935 441 918 q 537 1004 530 951 z "},"Ą":{"ha":958,"x_min":0,"x_max":957,"o":"m 817 -157 q 835 -203 817 -188 q 886 -218 854 -218 q 928 -215 911 -218 q 957 -210 945 -212 l 957 -286 q 916 -295 936 -291 q 867 -298 895 -298 q 751 -264 787 -298 q 715 -171 715 -231 q 732 -105 715 -138 q 777 -45 750 -73 q 829 3 803 -17 l 693 300 l 257 300 l 121 0 l 0 0 l 429 972 l 528 972 l 955 0 l 920 0 q 843 -79 869 -43 q 817 -157 817 -115 m 654 408 l 526 701 q 512 741 522 712 q 492 799 502 769 q 476 846 481 829 q 452 765 465 805 q 431 701 440 725 l 301 408 l 654 408 z "},"ą":{"ha":767,"x_min":68,"x_max":684,"o":"m 559 -157 q 620 -218 559 -218 q 657 -215 642 -218 q 684 -210 673 -212 l 684 -286 q 646 -295 665 -291 q 601 -298 627 -298 q 496 -264 530 -298 q 463 -171 463 -231 q 495 -74 463 -121 q 564 3 527 -28 l 541 103 l 536 103 q 437 15 488 43 q 295 -14 385 -14 q 133 39 198 -14 q 68 202 68 92 q 153 370 68 311 q 412 434 237 428 l 534 438 l 534 481 q 495 608 534 572 q 387 643 456 643 q 279 626 330 643 q 184 587 229 609 l 148 677 q 259 721 195 703 q 393 739 323 739 q 588 681 524 739 q 651 495 651 623 l 651 0 l 650 0 q 582 -79 605 -43 q 559 -157 559 -115 m 533 355 l 428 351 q 243 308 294 347 q 192 201 192 270 q 229 111 192 140 q 323 83 265 83 q 473 134 412 83 q 533 290 533 184 l 533 355 z "},"Ć":{"ha":961,"x_min":91,"x_max":915,"o":"m 615 875 q 405 828 493 875 q 269 693 317 781 q 221 484 221 606 q 319 199 221 304 q 612 94 417 94 q 747 104 683 94 q 873 132 811 115 l 873 26 q 749 -4 813 5 q 593 -14 685 -14 q 315 48 427 -14 q 147 221 203 109 q 91 486 91 333 q 152 744 91 632 q 330 919 213 856 q 617 982 448 982 q 778 967 701 982 q 915 925 855 953 l 863 822 q 752 859 814 842 q 615 875 690 875 m 805 1280 l 805 1267 q 749 1203 787 1242 q 667 1126 711 1164 q 583 1063 622 1088 l 505 1063 l 505 1080 q 557 1140 529 1105 q 612 1213 585 1175 q 656 1280 638 1250 l 805 1280 z "},"ć":{"ha":711,"x_min":82,"x_max":663,"o":"m 448 -14 q 259 26 341 -14 q 129 148 176 66 q 82 359 82 231 q 131 578 82 494 q 264 701 180 662 q 456 741 349 741 q 572 729 515 741 q 663 701 629 718 l 626 602 q 543 625 591 614 q 452 636 494 636 q 267 567 327 636 q 206 361 206 497 q 266 160 206 230 q 444 90 326 90 q 560 102 510 90 q 650 132 610 115 l 650 26 q 563 -3 611 7 q 448 -14 515 -14 m 648 1039 l 648 1025 q 593 962 631 1000 q 510 885 555 923 q 427 822 465 846 l 348 822 l 348 838 q 400 899 372 863 q 455 971 429 934 q 499 1039 481 1008 l 648 1039 z "},"Ĉ":{"ha":961,"x_min":91,"x_max":915,"o":"m 615 875 q 405 828 493 875 q 269 693 317 781 q 221 484 221 606 q 319 199 221 304 q 612 94 417 94 q 747 104 683 94 q 873 132 811 115 l 873 26 q 749 -4 813 5 q 593 -14 685 -14 q 315 48 427 -14 q 147 221 203 109 q 91 486 91 333 q 152 744 91 632 q 330 919 213 856 q 617 982 448 982 q 778 967 701 982 q 915 925 855 953 l 863 822 q 752 859 814 842 q 615 875 690 875 m 518 1280 l 641 1280 q 693 1213 659 1250 q 766 1140 728 1175 q 833 1078 804 1104 l 833 1063 l 748 1063 q 664 1117 707 1085 q 578 1185 620 1149 q 494 1117 536 1149 q 410 1063 451 1086 l 328 1063 l 328 1078 q 394 1140 357 1105 q 465 1213 431 1176 q 518 1280 498 1250 z "},"ĉ":{"ha":711,"x_min":82,"x_max":677,"o":"m 448 -14 q 259 26 341 -14 q 129 148 176 66 q 82 359 82 231 q 131 578 82 494 q 264 701 180 662 q 456 741 349 741 q 572 729 515 741 q 663 701 629 718 l 626 602 q 543 625 591 614 q 452 636 494 636 q 267 567 327 636 q 206 361 206 497 q 266 160 206 230 q 444 90 326 90 q 560 102 510 90 q 650 132 610 115 l 650 26 q 563 -3 611 7 q 448 -14 515 -14 m 361 1039 l 484 1039 q 537 971 503 1008 q 609 898 571 934 q 677 837 648 863 l 677 822 l 591 822 q 507 876 551 844 q 421 944 463 907 q 337 876 380 907 q 254 822 294 844 l 172 822 l 172 837 q 237 899 201 863 q 308 971 274 935 q 361 1039 342 1008 z "},"Ċ":{"ha":961,"x_min":91,"x_max":915,"o":"m 615 875 q 405 828 493 875 q 269 693 317 781 q 221 484 221 606 q 319 199 221 304 q 612 94 417 94 q 747 104 683 94 q 873 132 811 115 l 873 26 q 749 -4 813 5 q 593 -14 685 -14 q 315 48 427 -14 q 147 221 203 109 q 91 486 91 333 q 152 744 91 632 q 330 919 213 856 q 617 982 448 982 q 778 967 701 982 q 915 925 855 953 l 863 822 q 752 859 814 842 q 615 875 690 875 m 584 1241 q 636 1223 613 1241 q 659 1165 659 1205 q 636 1108 659 1126 q 584 1089 613 1089 q 530 1108 552 1089 q 507 1165 507 1126 q 530 1223 507 1205 q 584 1241 552 1241 z "},"ċ":{"ha":711,"x_min":82,"x_max":663,"o":"m 448 -14 q 259 26 341 -14 q 129 148 176 66 q 82 359 82 231 q 131 578 82 494 q 264 701 180 662 q 456 741 349 741 q 572 729 515 741 q 663 701 629 718 l 626 602 q 543 625 591 614 q 452 636 494 636 q 267 567 327 636 q 206 361 206 497 q 266 160 206 230 q 444 90 326 90 q 560 102 510 90 q 650 132 610 115 l 650 26 q 563 -3 611 7 q 448 -14 515 -14 m 427 1000 q 479 982 456 1000 q 502 924 502 964 q 479 866 502 885 q 427 848 456 848 q 373 866 395 848 q 351 924 351 885 q 373 982 351 964 q 427 1000 395 1000 z "},"Č":{"ha":961,"x_min":91,"x_max":915,"o":"m 615 875 q 405 828 493 875 q 269 693 317 781 q 221 484 221 606 q 319 199 221 304 q 612 94 417 94 q 747 104 683 94 q 873 132 811 115 l 873 26 q 749 -4 813 5 q 593 -14 685 -14 q 315 48 427 -14 q 147 221 203 109 q 91 486 91 333 q 152 744 91 632 q 330 919 213 856 q 617 982 448 982 q 778 967 701 982 q 915 925 855 953 l 863 822 q 752 859 814 842 q 615 875 690 875 m 640 1063 l 517 1063 q 464 1131 498 1094 q 393 1202 430 1167 q 328 1263 356 1237 l 328 1280 l 411 1280 q 495 1225 451 1257 q 578 1156 540 1192 q 663 1225 620 1192 q 747 1280 707 1257 l 833 1280 l 833 1263 q 765 1202 804 1237 q 693 1131 727 1167 q 640 1063 659 1094 z "},"č":{"ha":711,"x_min":82,"x_max":676,"o":"m 448 -14 q 259 26 341 -14 q 129 148 176 66 q 82 359 82 231 q 131 578 82 494 q 264 701 180 662 q 456 741 349 741 q 572 729 515 741 q 663 701 629 718 l 626 602 q 543 625 591 614 q 452 636 494 636 q 267 567 327 636 q 206 361 206 497 q 266 160 206 230 q 444 90 326 90 q 560 102 510 90 q 650 132 610 115 l 650 26 q 563 -3 611 7 q 448 -14 515 -14 m 484 822 l 361 822 q 307 889 341 852 q 236 961 273 926 q 172 1021 199 996 l 172 1039 l 254 1039 q 339 983 294 1016 q 421 914 383 951 q 507 983 463 951 q 591 1039 550 1016 l 676 1039 l 676 1021 q 609 961 647 996 q 536 889 570 926 q 484 822 502 852 z "},"Ď":{"ha":1040,"x_min":144,"x_max":949,"o":"m 949 494 q 811 124 949 249 q 424 0 673 0 l 144 0 l 144 968 l 454 968 q 716 915 605 968 q 888 755 827 861 q 949 494 949 649 m 821 490 q 720 773 821 683 q 435 864 619 864 l 267 864 l 267 104 l 406 104 q 821 490 821 104 m 575 1063 l 452 1063 q 399 1131 433 1094 q 328 1202 365 1167 q 263 1263 291 1237 l 263 1280 l 346 1280 q 430 1225 386 1257 q 513 1156 475 1192 q 598 1225 555 1192 q 682 1280 642 1257 l 768 1280 l 768 1263 q 700 1202 739 1237 q 628 1131 662 1167 q 575 1063 593 1094 z "},"ď":{"ha":991,"x_min":82,"x_max":983,"o":"m 401 -14 q 169 81 256 -14 q 82 362 82 175 q 170 645 82 549 q 401 741 258 741 q 550 709 492 741 q 642 633 607 678 l 651 633 q 646 686 649 651 q 642 741 642 720 l 642 1031 l 762 1031 l 762 0 l 665 0 l 648 98 l 642 98 q 550 19 608 51 q 401 -14 492 -14 m 983 1031 l 983 1019 q 962 958 978 994 q 924 882 945 921 q 881 814 903 844 l 817 814 l 817 830 q 845 928 831 869 q 865 1031 859 987 l 983 1031 m 416 85 q 592 149 541 85 q 643 339 643 212 l 643 361 q 595 569 643 496 q 415 642 547 642 q 258 565 310 642 q 206 359 206 489 q 258 157 206 229 q 416 85 310 85 z "},"Đ":{"ha":1040,"x_min":45,"x_max":949,"o":"m 151 968 l 451 968 q 714 915 602 968 q 888 755 826 861 q 949 494 949 649 q 810 124 949 249 q 419 0 671 0 l 151 0 l 151 426 l 45 426 l 45 532 l 151 532 l 151 968 m 432 864 l 273 864 l 273 532 l 530 532 l 530 426 l 273 426 l 273 104 l 403 104 q 821 490 821 104 q 719 773 821 683 q 432 864 616 864 z "},"đ":{"ha":874,"x_min":82,"x_max":858,"o":"m 395 -14 q 167 80 252 -14 q 82 359 82 174 q 168 643 82 550 q 394 736 254 736 q 539 705 484 736 q 631 629 595 674 l 640 629 q 634 682 637 647 q 631 738 631 717 l 631 821 l 326 821 l 326 910 l 631 910 l 631 1031 l 751 1031 l 751 910 l 858 910 l 858 821 l 751 821 l 751 0 l 653 0 l 636 98 l 631 98 q 540 19 597 51 q 395 -14 484 -14 m 412 85 q 583 148 533 85 q 632 336 632 210 l 632 359 q 585 567 632 496 q 410 637 538 637 q 257 563 307 637 q 207 358 207 488 q 257 157 207 228 q 412 85 308 85 z "},"Ē":{"ha":753,"x_min":144,"x_max":663,"o":"m 663 107 l 663 0 l 144 0 l 144 968 l 663 968 l 663 861 l 267 861 l 267 559 l 640 559 l 640 453 l 267 453 l 267 107 l 663 107 m 192 1160 l 635 1160 l 635 1063 l 192 1063 l 192 1160 z "},"ē":{"ha":774,"x_min":82,"x_max":698,"o":"m 401 741 q 618 651 539 741 q 698 412 698 561 l 698 340 l 205 340 q 268 153 209 218 q 435 88 328 88 q 556 101 503 88 q 666 138 610 114 l 666 34 q 557 -2 610 9 q 429 -14 503 -14 q 249 29 327 -14 q 126 154 170 71 q 82 358 82 237 q 122 563 82 477 q 234 695 162 649 q 401 741 306 741 m 399 643 q 267 588 315 643 q 208 435 218 533 l 574 435 q 531 586 573 528 q 399 643 489 643 m 168 918 l 612 918 l 612 822 l 168 822 l 168 918 z "},"Ĕ":{"ha":753,"x_min":144,"x_max":663,"o":"m 663 107 l 663 0 l 144 0 l 144 968 l 663 968 l 663 861 l 267 861 l 267 559 l 640 559 l 640 453 l 267 453 l 267 107 l 663 107 m 570 1245 l 646 1245 q 578 1114 639 1164 q 410 1063 518 1063 q 244 1113 300 1063 q 182 1245 188 1162 l 258 1245 q 303 1175 264 1190 q 414 1160 343 1160 q 519 1176 475 1160 q 570 1245 563 1192 z "},"ĕ":{"ha":774,"x_min":82,"x_max":698,"o":"m 401 741 q 618 651 539 741 q 698 412 698 561 l 698 340 l 205 340 q 268 153 209 218 q 435 88 328 88 q 556 101 503 88 q 666 138 610 114 l 666 34 q 557 -2 610 9 q 429 -14 503 -14 q 249 29 327 -14 q 126 154 170 71 q 82 358 82 237 q 122 563 82 477 q 234 695 162 649 q 401 741 306 741 m 399 643 q 267 588 315 643 q 208 435 218 533 l 574 435 q 531 586 573 528 q 399 643 489 643 m 547 1004 l 623 1004 q 555 872 615 922 q 387 822 494 822 q 220 871 276 822 q 158 1004 164 920 l 234 1004 q 280 933 240 948 q 390 918 319 918 q 495 935 451 918 q 547 1004 539 951 z "},"Ė":{"ha":753,"x_min":144,"x_max":663,"o":"m 663 107 l 663 0 l 144 0 l 144 968 l 663 968 l 663 861 l 267 861 l 267 559 l 640 559 l 640 453 l 267 453 l 267 107 l 663 107 m 418 1241 q 470 1223 447 1241 q 492 1165 492 1205 q 470 1108 492 1126 q 418 1089 447 1089 q 363 1108 386 1089 q 341 1165 341 1126 q 363 1223 341 1205 q 418 1241 386 1241 z "},"ė":{"ha":774,"x_min":82,"x_max":698,"o":"m 401 741 q 618 651 539 741 q 698 412 698 561 l 698 340 l 205 340 q 268 153 209 218 q 435 88 328 88 q 556 101 503 88 q 666 138 610 114 l 666 34 q 557 -2 610 9 q 429 -14 503 -14 q 249 29 327 -14 q 126 154 170 71 q 82 358 82 237 q 122 563 82 477 q 234 695 162 649 q 401 741 306 741 m 399 643 q 267 588 315 643 q 208 435 218 533 l 574 435 q 531 586 573 528 q 399 643 489 643 m 394 1000 q 446 982 423 1000 q 469 924 469 964 q 446 866 469 885 q 394 848 423 848 q 340 866 362 848 q 317 924 317 885 q 340 982 317 964 q 394 1000 362 1000 z "},"Ę":{"ha":753,"x_min":144,"x_max":663,"o":"m 536 -157 q 595 -218 536 -218 q 631 -215 616 -218 q 657 -210 646 -212 l 657 -286 q 620 -295 639 -291 q 576 -298 602 -298 q 474 -264 507 -298 q 441 -171 441 -231 q 470 -77 441 -122 q 535 0 500 -31 l 144 0 l 144 968 l 663 968 l 663 861 l 267 861 l 267 559 l 640 559 l 640 453 l 267 453 l 267 107 l 663 107 l 663 0 l 625 0 q 559 -79 581 -43 q 536 -157 536 -115 z "},"ę":{"ha":774,"x_min":82,"x_max":698,"o":"m 532 -157 q 592 -218 532 -218 q 630 -215 614 -218 q 656 -210 646 -212 l 656 -286 q 618 -295 637 -291 q 573 -298 600 -298 q 468 -264 501 -298 q 435 -171 435 -231 q 462 -82 435 -125 q 524 -7 490 -39 q 429 -14 481 -14 q 249 29 327 -14 q 126 154 170 71 q 82 358 82 237 q 122 563 82 477 q 234 695 162 649 q 401 741 306 741 q 618 651 539 741 q 698 412 698 561 l 698 340 l 205 340 q 268 153 209 218 q 435 88 328 88 q 556 101 503 88 q 666 138 610 114 l 666 34 q 558 -73 584 -31 q 532 -157 532 -115 m 399 643 q 267 588 315 643 q 208 435 218 533 l 574 435 q 531 586 573 528 q 399 643 489 643 z "},"Ě":{"ha":753,"x_min":144,"x_max":667,"o":"m 663 107 l 663 0 l 144 0 l 144 968 l 663 968 l 663 861 l 267 861 l 267 559 l 640 559 l 640 453 l 267 453 l 267 107 l 663 107 m 474 1063 l 351 1063 q 298 1131 332 1094 q 227 1202 264 1167 q 162 1263 190 1237 l 162 1280 l 245 1280 q 329 1225 285 1257 q 412 1156 374 1192 q 497 1225 454 1192 q 581 1280 541 1257 l 667 1280 l 667 1263 q 599 1202 637 1237 q 527 1131 561 1167 q 474 1063 492 1094 z "},"ě":{"ha":774,"x_min":82,"x_max":698,"o":"m 401 741 q 618 651 539 741 q 698 412 698 561 l 698 340 l 205 340 q 268 153 209 218 q 435 88 328 88 q 556 101 503 88 q 666 138 610 114 l 666 34 q 557 -2 610 9 q 429 -14 503 -14 q 249 29 327 -14 q 126 154 170 71 q 82 358 82 237 q 122 563 82 477 q 234 695 162 649 q 401 741 306 741 m 399 643 q 267 588 315 643 q 208 435 218 533 l 574 435 q 531 586 573 528 q 399 643 489 643 m 450 822 l 328 822 q 274 889 308 852 q 203 961 240 926 q 138 1021 166 996 l 138 1039 l 221 1039 q 306 983 261 1016 q 388 914 350 951 q 473 983 430 951 q 557 1039 517 1016 l 643 1039 l 643 1021 q 575 961 614 996 q 503 889 537 926 q 450 822 469 852 z "},"Ĝ":{"ha":1004,"x_min":91,"x_max":894,"o":"m 559 403 l 559 511 l 894 511 l 894 37 q 736 -1 816 12 q 554 -14 656 -14 q 301 47 404 -14 q 144 219 197 108 q 91 484 91 331 q 150 747 91 635 q 322 921 210 859 q 592 982 434 982 q 746 967 673 982 q 881 925 819 951 l 835 819 q 719 858 783 842 q 585 875 654 875 q 315 770 412 875 q 218 484 218 665 q 255 280 218 368 q 373 142 292 192 q 583 92 453 92 q 691 99 647 92 q 772 115 736 106 l 772 403 l 559 403 m 494 1280 l 616 1280 q 669 1213 635 1250 q 742 1140 703 1175 q 809 1078 780 1104 l 809 1063 l 724 1063 q 639 1117 683 1085 q 553 1185 595 1149 q 469 1117 512 1149 q 386 1063 427 1086 l 304 1063 l 304 1078 q 370 1140 333 1105 q 440 1213 406 1176 q 494 1280 474 1250 z "},"ĝ":{"ha":866,"x_min":82,"x_max":739,"o":"m 388 741 q 520 714 460 741 q 621 631 580 687 l 629 631 l 645 727 l 739 727 l 739 -12 q 659 -247 739 -168 q 408 -326 578 -326 q 141 -279 245 -326 l 141 -170 q 416 -227 251 -227 q 567 -172 511 -227 q 622 -22 622 -117 l 622 7 q 624 54 622 23 q 626 96 625 84 l 620 96 q 389 -14 544 -14 q 163 85 244 -14 q 82 362 82 184 q 163 638 82 536 q 388 741 244 741 m 403 640 q 257 568 309 640 q 206 361 206 495 q 257 155 206 227 q 406 84 307 84 q 571 143 519 84 q 623 334 623 203 l 623 362 q 569 575 623 511 q 403 640 516 640 m 354 1039 l 477 1039 q 529 971 495 1008 q 602 898 564 934 q 669 837 640 863 l 669 822 l 584 822 q 499 876 543 844 q 414 944 456 907 q 330 876 372 907 q 246 822 287 844 l 164 822 l 164 837 q 230 899 193 863 q 300 971 267 935 q 354 1039 334 1008 z "},"Ğ":{"ha":1004,"x_min":91,"x_max":894,"o":"m 559 403 l 559 511 l 894 511 l 894 37 q 736 -1 816 12 q 554 -14 656 -14 q 301 47 404 -14 q 144 219 197 108 q 91 484 91 331 q 150 747 91 635 q 322 921 210 859 q 592 982 434 982 q 746 967 673 982 q 881 925 819 951 l 835 819 q 719 858 783 842 q 585 875 654 875 q 315 770 412 875 q 218 484 218 665 q 255 280 218 368 q 373 142 292 192 q 583 92 453 92 q 691 99 647 92 q 772 115 736 106 l 772 403 l 559 403 m 712 1245 l 788 1245 q 720 1114 781 1164 q 552 1063 660 1063 q 386 1113 441 1063 q 323 1245 330 1162 l 399 1245 q 445 1175 406 1190 q 555 1160 485 1160 q 661 1176 616 1160 q 712 1245 705 1192 z "},"ğ":{"ha":866,"x_min":82,"x_max":739,"o":"m 388 741 q 520 714 460 741 q 621 631 580 687 l 629 631 l 645 727 l 739 727 l 739 -12 q 659 -247 739 -168 q 408 -326 578 -326 q 141 -279 245 -326 l 141 -170 q 416 -227 251 -227 q 567 -172 511 -227 q 622 -22 622 -117 l 622 7 q 624 54 622 23 q 626 96 625 84 l 620 96 q 389 -14 544 -14 q 163 85 244 -14 q 82 362 82 184 q 163 638 82 536 q 388 741 244 741 m 403 640 q 257 568 309 640 q 206 361 206 495 q 257 155 206 227 q 406 84 307 84 q 571 143 519 84 q 623 334 623 203 l 623 362 q 569 575 623 511 q 403 640 516 640 m 572 1004 l 648 1004 q 581 872 641 922 q 412 822 520 822 q 246 871 302 822 q 184 1004 190 920 l 260 1004 q 306 933 266 948 q 416 918 345 918 q 521 935 477 918 q 572 1004 565 951 z "},"Ġ":{"ha":1004,"x_min":91,"x_max":894,"o":"m 559 403 l 559 511 l 894 511 l 894 37 q 736 -1 816 12 q 554 -14 656 -14 q 301 47 404 -14 q 144 219 197 108 q 91 484 91 331 q 150 747 91 635 q 322 921 210 859 q 592 982 434 982 q 746 967 673 982 q 881 925 819 951 l 835 819 q 719 858 783 842 q 585 875 654 875 q 315 770 412 875 q 218 484 218 665 q 255 280 218 368 q 373 142 292 192 q 583 92 453 92 q 691 99 647 92 q 772 115 736 106 l 772 403 l 559 403 m 559 1241 q 611 1223 589 1241 q 634 1165 634 1205 q 611 1108 634 1126 q 559 1089 589 1089 q 505 1108 528 1089 q 483 1165 483 1126 q 505 1223 483 1205 q 559 1241 528 1241 z "},"ġ":{"ha":866,"x_min":82,"x_max":739,"o":"m 388 741 q 520 714 460 741 q 621 631 580 687 l 629 631 l 645 727 l 739 727 l 739 -12 q 659 -247 739 -168 q 408 -326 578 -326 q 141 -279 245 -326 l 141 -170 q 416 -227 251 -227 q 567 -172 511 -227 q 622 -22 622 -117 l 622 7 q 624 54 622 23 q 626 96 625 84 l 620 96 q 389 -14 544 -14 q 163 85 244 -14 q 82 362 82 184 q 163 638 82 536 q 388 741 244 741 m 403 640 q 257 568 309 640 q 206 361 206 495 q 257 155 206 227 q 406 84 307 84 q 571 143 519 84 q 623 334 623 203 l 623 362 q 569 575 623 511 q 403 640 516 640 m 420 1000 q 472 982 449 1000 q 494 924 494 964 q 472 866 494 885 q 420 848 449 848 q 366 866 388 848 q 343 924 343 885 q 366 982 343 964 q 420 1000 388 1000 z "},"Ģ":{"ha":1004,"x_min":91,"x_max":894,"o":"m 559 403 l 559 511 l 894 511 l 894 37 q 736 -1 816 12 q 554 -14 656 -14 q 301 47 404 -14 q 144 219 197 108 q 91 484 91 331 q 150 747 91 635 q 322 921 210 859 q 592 982 434 982 q 746 967 673 982 q 881 925 819 951 l 835 819 q 719 858 783 842 q 585 875 654 875 q 315 770 412 875 q 218 484 218 665 q 255 280 218 368 q 373 142 292 192 q 583 92 453 92 q 691 99 647 92 q 772 115 736 106 l 772 403 l 559 403 m 648 -83 l 648 -95 q 623 -156 643 -119 q 576 -232 604 -193 q 521 -300 549 -271 l 457 -300 l 457 -283 q 485 -225 470 -261 q 511 -150 499 -189 q 528 -83 523 -112 l 648 -83 z "},"ģ":{"ha":866,"x_min":82,"x_max":739,"o":"m 508 1039 l 508 1023 q 485 963 497 1000 q 463 889 473 927 q 449 822 454 851 l 331 822 l 331 834 q 354 895 338 859 q 394 970 371 932 q 441 1039 416 1009 l 508 1039 m 388 741 q 520 714 460 741 q 621 631 580 687 l 629 631 l 645 727 l 739 727 l 739 -12 q 659 -247 739 -168 q 408 -326 578 -326 q 141 -279 245 -326 l 141 -170 q 416 -227 251 -227 q 567 -172 511 -227 q 622 -22 622 -117 l 622 7 q 624 54 622 23 q 626 96 625 84 l 620 96 q 389 -14 544 -14 q 163 85 244 -14 q 82 362 82 184 q 163 638 82 536 q 388 741 244 741 m 403 640 q 257 568 309 640 q 206 361 206 495 q 257 155 206 227 q 406 84 307 84 q 571 143 519 84 q 623 334 623 203 l 623 362 q 569 575 623 511 q 403 640 516 640 z "},"Ĥ":{"ha":1021,"x_min":144,"x_max":875,"o":"m 875 968 l 875 0 l 753 0 l 753 452 l 267 452 l 267 0 l 144 0 l 144 968 l 267 968 l 267 559 l 753 559 l 753 968 l 875 968 m 448 1280 l 571 1280 q 624 1213 589 1250 q 696 1140 658 1175 q 764 1078 734 1104 l 764 1063 l 678 1063 q 594 1117 637 1085 q 508 1185 550 1149 q 424 1117 467 1149 q 340 1063 381 1086 l 258 1063 l 258 1078 q 324 1140 288 1105 q 395 1213 361 1176 q 448 1280 429 1250 z "},"ĥ":{"ha":862,"x_min":-65,"x_max":741,"o":"m 246 1031 l 246 728 q 239 627 246 674 l 248 627 q 344 711 283 683 q 475 739 405 739 q 674 676 608 739 q 741 473 741 613 l 741 0 l 624 0 l 624 465 q 460 640 624 640 q 292 572 338 640 q 246 376 246 503 l 246 0 l 127 0 l 127 1031 l 246 1031 m 125 1343 l 248 1343 q 300 1275 266 1312 q 373 1202 334 1238 q 440 1141 411 1166 l 440 1126 l 355 1126 q 270 1179 314 1147 q 184 1248 227 1211 q 100 1180 143 1211 q 17 1126 58 1148 l -65 1126 l -65 1141 q 1 1203 -36 1167 q 71 1275 37 1238 q 125 1343 105 1312 z "},"Ħ":{"ha":1097,"x_min":0,"x_max":1095,"o":"m 268 0 l 146 0 l 146 709 l 0 709 l 0 807 l 146 807 l 146 968 l 268 968 l 268 807 l 828 807 l 828 968 l 950 968 l 950 807 l 1095 807 l 1095 709 l 950 709 l 950 0 l 828 0 l 828 452 l 268 452 l 268 0 m 268 709 l 268 559 l 828 559 l 828 709 l 268 709 z "},"ħ":{"ha":862,"x_min":13,"x_max":741,"o":"m 119 1031 l 238 1031 l 238 909 l 533 909 l 533 819 l 238 819 l 238 701 q 231 601 238 646 l 239 601 q 337 685 275 657 q 472 713 399 713 q 674 650 606 713 q 741 446 741 586 l 741 0 l 624 0 l 624 438 q 456 613 624 613 q 285 545 332 613 q 238 350 238 477 l 238 0 l 119 0 l 119 819 l 13 819 l 13 909 l 119 909 l 119 1031 z "},"Ĩ":{"ha":400,"x_min":-73,"x_max":475,"o":"m 353 71 l 353 0 l 46 0 l 46 71 l 139 96 l 139 871 l 46 898 l 46 968 l 353 968 l 353 898 l 261 871 l 261 96 l 353 71 m -1 1063 l -73 1063 q -21 1191 -64 1144 q 92 1237 21 1237 q 177 1218 137 1237 q 253 1179 217 1198 q 319 1160 288 1160 q 375 1179 357 1160 q 406 1238 394 1199 l 475 1238 q 425 1112 467 1159 q 313 1065 384 1065 q 231 1084 271 1065 q 154 1123 191 1103 q 85 1142 118 1142 q 28 1123 47 1142 q -1 1063 9 1103 z "},"ĩ":{"ha":401,"x_min":-74,"x_max":475,"o":"m 260 727 l 260 0 l 141 0 l 141 727 l 260 727 m -1 822 l -74 822 q -22 949 -64 903 q 91 996 20 996 q 176 976 136 996 q 252 938 216 957 q 319 918 288 918 q 375 938 356 918 q 405 997 393 958 l 475 997 q 425 870 466 918 q 312 823 383 823 q 230 843 270 823 q 154 881 190 862 q 84 901 117 901 q 27 881 46 901 q -1 822 9 862 z "},"Ī":{"ha":400,"x_min":-22,"x_max":421,"o":"m 353 71 l 353 0 l 46 0 l 46 71 l 139 96 l 139 871 l 46 898 l 46 968 l 353 968 l 353 898 l 261 871 l 261 96 l 353 71 m -22 1160 l 421 1160 l 421 1063 l -22 1063 l -22 1160 z "},"ī":{"ha":401,"x_min":-23,"x_max":420,"o":"m 260 727 l 260 0 l 141 0 l 141 727 l 260 727 m -23 918 l 420 918 l 420 822 l -23 822 l -23 918 z "},"Ĭ":{"ha":400,"x_min":-33,"x_max":432,"o":"m 353 71 l 353 0 l 46 0 l 46 71 l 139 96 l 139 871 l 46 898 l 46 968 l 353 968 l 353 898 l 261 871 l 261 96 l 353 71 m 356 1245 l 432 1245 q 364 1114 425 1164 q 196 1063 304 1063 q 30 1113 85 1063 q -33 1245 -26 1162 l 43 1245 q 89 1175 50 1190 q 199 1160 129 1160 q 304 1176 260 1160 q 356 1245 349 1192 z "},"ĭ":{"ha":401,"x_min":-33,"x_max":431,"o":"m 260 727 l 260 0 l 141 0 l 141 727 l 260 727 m 355 1004 l 431 1004 q 363 872 424 922 q 195 822 303 822 q 29 871 85 822 q -33 1004 -27 920 l 43 1004 q 89 933 49 948 q 199 918 128 918 q 304 935 260 918 q 355 1004 348 951 z "},"Į":{"ha":400,"x_min":45,"x_max":354,"o":"m 252 -157 q 300 -218 252 -218 q 331 -215 317 -218 q 354 -210 345 -212 l 354 -286 q 321 -295 338 -291 q 281 -298 304 -298 q 192 -264 222 -298 q 162 -171 162 -231 q 185 -77 162 -122 q 242 0 209 -31 l 45 0 l 45 71 l 138 96 l 138 871 l 45 898 l 45 968 l 353 968 l 353 898 l 260 871 l 260 96 l 353 71 l 353 0 l 326 0 q 271 -79 289 -43 q 252 -157 252 -115 z "},"į":{"ha":401,"x_min":40,"x_max":303,"o":"m 212 1000 q 261 982 239 1000 q 283 924 283 964 q 261 866 283 885 q 212 848 239 848 q 159 866 180 848 q 138 924 138 885 q 159 982 138 964 q 212 1000 180 1000 m 147 -157 q 168 -203 147 -188 q 225 -218 189 -218 q 272 -215 254 -218 q 303 -210 290 -212 l 303 -286 q 258 -295 280 -291 q 205 -298 236 -298 q 78 -264 117 -298 q 40 -171 40 -231 q 59 -107 40 -138 q 107 -48 79 -75 q 161 0 135 -20 l 150 0 l 150 727 l 269 727 l 269 0 l 263 0 q 177 -79 206 -43 q 147 -157 147 -115 z "},"İ":{"ha":400,"x_min":46,"x_max":353,"o":"m 353 71 l 353 0 l 46 0 l 46 71 l 139 96 l 139 871 l 46 898 l 46 968 l 353 968 l 353 898 l 261 871 l 261 96 l 353 71 m 203 1241 q 255 1223 233 1241 q 278 1165 278 1205 q 255 1108 278 1126 q 203 1089 233 1089 q 149 1108 172 1089 q 127 1165 127 1126 q 149 1223 127 1205 q 203 1241 172 1241 z "},"ı":{"ha":401,"x_min":141,"x_max":260,"o":"m 260 727 l 260 0 l 141 0 l 141 727 l 260 727 z "},"Ĳ":{"ha":827,"x_min":60,"x_max":692,"o":"m 399 71 l 399 0 l 60 0 l 60 71 l 169 96 l 169 871 l 60 898 l 60 968 l 399 968 l 399 898 l 291 871 l 291 96 l 399 71 m 448 -258 q 393 -253 417 -258 q 351 -240 369 -248 l 351 -137 q 395 -147 372 -143 q 444 -151 418 -151 q 506 -137 477 -151 q 552 -90 534 -124 q 570 5 570 -56 l 570 968 l 692 968 l 692 15 q 625 -192 692 -125 q 448 -258 558 -258 z "},"ĳ":{"ha":804,"x_min":116,"x_max":689,"o":"m 191 1000 q 241 982 219 1000 q 263 924 263 964 q 241 866 263 885 q 191 848 219 848 q 138 866 159 848 q 116 924 116 885 q 138 982 116 964 q 191 1000 159 1000 m 543 924 q 565 982 543 964 q 618 1000 587 1000 q 667 982 646 1000 q 689 924 689 964 q 667 866 689 885 q 618 848 646 848 q 565 866 587 848 q 543 924 543 885 m 130 727 l 249 727 l 249 0 l 130 0 l 130 727 m 431 -326 q 356 -321 385 -326 q 305 -309 327 -316 l 305 -213 q 359 -223 331 -219 q 422 -227 387 -227 q 518 -202 481 -227 q 555 -113 555 -178 l 555 727 l 675 727 l 675 -109 q 615 -268 675 -210 q 431 -326 556 -326 z "},"Ĵ":{"ha":432,"x_min":-117,"x_max":488,"o":"m 1 -258 q -66 -253 -37 -258 q -117 -240 -95 -248 l -117 -137 q -59 -147 -90 -143 q 6 -151 -28 -151 q 85 -137 46 -151 q 149 -90 123 -124 q 174 5 174 -56 l 174 968 l 296 968 l 296 15 q 216 -192 296 -125 q 1 -258 136 -258 m 173 1280 l 296 1280 q 348 1213 314 1250 q 421 1140 382 1175 q 488 1078 459 1104 l 488 1063 l 403 1063 q 318 1117 362 1085 q 233 1185 275 1149 q 149 1117 191 1149 q 65 1063 106 1086 l -17 1063 l -17 1078 q 49 1140 12 1105 q 119 1213 85 1176 q 173 1280 153 1250 z "},"ĵ":{"ha":422,"x_min":-82,"x_max":488,"o":"m 46 -326 q -30 -321 0 -326 q -82 -309 -60 -316 l -82 -213 q -26 -223 -56 -219 q 39 -227 3 -227 q 138 -202 99 -227 q 176 -113 176 -178 l 176 727 l 296 727 l 296 -109 q 235 -268 296 -210 q 46 -326 174 -326 m 173 1039 l 296 1039 q 348 971 314 1008 q 421 898 382 934 q 488 837 459 863 l 488 822 l 403 822 q 318 876 362 844 q 233 944 275 907 q 149 876 191 907 q 65 822 106 844 l -17 822 l -17 837 q 49 899 12 863 q 119 971 85 935 q 173 1039 153 1008 z "},"Ķ":{"ha":907,"x_min":144,"x_max":907,"o":"m 465 547 l 907 0 l 762 0 l 376 463 l 267 376 l 267 0 l 144 0 l 144 968 l 267 968 l 267 491 q 360 583 313 537 q 455 675 408 629 l 745 968 l 889 968 l 465 547 m 580 -83 l 580 -95 q 555 -156 574 -119 q 508 -232 535 -193 q 452 -300 481 -271 l 389 -300 l 389 -283 q 416 -225 401 -261 q 443 -150 431 -189 q 459 -83 454 -112 l 580 -83 z "},"ķ":{"ha":812,"x_min":127,"x_max":799,"o":"m 244 1031 l 244 492 q 242 436 244 471 q 239 374 240 400 l 246 374 q 274 406 256 385 q 314 447 293 426 q 349 481 335 468 l 633 727 l 774 727 l 422 416 l 799 0 l 653 0 l 342 339 l 244 267 l 244 0 l 127 0 l 127 1031 l 244 1031 m 497 -83 l 497 -95 q 472 -156 492 -119 q 425 -232 452 -193 q 370 -300 398 -271 l 306 -300 l 306 -283 q 333 -225 319 -261 q 360 -150 348 -189 q 376 -83 372 -112 l 497 -83 z "},"ĸ":{"ha":812,"x_min":127,"x_max":799,"o":"m 625 727 l 772 727 l 446 406 l 799 0 l 654 0 l 361 328 l 255 255 l 255 0 l 127 0 l 127 727 l 255 727 l 255 538 q 252 433 255 485 q 245 354 249 382 l 248 354 q 279 390 263 372 q 307 423 294 408 l 625 727 z "},"Ĺ":{"ha":741,"x_min":126,"x_max":703,"o":"m 703 0 l 144 0 l 144 968 l 267 968 l 267 109 l 703 109 l 703 0 m 427 1280 l 427 1267 q 371 1203 409 1242 q 288 1126 333 1164 q 205 1063 243 1088 l 126 1063 l 126 1080 q 179 1140 151 1105 q 233 1213 207 1175 q 277 1280 260 1250 l 427 1280 z "},"ĺ":{"ha":401,"x_min":123,"x_max":424,"o":"m 260 1031 l 260 0 l 141 0 l 141 1031 l 260 1031 m 424 1343 l 424 1329 q 368 1265 406 1304 q 286 1188 330 1227 q 202 1126 241 1150 l 123 1126 l 123 1142 q 176 1202 148 1167 q 231 1275 204 1238 q 275 1343 257 1312 l 424 1343 z "},"Ļ":{"ha":741,"x_min":144,"x_max":703,"o":"m 703 0 l 144 0 l 144 968 l 267 968 l 267 109 l 703 109 l 703 0 m 523 -83 l 523 -95 q 498 -156 517 -119 q 451 -232 478 -193 q 395 -300 424 -271 l 332 -300 l 332 -283 q 359 -225 345 -261 q 386 -150 374 -189 q 402 -83 397 -112 l 523 -83 z "},"ļ":{"ha":401,"x_min":104,"x_max":296,"o":"m 260 1031 l 260 0 l 141 0 l 141 1031 l 260 1031 m 296 -83 l 296 -95 q 271 -156 290 -119 q 224 -232 251 -193 q 168 -300 197 -271 l 104 -300 l 104 -283 q 132 -225 117 -261 q 158 -150 146 -189 q 175 -83 170 -112 l 296 -83 z "},"Ľ":{"ha":741,"x_min":144,"x_max":703,"o":"m 703 0 l 144 0 l 144 968 l 267 968 l 267 109 l 703 109 l 703 0 m 703 968 l 703 956 q 681 895 696 932 q 644 820 665 859 q 603 751 624 781 l 538 751 l 538 768 q 565 866 551 806 q 584 968 579 925 l 703 968 z "},"ľ":{"ha":519,"x_min":127,"x_max":519,"o":"m 246 1031 l 246 0 l 127 0 l 127 1031 l 246 1031 m 519 1031 l 519 1019 q 495 958 515 994 q 447 882 475 921 q 393 814 420 844 l 332 814 l 332 830 q 358 892 345 856 q 380 965 370 928 q 395 1031 391 1002 l 519 1031 z "},"Ŀ":{"ha":741,"x_min":144,"x_max":703,"o":"m 703 0 l 144 0 l 144 968 l 267 968 l 267 109 l 703 109 l 703 0 m 541 560 q 590 542 569 560 q 610 484 610 524 q 590 427 610 446 q 541 408 569 408 q 491 427 511 408 q 470 484 470 446 q 491 542 470 524 q 541 560 511 560 z "},"ŀ":{"ha":536,"x_min":182,"x_max":542,"o":"m 302 1031 l 302 0 l 182 0 l 182 1031 l 302 1031 m 467 590 q 519 572 496 590 q 542 514 542 554 q 519 457 542 475 q 467 438 496 438 q 412 457 435 438 q 390 514 390 475 q 412 572 390 554 q 467 590 435 590 z "},"Ł":{"ha":762,"x_min":19,"x_max":724,"o":"m 724 0 l 140 0 l 140 335 l 67 297 l 19 378 l 140 446 l 140 968 l 262 968 l 262 518 l 467 628 l 516 543 l 262 407 l 262 109 l 724 109 l 724 0 z "},"ł":{"ha":456,"x_min":-3,"x_max":459,"o":"m 269 0 l 149 0 l 149 387 l 51 343 l -3 423 l 149 499 l 149 1031 l 269 1031 l 269 576 l 404 636 l 459 556 l 269 464 l 269 0 z "},"Ń":{"ha":1026,"x_min":144,"x_max":882,"o":"m 882 968 l 882 0 l 738 0 l 252 804 l 246 804 q 253 686 250 757 q 257 541 257 616 l 257 0 l 144 0 l 144 968 l 288 968 l 772 167 l 777 167 q 774 232 777 189 q 770 327 772 275 q 768 422 768 378 l 768 968 l 882 968 m 737 1280 l 737 1267 q 682 1203 720 1242 q 599 1126 644 1164 q 515 1063 554 1088 l 437 1063 l 437 1080 q 489 1140 461 1105 q 544 1213 517 1175 q 588 1280 570 1250 l 737 1280 z "},"ń":{"ha":862,"x_min":127,"x_max":741,"o":"m 477 741 q 675 677 608 741 q 741 473 741 614 l 741 0 l 624 0 l 624 465 q 460 640 624 640 q 293 572 339 640 q 246 377 246 505 l 246 0 l 127 0 l 127 727 l 224 727 l 241 628 l 248 628 q 346 713 284 685 q 477 741 408 741 m 655 1039 l 655 1025 q 600 962 637 1000 q 517 885 562 923 q 433 822 472 846 l 355 822 l 355 838 q 407 899 379 863 q 462 971 435 934 q 506 1039 488 1008 l 655 1039 z "},"Ņ":{"ha":1026,"x_min":144,"x_max":882,"o":"m 882 968 l 882 0 l 738 0 l 252 804 l 246 804 q 253 686 250 757 q 257 541 257 616 l 257 0 l 144 0 l 144 968 l 288 968 l 772 167 l 777 167 q 774 232 777 189 q 770 327 772 275 q 768 422 768 378 l 768 968 l 882 968 m 609 -83 l 609 -95 q 584 -156 604 -119 q 537 -232 564 -193 q 481 -300 510 -271 l 418 -300 l 418 -283 q 445 -225 431 -261 q 472 -150 460 -189 q 488 -83 484 -112 l 609 -83 z "},"ņ":{"ha":862,"x_min":127,"x_max":741,"o":"m 477 741 q 675 677 608 741 q 741 473 741 614 l 741 0 l 624 0 l 624 465 q 460 640 624 640 q 293 572 339 640 q 246 377 246 505 l 246 0 l 127 0 l 127 727 l 224 727 l 241 628 l 248 628 q 346 713 284 685 q 477 741 408 741 m 527 -83 l 527 -95 q 502 -156 522 -119 q 455 -232 482 -193 q 399 -300 428 -271 l 336 -300 l 336 -283 q 363 -225 349 -261 q 390 -150 378 -189 q 406 -83 401 -112 l 527 -83 z "},"Ň":{"ha":1026,"x_min":144,"x_max":882,"o":"m 882 968 l 882 0 l 738 0 l 252 804 l 246 804 q 253 686 250 757 q 257 541 257 616 l 257 0 l 144 0 l 144 968 l 288 968 l 772 167 l 777 167 q 774 232 777 189 q 770 327 772 275 q 768 422 768 378 l 768 968 l 882 968 m 572 1063 l 450 1063 q 396 1131 430 1094 q 325 1202 362 1167 q 260 1263 288 1237 l 260 1280 l 343 1280 q 428 1225 383 1257 q 510 1156 472 1192 q 595 1225 552 1192 q 680 1280 639 1257 l 765 1280 l 765 1263 q 697 1202 736 1237 q 625 1131 659 1167 q 572 1063 591 1094 z "},"ň":{"ha":862,"x_min":127,"x_max":741,"o":"m 477 741 q 675 677 608 741 q 741 473 741 614 l 741 0 l 624 0 l 624 465 q 460 640 624 640 q 293 572 339 640 q 246 377 246 505 l 246 0 l 127 0 l 127 727 l 224 727 l 241 628 l 248 628 q 346 713 284 685 q 477 741 408 741 m 490 822 l 368 822 q 314 889 348 852 q 243 961 280 926 q 178 1021 206 996 l 178 1039 l 261 1039 q 346 983 301 1016 q 428 914 390 951 q 513 983 470 951 q 597 1039 557 1016 l 683 1039 l 683 1021 q 615 961 654 996 q 543 889 577 926 q 490 822 509 852 z "},"ŉ":{"ha":962,"x_min":1,"x_max":842,"o":"m 200 968 l 210 954 q 158 795 191 882 q 90 636 124 709 l 1 636 q 28 746 15 687 q 53 863 42 805 q 71 968 64 921 l 200 968 m 571 741 q 773 677 705 741 q 842 473 842 614 l 842 0 l 724 0 l 724 465 q 555 640 724 640 q 381 572 429 640 q 334 377 334 505 l 334 0 l 214 0 l 214 727 l 311 727 l 328 628 l 336 628 q 436 713 372 685 q 571 741 500 741 z "},"Ŋ":{"ha":1026,"x_min":144,"x_max":882,"o":"m 635 -258 q 578 -253 603 -258 q 536 -240 553 -248 l 536 -137 q 581 -147 556 -143 q 634 -151 606 -151 q 699 -137 668 -151 q 749 -92 729 -124 q 769 0 768 -59 l 252 804 l 246 804 q 251 731 248 778 q 255 629 254 684 q 257 525 257 574 l 257 0 l 144 0 l 144 968 l 286 968 l 772 193 l 778 193 q 771 313 774 237 q 768 464 768 389 l 768 968 l 882 968 l 882 8 q 815 -193 882 -128 q 635 -258 749 -258 z "},"ŋ":{"ha":862,"x_min":127,"x_max":743,"o":"m 547 -326 q 492 -321 515 -326 q 451 -309 469 -316 l 451 -213 q 489 -223 469 -219 q 532 -227 508 -227 q 597 -202 571 -227 q 624 -113 624 -178 l 624 467 q 462 640 624 640 q 293 573 340 640 q 246 378 246 506 l 246 0 l 127 0 l 127 727 l 224 727 l 243 628 l 250 628 q 346 713 286 685 q 476 741 406 741 q 676 677 610 741 q 743 475 743 614 l 743 -109 q 695 -268 743 -210 q 547 -326 648 -326 z "},"Ō":{"ha":1079,"x_min":91,"x_max":988,"o":"m 988 486 q 937 223 988 336 q 787 49 886 111 q 541 -14 687 -14 q 289 49 389 -14 q 140 224 189 112 q 91 487 91 337 q 140 747 91 635 q 289 921 189 859 q 542 983 389 983 q 787 922 688 983 q 937 748 886 860 q 988 486 988 636 m 220 486 q 298 197 220 302 q 541 92 376 92 q 783 197 707 92 q 859 486 859 302 q 783 772 859 669 q 542 876 707 876 q 298 772 376 876 q 220 486 220 669 m 317 1160 l 761 1160 l 761 1063 l 317 1063 l 317 1160 z "},"ō":{"ha":853,"x_min":82,"x_max":773,"o":"m 773 365 q 679 85 773 184 q 425 -14 585 -14 q 249 31 326 -14 q 126 160 171 75 q 82 365 82 244 q 175 643 82 545 q 429 741 269 741 q 608 696 530 741 q 729 569 686 652 q 773 365 773 485 m 206 365 q 259 161 206 236 q 428 85 313 85 q 596 161 543 85 q 650 365 650 236 q 596 567 650 494 q 427 640 542 640 q 259 567 311 640 q 206 365 206 494 m 205 918 l 648 918 l 648 822 l 205 822 l 205 918 z "},"Ŏ":{"ha":1079,"x_min":91,"x_max":988,"o":"m 988 486 q 937 223 988 336 q 787 49 886 111 q 541 -14 687 -14 q 289 49 389 -14 q 140 224 189 112 q 91 487 91 337 q 140 747 91 635 q 289 921 189 859 q 542 983 389 983 q 787 922 688 983 q 937 748 886 860 q 988 486 988 636 m 220 486 q 298 197 220 302 q 541 92 376 92 q 783 197 707 92 q 859 486 859 302 q 783 772 859 669 q 542 876 707 876 q 298 772 376 876 q 220 486 220 669 m 696 1245 l 772 1245 q 704 1114 764 1164 q 536 1063 644 1063 q 369 1113 425 1063 q 307 1245 313 1162 l 383 1245 q 429 1175 389 1190 q 539 1160 469 1160 q 644 1176 600 1160 q 696 1245 688 1192 z "},"ŏ":{"ha":853,"x_min":82,"x_max":773,"o":"m 773 365 q 679 85 773 184 q 425 -14 585 -14 q 249 31 326 -14 q 126 160 171 75 q 82 365 82 244 q 175 643 82 545 q 429 741 269 741 q 608 696 530 741 q 729 569 686 652 q 773 365 773 485 m 206 365 q 259 161 206 236 q 428 85 313 85 q 596 161 543 85 q 650 365 650 236 q 596 567 650 494 q 427 640 542 640 q 259 567 311 640 q 206 365 206 494 m 583 1004 l 659 1004 q 591 872 652 922 q 423 822 531 822 q 257 871 313 822 q 195 1004 201 920 l 271 1004 q 316 933 277 948 q 427 918 356 918 q 532 935 488 918 q 583 1004 576 951 z "},"Ő":{"ha":1079,"x_min":91,"x_max":988,"o":"m 988 486 q 937 223 988 336 q 787 49 886 111 q 541 -14 687 -14 q 289 49 389 -14 q 140 224 189 112 q 91 487 91 337 q 140 747 91 635 q 289 921 189 859 q 542 983 389 983 q 787 922 688 983 q 937 748 886 860 q 988 486 988 636 m 220 486 q 298 197 220 302 q 541 92 376 92 q 783 197 707 92 q 859 486 859 302 q 783 772 859 669 q 542 876 707 876 q 298 772 376 876 q 220 486 220 669 m 808 1280 l 808 1267 q 758 1204 791 1243 q 684 1127 724 1166 q 608 1063 644 1088 l 539 1063 l 539 1080 q 611 1177 572 1118 q 673 1280 649 1235 l 808 1280 m 541 1280 l 541 1267 q 491 1204 525 1243 q 416 1127 456 1166 q 341 1063 376 1088 l 271 1063 l 271 1080 q 342 1177 304 1118 q 406 1280 380 1235 l 541 1280 z "},"ő":{"ha":853,"x_min":82,"x_max":773,"o":"m 773 365 q 679 85 773 184 q 425 -14 585 -14 q 249 31 326 -14 q 126 160 171 75 q 82 365 82 244 q 175 643 82 545 q 429 741 269 741 q 608 696 530 741 q 729 569 686 652 q 773 365 773 485 m 206 365 q 259 161 206 236 q 428 85 313 85 q 596 161 543 85 q 650 365 650 236 q 596 567 650 494 q 427 640 542 640 q 259 567 311 640 q 206 365 206 494 m 695 1039 l 695 1025 q 645 963 679 1002 q 571 885 611 924 q 496 822 531 846 l 427 822 l 427 838 q 498 935 460 877 q 561 1039 536 994 l 695 1039 m 429 1039 l 429 1025 q 378 963 412 1002 q 304 885 344 924 q 229 822 264 846 l 159 822 l 159 838 q 230 935 192 877 q 293 1039 268 994 l 429 1039 z "},"Œ":{"ha":1389,"x_min":91,"x_max":1299,"o":"m 581 983 q 653 980 618 983 q 722 968 688 976 l 1299 968 l 1299 861 l 861 861 l 861 559 l 1271 559 l 1271 453 l 861 453 l 861 107 l 1299 107 l 1299 0 l 732 0 q 662 -10 698 -6 q 589 -14 627 -14 q 310 49 420 -14 q 145 224 199 111 q 91 487 91 336 q 145 748 91 637 q 307 922 199 860 q 581 983 416 983 m 593 876 q 310 772 401 876 q 218 486 218 669 q 309 197 218 302 q 591 92 400 92 q 740 115 676 92 l 740 854 q 593 876 677 876 z "},"œ":{"ha":1289,"x_min":80,"x_max":1212,"o":"m 920 739 q 1134 650 1056 739 q 1212 412 1212 561 l 1212 340 l 733 340 q 792 149 736 210 q 951 88 847 88 q 1074 101 1021 88 q 1180 138 1126 114 l 1180 34 q 1073 -2 1125 9 q 949 -14 1021 -14 q 787 24 857 -14 q 675 137 717 62 q 565 25 633 63 q 407 -14 496 -14 q 239 31 313 -14 q 122 159 165 75 q 80 365 80 243 q 169 642 80 544 q 410 739 257 739 q 563 701 495 739 q 671 590 630 663 q 773 701 710 663 q 920 739 837 739 m 918 642 q 791 589 838 642 q 736 435 743 536 l 1086 435 q 1046 585 1086 529 q 918 642 1006 642 m 406 640 q 252 571 300 640 q 205 365 205 501 q 253 157 205 228 q 408 85 302 85 q 562 155 513 85 q 610 359 610 224 q 561 571 610 501 q 406 640 511 640 z "},"Ŕ":{"ha":878,"x_min":144,"x_max":856,"o":"m 144 968 l 420 968 q 694 900 606 968 q 783 693 783 831 q 754 565 783 616 q 678 482 724 513 q 582 434 632 451 l 856 0 l 713 0 l 470 400 l 267 400 l 267 0 l 144 0 l 144 968 m 412 863 l 267 863 l 267 503 l 420 503 q 600 550 543 503 q 657 688 657 596 q 597 823 657 783 q 412 863 537 863 m 667 1280 l 667 1267 q 611 1203 649 1242 q 528 1126 573 1164 q 445 1063 484 1088 l 366 1063 l 366 1080 q 419 1140 391 1105 q 473 1213 447 1175 q 517 1280 500 1250 l 667 1280 z "},"ŕ":{"ha":568,"x_min":127,"x_max":558,"o":"m 463 741 q 505 739 482 741 q 546 732 528 736 l 532 623 q 493 629 515 627 q 454 632 472 632 q 351 602 399 632 q 275 516 304 571 q 246 388 246 461 l 246 0 l 127 0 l 127 727 l 224 727 l 238 594 l 243 594 q 332 697 277 654 q 463 741 387 741 m 558 1039 l 558 1025 q 503 962 541 1000 q 420 885 465 923 q 336 822 375 846 l 258 822 l 258 838 q 310 899 282 863 q 365 971 338 934 q 409 1039 391 1008 l 558 1039 z "},"Ŗ":{"ha":878,"x_min":144,"x_max":856,"o":"m 144 968 l 420 968 q 694 900 606 968 q 783 693 783 831 q 754 565 783 616 q 678 482 724 513 q 582 434 632 451 l 856 0 l 713 0 l 470 400 l 267 400 l 267 0 l 144 0 l 144 968 m 412 863 l 267 863 l 267 503 l 420 503 q 600 550 543 503 q 657 688 657 596 q 597 823 657 783 q 412 863 537 863 m 563 -83 l 563 -95 q 538 -156 557 -119 q 491 -232 518 -193 q 435 -300 464 -271 l 372 -300 l 372 -283 q 399 -225 385 -261 q 426 -150 414 -189 q 442 -83 437 -112 l 563 -83 z "},"ŗ":{"ha":568,"x_min":87,"x_max":546,"o":"m 463 741 q 505 739 482 741 q 546 732 528 736 l 532 623 q 493 629 515 627 q 454 632 472 632 q 351 602 399 632 q 275 516 304 571 q 246 388 246 461 l 246 0 l 127 0 l 127 727 l 224 727 l 238 594 l 243 594 q 332 697 277 654 q 463 741 387 741 m 279 -83 l 279 -95 q 254 -156 273 -119 q 207 -232 234 -193 q 151 -300 180 -271 l 87 -300 l 87 -283 q 115 -225 100 -261 q 141 -150 130 -189 q 158 -83 153 -112 l 279 -83 z "},"Ř":{"ha":878,"x_min":144,"x_max":856,"o":"m 144 968 l 420 968 q 694 900 606 968 q 783 693 783 831 q 754 565 783 616 q 678 482 724 513 q 582 434 632 451 l 856 0 l 713 0 l 470 400 l 267 400 l 267 0 l 144 0 l 144 968 m 412 863 l 267 863 l 267 503 l 420 503 q 600 550 543 503 q 657 688 657 596 q 597 823 657 783 q 412 863 537 863 m 502 1063 l 379 1063 q 326 1131 359 1094 q 255 1202 292 1167 q 190 1263 218 1237 l 190 1280 l 273 1280 q 357 1225 313 1257 q 439 1156 401 1192 q 525 1225 481 1192 q 609 1280 568 1257 l 694 1280 l 694 1263 q 627 1202 665 1237 q 554 1131 589 1167 q 502 1063 520 1094 z "},"ř":{"ha":568,"x_min":81,"x_max":586,"o":"m 463 741 q 505 739 482 741 q 546 732 528 736 l 532 623 q 493 629 515 627 q 454 632 472 632 q 351 602 399 632 q 275 516 304 571 q 246 388 246 461 l 246 0 l 127 0 l 127 727 l 224 727 l 238 594 l 243 594 q 332 697 277 654 q 463 741 387 741 m 393 822 l 271 822 q 217 889 251 852 q 146 961 183 926 q 81 1021 109 996 l 81 1039 l 164 1039 q 249 983 204 1016 q 331 914 293 951 q 416 983 373 951 q 500 1039 460 1016 l 586 1039 l 586 1021 q 518 961 557 996 q 446 889 480 926 q 393 822 412 852 z "},"Ś":{"ha":748,"x_min":76,"x_max":678,"o":"m 678 259 q 586 58 678 130 q 338 -14 494 -14 q 190 -2 258 -14 q 76 33 122 10 l 76 149 q 196 110 125 128 q 343 92 267 92 q 503 134 448 92 q 557 248 557 176 q 536 328 557 296 q 468 388 516 361 q 333 448 419 416 q 150 557 212 492 q 88 735 88 623 q 127 867 88 812 q 234 952 165 922 q 393 982 302 982 q 537 967 471 982 q 656 928 602 952 l 618 823 q 510 860 568 845 q 390 875 452 875 q 257 836 302 875 q 212 734 212 797 q 231 652 212 685 q 296 594 251 620 q 419 538 342 568 q 561 471 503 507 q 648 385 618 435 q 678 259 678 335 m 612 1280 l 612 1267 q 557 1203 595 1242 q 474 1126 519 1164 q 391 1063 429 1088 l 312 1063 l 312 1080 q 365 1140 336 1105 q 419 1213 393 1175 q 463 1280 446 1250 l 612 1280 z "},"ś":{"ha":708,"x_min":76,"x_max":641,"o":"m 641 201 q 554 41 641 95 q 325 -14 468 -14 q 181 -2 241 -14 q 78 33 122 10 l 78 141 q 190 101 122 120 q 329 83 257 83 q 479 112 432 83 q 526 190 526 141 q 509 239 526 217 q 449 282 492 260 q 327 331 406 304 q 193 385 249 358 q 106 450 136 412 q 76 548 76 488 q 158 691 76 641 q 373 741 240 741 q 507 727 445 741 q 624 692 570 714 l 582 597 q 478 630 532 616 q 363 643 423 643 q 234 619 279 643 q 190 555 190 595 q 210 503 190 524 q 276 463 230 482 q 399 416 321 443 q 530 363 476 391 q 612 297 584 336 q 641 201 641 259 m 579 1039 l 579 1025 q 524 962 562 1000 q 441 885 486 923 q 357 822 396 846 l 279 822 l 279 838 q 331 899 303 863 q 386 971 359 934 q 430 1039 412 1008 l 579 1039 z "},"Ŝ":{"ha":748,"x_min":76,"x_max":678,"o":"m 678 259 q 586 58 678 130 q 338 -14 494 -14 q 190 -2 258 -14 q 76 33 122 10 l 76 149 q 196 110 125 128 q 343 92 267 92 q 503 134 448 92 q 557 248 557 176 q 536 328 557 296 q 468 388 516 361 q 333 448 419 416 q 150 557 212 492 q 88 735 88 623 q 127 867 88 812 q 234 952 165 922 q 393 982 302 982 q 537 967 471 982 q 656 928 602 952 l 618 823 q 510 860 568 845 q 390 875 452 875 q 257 836 302 875 q 212 734 212 797 q 231 652 212 685 q 296 594 251 620 q 419 538 342 568 q 561 471 503 507 q 648 385 618 435 q 678 259 678 335 m 326 1280 l 448 1280 q 501 1213 467 1250 q 573 1140 535 1175 q 641 1078 612 1104 l 641 1063 l 555 1063 q 471 1117 515 1085 q 385 1185 427 1149 q 301 1117 344 1149 q 218 1063 258 1086 l 136 1063 l 136 1078 q 201 1140 165 1105 q 272 1213 238 1176 q 326 1280 306 1250 z "},"ŝ":{"ha":708,"x_min":76,"x_max":641,"o":"m 641 201 q 554 41 641 95 q 325 -14 468 -14 q 181 -2 241 -14 q 78 33 122 10 l 78 141 q 190 101 122 120 q 329 83 257 83 q 479 112 432 83 q 526 190 526 141 q 509 239 526 217 q 449 282 492 260 q 327 331 406 304 q 193 385 249 358 q 106 450 136 412 q 76 548 76 488 q 158 691 76 641 q 373 741 240 741 q 507 727 445 741 q 624 692 570 714 l 582 597 q 478 630 532 616 q 363 643 423 643 q 234 619 279 643 q 190 555 190 595 q 210 503 190 524 q 276 463 230 482 q 399 416 321 443 q 530 363 476 391 q 612 297 584 336 q 641 201 641 259 m 292 1039 l 415 1039 q 468 971 433 1008 q 540 898 502 934 q 608 837 578 863 l 608 822 l 522 822 q 438 876 481 844 q 352 944 394 907 q 268 876 311 907 q 184 822 225 844 l 102 822 l 102 837 q 168 899 132 863 q 239 971 205 935 q 292 1039 273 1008 z "},"Ş":{"ha":748,"x_min":76,"x_max":678,"o":"m 678 259 q 586 58 678 130 q 338 -14 494 -14 q 190 -2 258 -14 q 76 33 122 10 l 76 149 q 196 110 125 128 q 343 92 267 92 q 503 134 448 92 q 557 248 557 176 q 536 328 557 296 q 468 388 516 361 q 333 448 419 416 q 150 557 212 492 q 88 735 88 623 q 127 867 88 812 q 234 952 165 922 q 393 982 302 982 q 537 967 471 982 q 656 928 602 952 l 618 823 q 510 860 568 845 q 390 875 452 875 q 257 836 302 875 q 212 734 212 797 q 231 652 212 685 q 296 594 251 620 q 419 538 342 568 q 561 471 503 507 q 648 385 618 435 q 678 259 678 335 m 500 -189 q 443 -290 500 -254 q 273 -326 387 -326 q 204 -319 229 -326 l 204 -244 q 240 -249 217 -247 q 283 -251 262 -251 q 371 -238 341 -251 q 401 -191 401 -224 q 360 -139 401 -155 q 260 -117 318 -123 l 327 0 l 410 0 l 368 -72 q 462 -110 425 -83 q 500 -189 500 -136 z "},"ş":{"ha":708,"x_min":76,"x_max":641,"o":"m 641 201 q 554 41 641 95 q 325 -14 468 -14 q 181 -2 241 -14 q 78 33 122 10 l 78 141 q 190 101 122 120 q 329 83 257 83 q 479 112 432 83 q 526 190 526 141 q 509 239 526 217 q 449 282 492 260 q 327 331 406 304 q 193 385 249 358 q 106 450 136 412 q 76 548 76 488 q 158 691 76 641 q 373 741 240 741 q 507 727 445 741 q 624 692 570 714 l 582 597 q 478 630 532 616 q 363 643 423 643 q 234 619 279 643 q 190 555 190 595 q 210 503 190 524 q 276 463 230 482 q 399 416 321 443 q 530 363 476 391 q 612 297 584 336 q 641 201 641 259 m 503 -189 q 447 -290 503 -254 q 276 -326 390 -326 q 208 -319 233 -326 l 208 -244 q 243 -249 220 -247 q 287 -251 266 -251 q 375 -238 345 -251 q 405 -191 405 -224 q 363 -139 405 -155 q 263 -117 321 -123 l 330 0 l 414 0 l 372 -72 q 466 -110 428 -83 q 503 -189 503 -136 z "},"Š":{"ha":748,"x_min":76,"x_max":678,"o":"m 678 259 q 586 58 678 130 q 338 -14 494 -14 q 190 -2 258 -14 q 76 33 122 10 l 76 149 q 196 110 125 128 q 343 92 267 92 q 503 134 448 92 q 557 248 557 176 q 536 328 557 296 q 468 388 516 361 q 333 448 419 416 q 150 557 212 492 q 88 735 88 623 q 127 867 88 812 q 234 952 165 922 q 393 982 302 982 q 537 967 471 982 q 656 928 602 952 l 618 823 q 510 860 568 845 q 390 875 452 875 q 257 836 302 875 q 212 734 212 797 q 231 652 212 685 q 296 594 251 620 q 419 538 342 568 q 561 471 503 507 q 648 385 618 435 q 678 259 678 335 m 448 1063 l 325 1063 q 271 1131 305 1094 q 200 1202 237 1167 q 136 1263 163 1237 l 136 1280 l 218 1280 q 303 1225 258 1257 q 385 1156 347 1192 q 471 1225 427 1192 q 555 1280 514 1257 l 640 1280 l 640 1263 q 573 1202 611 1237 q 500 1131 534 1167 q 448 1063 466 1094 z "},"š":{"ha":708,"x_min":76,"x_max":641,"o":"m 641 201 q 554 41 641 95 q 325 -14 468 -14 q 181 -2 241 -14 q 78 33 122 10 l 78 141 q 190 101 122 120 q 329 83 257 83 q 479 112 432 83 q 526 190 526 141 q 509 239 526 217 q 449 282 492 260 q 327 331 406 304 q 193 385 249 358 q 106 450 136 412 q 76 548 76 488 q 158 691 76 641 q 373 741 240 741 q 507 727 445 741 q 624 692 570 714 l 582 597 q 478 630 532 616 q 363 643 423 643 q 234 619 279 643 q 190 555 190 595 q 210 503 190 524 q 276 463 230 482 q 399 416 321 443 q 530 363 476 391 q 612 297 584 336 q 641 201 641 259 m 414 822 l 292 822 q 238 889 272 852 q 167 961 204 926 q 102 1021 130 996 l 102 1039 l 185 1039 q 270 983 225 1016 q 352 914 314 951 q 437 983 394 951 q 522 1039 481 1016 l 607 1039 l 607 1021 q 539 961 578 996 q 467 889 501 926 q 414 822 433 852 z "},"Ţ":{"ha":878,"x_min":15,"x_max":862,"o":"m 597 -189 q 538 -290 597 -254 q 359 -326 479 -326 q 292 -319 317 -326 l 292 -244 q 328 -249 304 -247 q 373 -251 351 -251 q 466 -238 433 -251 q 498 -191 498 -224 q 454 -139 498 -155 q 349 -117 410 -123 l 420 0 l 378 0 l 378 861 l 15 861 l 15 968 l 862 968 l 862 861 l 501 861 l 501 0 l 505 0 l 460 -72 q 557 -110 518 -83 q 597 -189 597 -136 z "},"ţ":{"ha":519,"x_min":24,"x_max":487,"o":"m 380 84 q 439 89 408 84 q 487 99 470 93 l 487 8 q 431 -7 468 -1 q 361 -14 394 -14 l 360 -14 l 328 -72 q 418 -110 381 -83 q 454 -189 454 -136 q 400 -290 454 -254 q 238 -326 346 -326 q 170 -319 195 -326 l 170 -244 q 204 -249 182 -247 q 246 -251 226 -251 q 329 -238 300 -251 q 357 -191 357 -224 q 318 -139 357 -155 q 222 -117 279 -123 l 283 -5 q 178 60 220 10 q 136 212 136 109 l 136 635 l 24 635 l 24 692 l 136 739 l 185 894 l 255 894 l 255 727 l 481 727 l 481 635 l 255 635 l 255 214 q 290 116 255 149 q 380 84 326 84 z "},"Ť":{"ha":878,"x_min":15,"x_max":862,"o":"m 501 861 l 501 0 l 378 0 l 378 861 l 15 861 l 15 968 l 862 968 l 862 861 l 501 861 m 498 1063 l 376 1063 q 322 1131 356 1094 q 251 1202 288 1167 q 186 1263 214 1237 l 186 1280 l 269 1280 q 354 1225 309 1257 q 436 1156 398 1192 q 522 1225 478 1192 q 606 1280 565 1257 l 691 1280 l 691 1263 q 624 1202 662 1237 q 551 1131 585 1167 q 498 1063 517 1094 z "},"ť":{"ha":524,"x_min":7,"x_max":554,"o":"m 554 1031 l 554 1019 q 534 958 547 994 q 504 882 521 921 q 469 814 487 844 l 402 814 l 402 830 q 424 928 413 869 q 439 1031 435 987 l 554 1031 m 302 84 q 351 89 326 84 q 391 99 375 93 l 391 8 q 340 -7 372 -1 q 276 -14 309 -14 q 184 6 227 -14 q 117 75 142 26 q 92 212 92 123 l 92 635 l 7 635 l 7 692 l 96 739 l 139 894 l 212 894 l 212 727 l 386 727 l 386 635 l 212 635 l 212 214 q 237 116 212 149 q 302 84 262 84 z "},"Ŧ":{"ha":878,"x_min":15,"x_max":862,"o":"m 499 0 l 376 0 l 376 441 l 131 441 l 131 541 l 376 541 l 376 860 l 15 860 l 15 968 l 862 968 l 862 860 l 499 860 l 499 541 l 743 541 l 743 441 l 499 441 l 499 0 z "},"ŧ":{"ha":519,"x_min":24,"x_max":487,"o":"m 380 84 q 439 89 408 84 q 487 99 470 93 l 487 8 q 431 -7 468 -1 q 361 -14 394 -14 q 250 6 302 -14 q 167 75 199 26 q 136 212 136 123 l 136 380 l 35 380 l 35 469 l 136 469 l 136 635 l 24 635 l 24 692 l 136 739 l 185 894 l 255 894 l 255 727 l 481 727 l 481 635 l 255 635 l 255 469 l 469 469 l 469 380 l 255 380 l 255 214 q 290 116 255 149 q 380 84 326 84 z "},"Ũ":{"ha":962,"x_min":134,"x_max":827,"o":"m 827 968 l 827 342 q 789 161 827 241 q 673 34 751 81 q 477 -14 596 -14 q 222 85 309 -14 q 134 345 134 183 l 134 968 l 256 968 l 256 340 q 313 157 256 222 q 483 92 370 92 q 653 162 600 92 q 706 342 706 232 l 706 968 l 827 968 m 281 1063 l 208 1063 q 260 1191 218 1144 q 373 1237 302 1237 q 458 1218 418 1237 q 534 1179 498 1198 q 601 1160 570 1160 q 657 1179 638 1160 q 687 1238 675 1199 l 757 1238 q 707 1112 748 1159 q 594 1065 665 1065 q 512 1084 552 1065 q 436 1123 472 1103 q 366 1142 399 1142 q 310 1123 328 1142 q 281 1063 291 1103 z "},"ũ":{"ha":862,"x_min":117,"x_max":735,"o":"m 616 727 l 735 727 l 735 0 l 637 0 l 620 96 l 614 96 q 516 13 579 39 q 383 -14 454 -14 q 184 50 252 -14 q 117 251 117 113 l 117 727 l 239 727 l 239 259 q 401 85 239 85 q 569 154 522 85 q 616 349 616 222 l 616 727 m 229 822 l 157 822 q 209 949 166 903 q 321 996 251 996 q 407 976 367 996 q 483 938 447 957 q 549 918 518 918 q 605 938 587 918 q 635 997 624 958 l 705 997 q 655 870 696 918 q 543 823 614 823 q 460 843 500 823 q 384 881 420 862 q 315 901 348 901 q 258 881 277 901 q 229 822 239 862 z "},"Ū":{"ha":962,"x_min":134,"x_max":827,"o":"m 827 968 l 827 342 q 789 161 827 241 q 673 34 751 81 q 477 -14 596 -14 q 222 85 309 -14 q 134 345 134 183 l 134 968 l 256 968 l 256 340 q 313 157 256 222 q 483 92 370 92 q 653 162 600 92 q 706 342 706 232 l 706 968 l 827 968 m 259 1160 l 703 1160 l 703 1063 l 259 1063 l 259 1160 z "},"ū":{"ha":862,"x_min":117,"x_max":735,"o":"m 616 727 l 735 727 l 735 0 l 637 0 l 620 96 l 614 96 q 516 13 579 39 q 383 -14 454 -14 q 184 50 252 -14 q 117 251 117 113 l 117 727 l 239 727 l 239 259 q 401 85 239 85 q 569 154 522 85 q 616 349 616 222 l 616 727 m 208 918 l 651 918 l 651 822 l 208 822 l 208 918 z "},"Ŭ":{"ha":962,"x_min":134,"x_max":827,"o":"m 827 968 l 827 342 q 789 161 827 241 q 673 34 751 81 q 477 -14 596 -14 q 222 85 309 -14 q 134 345 134 183 l 134 968 l 256 968 l 256 340 q 313 157 256 222 q 483 92 370 92 q 653 162 600 92 q 706 342 706 232 l 706 968 l 827 968 m 637 1245 l 713 1245 q 646 1114 706 1164 q 477 1063 585 1063 q 311 1113 367 1063 q 249 1245 255 1162 l 325 1245 q 371 1175 331 1190 q 481 1160 410 1160 q 586 1176 542 1160 q 637 1245 630 1192 z "},"ŭ":{"ha":862,"x_min":117,"x_max":735,"o":"m 616 727 l 735 727 l 735 0 l 637 0 l 620 96 l 614 96 q 516 13 579 39 q 383 -14 454 -14 q 184 50 252 -14 q 117 251 117 113 l 117 727 l 239 727 l 239 259 q 401 85 239 85 q 569 154 522 85 q 616 349 616 222 l 616 727 m 586 1004 l 662 1004 q 594 872 654 922 q 426 822 534 822 q 259 871 315 822 q 197 1004 203 920 l 273 1004 q 319 933 279 948 q 429 918 359 918 q 534 935 490 918 q 586 1004 578 951 z "},"Ů":{"ha":962,"x_min":134,"x_max":827,"o":"m 827 968 l 827 342 q 789 161 827 241 q 673 34 751 81 q 477 -14 596 -14 q 222 85 309 -14 q 134 345 134 183 l 134 968 l 256 968 l 256 340 q 313 157 256 222 q 483 92 370 92 q 653 162 600 92 q 706 342 706 232 l 706 968 l 827 968 m 481 1063 q 363 1101 408 1063 q 317 1207 317 1139 q 363 1312 317 1274 q 481 1350 408 1350 q 599 1312 551 1350 q 646 1208 646 1275 q 600 1101 646 1139 q 481 1063 553 1063 m 481 1131 q 544 1152 519 1131 q 568 1207 568 1172 q 544 1263 568 1243 q 481 1283 519 1283 q 418 1263 444 1283 q 393 1207 393 1243 q 416 1152 393 1172 q 481 1131 439 1131 z "},"ů":{"ha":862,"x_min":117,"x_max":735,"o":"m 616 727 l 735 727 l 735 0 l 637 0 l 620 96 l 614 96 q 516 13 579 39 q 383 -14 454 -14 q 184 50 252 -14 q 117 251 117 113 l 117 727 l 239 727 l 239 259 q 401 85 239 85 q 569 154 522 85 q 616 349 616 222 l 616 727 m 429 822 q 311 860 357 822 q 266 966 266 898 q 311 1070 266 1033 q 429 1108 357 1108 q 547 1071 500 1108 q 595 967 595 1034 q 548 860 595 898 q 429 822 501 822 m 429 890 q 492 910 468 890 q 517 966 517 930 q 492 1022 517 1002 q 429 1042 467 1042 q 367 1022 392 1042 q 342 966 342 1002 q 365 910 342 930 q 429 890 387 890 z "},"Ű":{"ha":962,"x_min":134,"x_max":827,"o":"m 827 968 l 827 342 q 789 161 827 241 q 673 34 751 81 q 477 -14 596 -14 q 222 85 309 -14 q 134 345 134 183 l 134 968 l 256 968 l 256 340 q 313 157 256 222 q 483 92 370 92 q 653 162 600 92 q 706 342 706 232 l 706 968 l 827 968 m 749 1280 l 749 1267 q 699 1204 733 1243 q 625 1127 665 1166 q 550 1063 585 1088 l 481 1063 l 481 1080 q 552 1177 514 1118 q 615 1280 591 1235 l 749 1280 m 483 1280 l 483 1267 q 432 1204 467 1243 q 358 1127 398 1166 q 283 1063 318 1088 l 213 1063 l 213 1080 q 284 1177 246 1118 q 347 1280 322 1235 l 483 1280 z "},"ű":{"ha":862,"x_min":117,"x_max":735,"o":"m 616 727 l 735 727 l 735 0 l 637 0 l 620 96 l 614 96 q 516 13 579 39 q 383 -14 454 -14 q 184 50 252 -14 q 117 251 117 113 l 117 727 l 239 727 l 239 259 q 401 85 239 85 q 569 154 522 85 q 616 349 616 222 l 616 727 m 698 1039 l 698 1025 q 648 963 682 1002 q 574 885 614 924 q 498 822 534 846 l 429 822 l 429 838 q 501 935 463 877 q 564 1039 539 994 l 698 1039 m 431 1039 l 431 1025 q 381 963 415 1002 q 307 885 347 924 q 231 822 267 846 l 161 822 l 161 838 q 233 935 195 877 q 296 1039 271 994 l 431 1039 z "},"Ų":{"ha":962,"x_min":134,"x_max":827,"o":"m 610 -145 q 625 -201 610 -184 q 666 -218 640 -218 q 701 -215 686 -218 q 727 -210 716 -212 l 727 -286 q 691 -295 709 -291 q 648 -298 673 -298 q 515 -159 515 -298 q 534 -76 515 -117 q 581 -3 553 -35 q 477 -14 532 -14 q 222 85 309 -14 q 134 345 134 183 l 134 968 l 256 968 l 256 340 q 313 157 256 222 q 483 92 370 92 q 653 162 600 92 q 706 342 706 232 l 706 968 l 827 968 l 827 342 q 801 188 827 258 q 722 69 774 117 l 722 69 q 638 -49 665 -1 q 610 -145 610 -97 z "},"ų":{"ha":862,"x_min":117,"x_max":747,"o":"m 621 -157 q 637 -203 621 -188 q 682 -218 654 -218 q 721 -215 705 -218 q 747 -210 736 -212 l 747 -286 q 709 -295 728 -291 q 663 -298 690 -298 q 557 -264 591 -298 q 523 -171 523 -231 q 541 -101 523 -135 q 584 -37 558 -66 q 637 12 610 -8 l 621 96 l 616 96 q 517 13 581 39 q 384 -14 454 -14 q 184 50 252 -14 q 117 251 117 113 l 117 727 l 239 727 l 239 259 q 401 85 239 85 q 570 154 524 85 q 617 349 617 222 l 617 727 l 736 727 l 736 0 l 713 0 q 644 -79 668 -43 q 621 -157 621 -115 z "},"Ŵ":{"ha":1188,"x_min":18,"x_max":1169,"o":"m 1043 968 l 1169 968 l 930 0 l 805 0 l 635 635 q 615 713 625 673 q 598 783 605 753 q 590 826 592 814 q 575 750 588 808 q 547 631 563 693 l 382 0 l 256 0 l 18 968 l 144 968 l 281 377 q 325 146 312 248 q 345 262 332 199 q 374 384 358 324 l 528 968 l 652 968 l 812 380 q 843 255 829 317 q 863 146 856 193 q 880 256 868 197 q 907 378 892 315 l 1043 968 m 531 1280 l 654 1280 q 706 1213 672 1250 q 779 1140 741 1175 q 846 1078 817 1104 l 846 1063 l 761 1063 q 676 1117 720 1085 q 591 1185 633 1149 q 507 1117 549 1149 q 423 1063 464 1086 l 341 1063 l 341 1078 q 407 1140 370 1105 q 477 1213 444 1176 q 531 1280 511 1250 z "},"ŵ":{"ha":1070,"x_min":16,"x_max":1054,"o":"m 712 1 l 587 411 q 557 520 570 467 q 537 604 543 573 l 531 604 q 513 519 526 573 q 482 410 500 466 l 352 1 l 216 1 l 16 728 l 140 728 l 241 340 q 270 222 256 281 q 288 123 283 162 l 294 123 q 306 180 298 146 q 323 252 314 215 q 342 319 333 289 l 472 728 l 602 728 l 727 319 q 756 218 741 272 q 776 125 771 163 l 781 125 q 800 219 785 159 q 830 340 814 279 l 932 728 l 1054 728 l 852 1 l 712 1 m 473 1039 l 595 1039 q 648 971 614 1008 q 721 898 682 934 q 788 837 759 863 l 788 822 l 703 822 q 618 876 662 844 q 532 944 574 907 q 448 876 491 907 q 365 822 406 844 l 283 822 l 283 837 q 349 899 312 863 q 419 971 385 935 q 473 1039 453 1008 z "},"Ŷ":{"ha":865,"x_min":0,"x_max":865,"o":"m 134 968 l 433 492 l 734 968 l 865 968 l 494 376 l 494 0 l 372 0 l 372 370 l 0 968 l 134 968 m 370 1280 l 492 1280 q 545 1213 511 1250 q 617 1140 579 1175 q 685 1078 656 1104 l 685 1063 l 600 1063 q 515 1117 559 1085 q 429 1185 471 1149 q 345 1117 388 1149 q 262 1063 302 1086 l 180 1063 l 180 1078 q 245 1140 209 1105 q 316 1213 282 1176 q 370 1280 350 1250 z "},"ŷ":{"ha":726,"x_min":2,"x_max":726,"o":"m 312 -3 l 2 727 l 130 727 l 298 313 q 338 209 321 258 q 365 115 356 160 l 370 115 q 399 204 380 149 q 439 315 418 259 l 596 727 l 726 727 l 393 -100 q 291 -264 353 -203 q 118 -326 228 -326 q 58 -322 84 -326 q 14 -315 32 -319 l 14 -220 q 51 -225 29 -222 q 98 -228 73 -228 q 205 -193 164 -228 q 270 -99 245 -158 l 312 -3 m 300 1039 l 423 1039 q 476 971 441 1008 q 548 898 510 934 q 616 837 587 863 l 616 822 l 530 822 q 446 876 490 844 q 360 944 402 907 q 276 876 319 907 q 193 822 233 844 l 111 822 l 111 837 q 176 899 140 863 q 247 971 213 935 q 300 1039 281 1008 z "},"Ÿ":{"ha":865,"x_min":0,"x_max":865,"o":"m 134 968 l 433 492 l 734 968 l 865 968 l 494 376 l 494 0 l 372 0 l 372 370 l 0 968 l 134 968 m 223 1165 q 243 1216 223 1201 q 291 1232 263 1232 q 337 1216 317 1232 q 357 1165 357 1201 q 337 1114 357 1131 q 291 1097 317 1097 q 243 1114 263 1097 q 223 1165 223 1131 m 511 1165 q 530 1216 511 1201 q 576 1232 550 1232 q 623 1216 603 1232 q 643 1165 643 1201 q 623 1114 643 1131 q 576 1097 603 1097 q 530 1114 550 1097 q 511 1165 511 1131 z "},"Ź":{"ha":840,"x_min":56,"x_max":782,"o":"m 782 109 l 782 0 l 56 0 l 56 92 l 620 860 l 75 860 l 75 968 l 767 968 l 767 876 l 204 109 l 782 109 m 650 1280 l 650 1267 q 594 1203 632 1242 q 511 1126 556 1164 q 428 1063 467 1088 l 349 1063 l 349 1080 q 402 1140 374 1105 q 456 1213 430 1175 q 500 1280 483 1250 l 650 1280 z "},"ź":{"ha":796,"x_min":58,"x_max":739,"o":"m 739 92 l 739 0 l 58 0 l 58 79 l 599 635 l 90 635 l 90 727 l 728 727 l 728 637 l 192 92 l 739 92 m 622 1039 l 622 1025 q 566 962 604 1000 q 484 885 528 923 q 400 822 439 846 l 321 822 l 321 838 q 374 899 346 863 q 429 971 402 934 q 473 1039 455 1008 l 622 1039 z "},"Ż":{"ha":840,"x_min":56,"x_max":782,"o":"m 782 109 l 782 0 l 56 0 l 56 92 l 620 860 l 75 860 l 75 968 l 767 968 l 767 876 l 204 109 l 782 109 m 429 1241 q 480 1223 458 1241 q 503 1165 503 1205 q 480 1108 503 1126 q 429 1089 458 1089 q 374 1108 397 1089 q 352 1165 352 1126 q 374 1223 352 1205 q 429 1241 397 1241 z "},"ż":{"ha":796,"x_min":58,"x_max":739,"o":"m 739 92 l 739 0 l 58 0 l 58 79 l 599 635 l 90 635 l 90 727 l 728 727 l 728 637 l 192 92 l 739 92 m 401 1000 q 453 982 430 1000 q 475 924 475 964 q 453 866 475 885 q 401 848 430 848 q 347 866 369 848 q 324 924 324 885 q 347 982 324 964 q 401 1000 369 1000 z "},"Ž":{"ha":840,"x_min":56,"x_max":782,"o":"m 782 109 l 782 0 l 56 0 l 56 92 l 620 860 l 75 860 l 75 968 l 767 968 l 767 876 l 204 109 l 782 109 m 485 1063 l 362 1063 q 309 1131 342 1094 q 238 1202 275 1167 q 173 1263 201 1237 l 173 1280 l 256 1280 q 340 1225 296 1257 q 422 1156 385 1192 q 508 1225 465 1192 q 592 1280 551 1257 l 677 1280 l 677 1263 q 610 1202 648 1237 q 537 1131 572 1167 q 485 1063 503 1094 z "},"ž":{"ha":796,"x_min":58,"x_max":739,"o":"m 739 92 l 739 0 l 58 0 l 58 79 l 599 635 l 90 635 l 90 727 l 728 727 l 728 637 l 192 92 l 739 92 m 457 822 l 334 822 q 281 889 315 852 q 210 961 247 926 q 145 1021 173 996 l 145 1039 l 228 1039 q 312 983 268 1016 q 395 914 357 951 q 480 983 437 951 q 564 1039 524 1016 l 650 1039 l 650 1021 q 582 961 621 996 q 510 889 544 926 q 457 822 475 852 z "},"ſ":{"ha":451,"x_min":127,"x_max":505,"o":"m 368 939 q 278 903 311 939 q 246 783 246 868 l 246 0 l 127 0 l 127 783 q 193 980 127 922 q 369 1038 260 1038 q 445 1030 411 1038 q 505 1012 479 1022 l 474 918 q 424 932 453 926 q 368 939 395 939 z "},"ƀ":{"ha":874,"x_min":13,"x_max":792,"o":"m 477 -14 q 330 18 388 -14 q 240 92 273 49 l 231 92 l 205 0 l 121 0 l 121 821 l 13 821 l 13 910 l 121 910 l 121 1031 l 240 1031 l 240 910 l 548 910 l 548 821 l 240 821 l 240 780 q 238 694 240 734 q 233 631 235 653 l 240 631 q 330 708 273 677 q 477 739 387 739 q 706 645 620 739 q 792 363 792 551 q 706 81 792 176 q 477 -14 619 -14 m 462 85 q 618 158 567 85 q 669 365 669 230 q 459 640 669 640 q 287 574 334 640 q 240 368 240 507 l 240 362 q 287 157 240 228 q 462 85 334 85 z "},"Ɓ":{"ha":970,"x_min":15,"x_max":890,"o":"m 566 0 l 236 0 l 236 864 l 202 864 q 142 845 161 864 q 123 796 123 827 q 127 753 123 774 q 136 723 132 732 l 30 723 q 19 759 24 737 q 15 798 15 781 q 60 927 15 885 q 202 968 106 968 l 504 968 q 769 915 679 968 q 860 728 860 861 q 814 587 860 643 q 684 514 769 530 l 684 507 q 789 471 742 497 q 863 398 836 446 q 890 275 890 351 q 803 72 890 143 q 566 0 716 0 m 358 556 l 528 556 q 690 596 646 556 q 734 715 734 637 q 680 829 734 794 q 510 864 627 864 l 358 864 l 358 556 m 358 103 l 543 103 q 713 153 665 103 q 761 285 761 203 q 711 408 761 361 q 534 454 662 454 l 358 454 l 358 103 z "},"Ƃ":{"ha":808,"x_min":144,"x_max":732,"o":"m 408 0 l 144 0 l 144 968 l 677 968 l 677 861 l 267 861 l 267 559 l 395 559 q 600 523 527 559 q 703 425 673 488 q 732 283 732 363 q 657 75 732 151 q 408 0 582 0 m 267 104 l 398 104 q 560 149 513 104 q 607 283 607 193 q 555 415 607 377 q 381 453 503 453 l 267 453 l 267 104 z "},"ƃ":{"ha":874,"x_min":127,"x_max":792,"o":"m 481 -14 q 335 18 393 -14 q 246 92 278 49 l 237 92 l 212 0 l 127 0 l 127 1031 l 716 1031 l 716 930 l 246 930 l 246 780 q 244 694 246 734 q 239 631 241 653 l 246 631 q 335 708 278 677 q 481 739 392 739 q 707 645 622 739 q 792 363 792 551 q 706 81 792 176 q 481 -14 621 -14 m 465 85 q 618 158 568 85 q 669 365 669 230 q 462 640 669 640 q 293 574 339 640 q 246 368 246 507 l 246 362 q 292 157 246 228 q 465 85 338 85 z "},"Ƅ":{"ha":945,"x_min":134,"x_max":869,"o":"m 509 -14 q 286 24 368 -14 q 169 130 203 62 q 134 285 134 197 l 134 968 l 256 968 l 256 559 l 468 559 q 705 520 617 559 q 831 418 793 482 q 869 278 869 355 q 781 68 869 150 q 509 -14 692 -14 m 509 91 q 688 139 633 91 q 743 278 743 188 q 670 412 743 372 q 453 453 596 453 l 256 453 l 256 285 q 315 135 256 179 q 509 91 374 91 z "},"ƅ":{"ha":779,"x_min":122,"x_max":696,"o":"m 413 -14 q 201 81 280 -14 q 122 362 122 175 l 122 1031 l 242 1031 l 242 780 q 240 694 242 734 q 236 631 238 653 l 242 631 q 316 708 269 677 q 437 739 363 739 q 625 645 554 739 q 696 363 696 551 q 620 81 696 176 q 413 -14 543 -14 m 413 85 q 534 158 494 85 q 574 365 574 230 q 412 640 574 640 q 279 574 316 640 q 242 368 242 507 l 242 359 q 288 157 242 229 q 413 85 334 85 z "},"Ɔ":{"ha":961,"x_min":46,"x_max":870,"o":"m 371 -14 q 214 -4 279 -14 q 90 26 150 5 l 90 132 q 215 104 151 115 q 349 94 278 94 q 558 141 470 94 q 693 275 646 188 q 741 484 741 363 q 642 770 741 665 q 347 875 543 875 q 211 859 273 875 q 100 822 150 842 l 46 925 q 186 967 106 953 q 368 982 266 982 q 647 921 536 982 q 814 748 759 860 q 870 483 870 635 q 811 224 870 336 q 640 50 751 113 q 371 -14 528 -14 z "},"Ƈ":{"ha":962,"x_min":91,"x_max":1057,"o":"m 968 1164 q 1019 1158 996 1164 q 1057 1146 1041 1152 l 1057 1048 q 1026 1057 1048 1053 q 979 1062 1004 1062 q 907 997 907 1062 l 907 928 l 856 822 q 748 859 806 842 q 614 875 689 875 q 405 828 493 875 q 268 693 316 781 q 220 484 220 606 q 319 199 220 304 q 612 94 418 94 q 748 104 684 94 q 871 132 811 115 l 871 26 q 748 -4 812 5 q 593 -14 684 -14 q 315 48 427 -14 q 147 221 203 109 q 91 486 91 333 q 152 744 91 632 q 330 919 213 856 q 616 982 448 982 q 802 963 711 982 l 802 982 q 839 1117 802 1069 q 968 1164 876 1164 z "},"ƈ":{"ha":746,"x_min":82,"x_max":810,"o":"m 448 -14 q 259 26 342 -14 q 130 148 177 66 q 82 359 82 231 q 131 578 82 494 q 264 701 180 662 q 456 741 349 741 q 508 738 482 741 q 558 732 533 736 l 558 856 q 595 990 558 943 q 722 1038 632 1038 q 772 1032 750 1038 q 810 1020 795 1026 l 810 921 q 780 930 801 925 q 733 935 758 935 q 663 869 663 935 l 663 701 l 626 602 q 543 625 591 614 q 453 636 494 636 q 205 361 205 636 q 266 160 205 230 q 444 90 326 90 q 559 102 509 90 q 650 132 610 115 l 650 26 q 563 -3 611 7 q 448 -14 515 -14 z "},"Ɖ":{"ha":1053,"x_min":45,"x_max":962,"o":"m 153 968 l 456 968 q 724 915 610 968 q 900 755 838 861 q 962 494 962 649 q 821 124 962 249 q 425 0 680 0 l 153 0 l 153 426 l 45 426 l 45 532 l 153 532 l 153 968 m 437 864 l 275 864 l 275 532 l 536 532 l 536 426 l 275 426 l 275 104 l 408 104 q 833 490 833 104 q 729 773 833 683 q 437 864 625 864 z "},"Ɗ":{"ha":1212,"x_min":15,"x_max":1121,"o":"m 559 0 l 260 0 l 260 864 l 221 864 q 149 845 172 864 q 126 796 126 827 q 132 753 126 774 q 142 723 137 732 l 32 723 q 20 759 25 737 q 15 798 15 781 q 220 968 15 968 l 591 968 q 873 915 754 968 q 1056 755 991 861 q 1121 494 1121 649 q 973 124 1121 249 q 559 0 825 0 m 382 104 l 537 104 q 992 490 992 104 q 881 773 992 683 q 568 864 770 864 l 382 864 l 382 104 z "},"Ƌ":{"ha":808,"x_min":76,"x_max":663,"o":"m 663 0 l 411 0 q 156 71 237 0 q 76 269 76 142 q 110 411 76 345 q 221 518 143 477 q 430 559 298 559 l 541 559 l 541 861 l 132 861 l 132 968 l 663 968 l 663 0 m 420 104 l 541 104 l 541 454 l 442 454 q 261 413 321 454 q 201 274 201 372 q 255 146 201 189 q 420 104 308 104 z "},"ƌ":{"ha":874,"x_min":82,"x_max":747,"o":"m 393 -14 q 167 81 252 -14 q 82 362 82 175 q 168 645 82 549 q 394 741 253 741 q 537 709 481 741 q 628 633 593 678 l 637 633 q 631 686 634 651 q 629 741 629 720 l 629 930 l 159 930 l 159 1031 l 747 1031 l 747 0 l 651 0 l 634 98 l 629 98 q 538 19 595 51 q 393 -14 481 -14 m 410 85 q 580 149 531 85 q 629 339 629 212 l 629 361 q 583 569 629 496 q 408 642 536 642 q 256 565 307 642 q 206 359 206 489 q 257 157 206 229 q 410 85 307 85 z "},"ƍ":{"ha":820,"x_min":104,"x_max":753,"o":"m 427 741 q 595 701 522 741 q 711 590 669 662 q 753 422 753 519 q 691 212 753 292 q 514 85 629 132 q 574 41 545 66 q 621 -19 603 16 q 640 -107 640 -55 q 613 -202 640 -155 q 530 -280 587 -249 q 382 -311 473 -311 q 267 -295 317 -311 q 184 -260 218 -280 q 134 -227 151 -241 l 185 -133 q 276 -189 227 -165 q 383 -213 325 -213 q 469 -197 438 -213 q 511 -157 499 -180 q 523 -111 523 -133 q 512 -65 523 -87 q 470 -16 502 -42 q 374 46 438 11 q 199 171 257 110 q 123 292 142 233 q 104 408 104 351 q 150 597 104 524 q 268 706 195 671 q 427 741 342 741 m 425 643 q 275 577 328 643 q 222 411 222 512 q 274 245 222 311 q 415 134 327 178 q 573 235 515 170 q 631 411 631 299 q 575 579 631 516 q 425 643 519 643 z "},"Ǝ":{"ha":753,"x_min":90,"x_max":608,"o":"m 608 0 l 90 0 l 90 107 l 487 107 l 487 453 l 113 453 l 113 559 l 487 559 l 487 861 l 90 861 l 90 968 l 608 968 l 608 0 z "},"Ə":{"ha":941,"x_min":87,"x_max":849,"o":"m 426 876 q 274 860 344 876 q 143 821 203 843 l 143 932 q 266 968 197 954 q 431 983 334 983 q 659 921 566 983 q 801 747 752 859 q 849 483 849 634 q 803 221 849 333 q 669 48 758 110 q 454 -14 581 -14 q 243 48 323 -14 q 125 222 162 110 q 87 484 87 334 l 87 530 l 720 530 q 640 785 711 694 q 426 876 569 876 m 454 94 q 640 179 569 94 q 720 423 711 264 l 217 423 q 271 182 218 270 q 454 94 325 94 z "},"Ɛ":{"ha":732,"x_min":80,"x_max":675,"o":"m 393 982 q 554 953 484 982 q 674 882 624 924 l 618 799 q 522 859 572 836 q 399 882 473 882 q 286 842 329 882 q 243 730 243 803 q 298 600 243 648 q 471 552 354 552 l 576 552 l 576 450 l 463 450 q 275 408 342 450 q 207 274 207 366 q 261 136 207 184 q 422 87 316 87 q 553 107 487 87 q 675 157 620 127 l 675 46 q 410 -14 568 -14 q 218 22 291 -14 q 113 121 146 58 q 80 264 80 184 q 137 429 80 368 q 300 506 194 490 l 300 511 q 169 586 218 528 q 119 742 119 644 q 189 915 119 847 q 393 982 258 982 z "},"Ƒ":{"ha":745,"x_min":-26,"x_max":711,"o":"m 155 -328 q 21 -279 68 -328 q -26 -146 -26 -230 q -11 -66 -26 -111 l 93 -99 q 90 -117 91 -108 q 88 -138 88 -127 q 106 -199 88 -177 q 153 -221 124 -221 q 211 -189 187 -221 q 235 -76 235 -157 l 235 968 l 711 968 l 711 861 l 357 861 l 357 560 l 688 560 l 688 453 l 357 453 l 357 -88 q 299 -272 357 -215 q 155 -328 241 -328 z "},"ƒ":{"ha":878,"x_min":14,"x_max":909,"o":"m 271 -328 q 142 -307 199 -328 q 52 -246 85 -286 q 18 -153 18 -207 q 16 -125 18 -140 q 16 -95 14 -110 l 130 -117 q 133 -130 132 -123 q 133 -145 133 -137 q 170 -209 133 -188 q 254 -229 206 -229 q 347 -203 313 -229 q 381 -111 381 -177 l 381 635 l 178 635 l 178 690 l 378 731 l 378 773 q 473 976 378 913 q 724 1038 567 1038 q 831 1030 782 1038 q 909 1013 880 1023 l 872 920 q 793 933 838 927 q 703 940 749 940 q 550 900 600 940 q 500 774 500 860 l 500 727 l 785 727 l 785 635 l 500 635 l 500 -107 q 450 -270 500 -211 q 271 -328 400 -328 z "},"Ɠ":{"ha":1000,"x_min":91,"x_max":1022,"o":"m 941 1164 q 987 1158 966 1164 q 1022 1146 1008 1152 l 1022 1048 q 994 1057 1013 1053 q 951 1062 974 1062 q 887 997 887 1062 l 887 925 l 841 819 q 724 858 789 842 q 589 875 659 875 q 316 770 414 875 q 218 484 218 665 q 256 280 218 368 q 374 142 293 192 q 587 92 456 92 q 697 99 652 92 q 779 115 742 106 l 779 403 l 564 403 l 564 511 l 901 511 l 901 37 q 742 -1 822 12 q 558 -14 661 -14 q 302 47 407 -14 q 144 219 198 108 q 91 484 91 331 q 151 747 91 635 q 323 921 210 859 q 596 982 437 982 q 784 959 695 982 l 784 982 q 820 1117 784 1069 q 941 1164 857 1164 z "},"Ɣ":{"ha":913,"x_min":0,"x_max":913,"o":"m 459 -326 q 329 -274 377 -326 q 281 -145 281 -222 q 314 -6 281 -85 q 390 145 346 72 l 0 968 l 127 968 l 372 463 q 424 351 401 403 q 459 251 446 299 q 493 352 470 299 q 545 465 516 406 l 785 968 l 913 968 l 529 146 q 610 -18 585 58 q 636 -145 636 -94 q 589 -273 636 -221 q 459 -326 541 -326 m 459 -220 q 501 -201 486 -220 q 517 -142 517 -183 q 503 -62 517 -112 q 459 34 490 -13 q 414 -63 427 -17 q 401 -140 401 -110 q 417 -200 401 -181 q 459 -220 434 -220 z "},"ƕ":{"ha":1263,"x_min":127,"x_max":1143,"o":"m 859 -14 q 647 50 718 -14 q 575 252 575 113 l 575 465 q 541 596 575 553 q 433 640 507 640 q 287 572 327 640 q 247 376 247 503 l 247 0 l 127 0 l 127 1031 l 247 1031 l 247 728 q 240 627 247 674 l 248 627 q 335 711 280 683 q 453 739 390 739 q 634 676 572 739 q 695 473 695 613 l 695 260 q 859 85 695 85 q 984 133 944 85 q 1023 288 1023 180 l 1023 727 l 1143 727 l 1143 283 q 1072 54 1143 121 q 859 -14 1001 -14 z "},"Ɩ":{"ha":544,"x_min":134,"x_max":529,"o":"m 382 -14 q 254 6 311 -14 q 166 75 198 26 q 134 213 134 124 l 134 968 l 250 968 l 250 224 q 282 126 250 159 q 391 94 315 94 q 469 99 427 94 q 529 109 511 104 l 529 8 q 466 -7 509 -1 q 382 -14 422 -14 z "},"Ɨ":{"ha":544,"x_min":50,"x_max":492,"o":"m 64 968 l 479 968 l 479 898 l 332 871 l 332 549 l 492 549 l 492 444 l 332 444 l 332 96 l 479 71 l 479 0 l 64 0 l 64 71 l 211 96 l 211 444 l 50 444 l 50 549 l 211 549 l 211 871 l 64 898 l 64 968 z "},"Ƙ":{"ha":922,"x_min":144,"x_max":922,"o":"m 829 977 q 870 974 853 977 q 899 966 886 971 l 899 871 q 868 874 890 873 q 834 875 847 875 q 794 865 816 875 q 731 812 772 854 l 472 549 l 922 0 l 778 0 l 390 464 l 267 359 l 267 0 l 144 0 l 144 968 l 267 968 l 267 480 q 362 578 309 525 q 462 680 416 631 l 659 883 q 724 944 697 924 q 775 970 751 964 q 829 977 800 977 z "},"ƙ":{"ha":812,"x_min":127,"x_max":799,"o":"m 304 1038 q 360 1032 333 1038 q 404 1020 387 1026 l 404 921 q 370 930 393 925 q 321 935 347 935 q 264 917 283 935 q 244 856 244 899 l 244 492 q 242 436 244 471 q 239 374 241 400 l 245 374 q 274 406 255 386 q 314 447 293 426 q 348 481 334 468 l 633 727 l 774 727 l 425 416 l 799 0 l 654 0 l 344 339 l 244 267 l 244 0 l 127 0 l 127 848 q 169 989 127 941 q 304 1038 212 1038 z "},"ƚ":{"ha":535,"x_min":60,"x_max":476,"o":"m 328 0 l 209 0 l 209 480 l 60 480 l 60 570 l 209 570 l 209 1031 l 328 1031 l 328 570 l 476 570 l 476 480 l 328 480 l 328 0 z "},"ƛ":{"ha":825,"x_min":-9,"x_max":825,"o":"m 114 0 l -9 0 l 349 713 l 310 800 l 144 757 l 116 842 l 274 883 q 224 928 251 916 q 154 940 198 940 q 104 938 125 940 q 68 932 83 935 l 68 1028 q 113 1036 89 1032 q 165 1039 138 1039 q 300 1009 252 1039 q 384 917 348 979 l 557 962 l 585 876 l 420 833 l 708 157 q 739 102 722 120 q 781 84 755 84 q 805 86 792 84 q 825 91 819 89 l 825 3 q 788 -9 808 -4 q 743 -14 767 -14 q 663 12 693 -14 q 609 96 633 37 l 488 374 q 458 447 475 407 q 427 525 441 487 q 406 590 413 564 l 400 590 q 362 489 386 543 q 310 381 338 435 l 114 0 z "},"Ɯ":{"ha":1481,"x_min":134,"x_max":1335,"o":"m 416 -14 q 203 57 271 -14 q 134 282 134 127 l 134 968 l 256 968 l 256 282 q 299 140 256 188 q 433 92 341 92 q 619 160 564 92 q 674 355 674 227 l 674 968 l 796 968 l 796 282 q 839 140 796 188 q 976 92 882 92 q 1162 167 1111 92 q 1214 382 1214 242 l 1214 968 l 1335 968 l 1335 0 l 1239 0 l 1218 111 l 1212 111 q 1101 17 1173 48 q 952 -14 1029 -14 q 701 122 762 -14 l 694 122 q 575 20 651 53 q 416 -14 499 -14 z "},"Ɲ":{"ha":1026,"x_min":-17,"x_max":882,"o":"m 58 -326 q 16 -321 35 -326 q -17 -308 -3 -316 l -17 -205 q 12 -215 -3 -211 q 43 -218 26 -218 q 105 -195 84 -218 q 127 -107 127 -171 l 127 968 l 269 968 l 772 167 l 777 167 q 774 232 777 189 q 770 327 772 275 q 768 422 768 378 l 768 968 l 882 968 l 882 0 l 739 0 l 234 804 l 229 804 q 236 686 232 757 q 239 541 239 616 l 239 -113 q 194 -275 239 -224 q 58 -326 149 -326 z "},"ƞ":{"ha":862,"x_min":127,"x_max":726,"o":"m 726 -326 l 608 -326 l 608 465 q 452 640 608 640 q 292 572 338 640 q 246 377 246 505 l 246 0 l 127 0 l 127 727 l 223 727 l 241 628 l 248 628 q 342 713 283 685 q 470 741 401 741 q 661 677 595 741 q 726 473 726 614 l 726 -326 z "},"Ɵ":{"ha":1080,"x_min":91,"x_max":987,"o":"m 987 486 q 937 223 987 336 q 786 49 886 111 q 541 -14 687 -14 q 289 49 389 -14 q 140 224 189 112 q 91 487 91 337 q 140 747 91 635 q 289 921 189 859 q 542 983 389 983 q 787 922 688 983 q 937 748 886 860 q 987 486 987 636 m 542 876 q 311 789 389 876 q 222 547 234 701 l 856 547 q 768 789 844 701 q 542 876 693 876 m 541 92 q 772 185 696 92 q 857 441 849 277 l 222 441 q 307 185 230 277 q 541 92 384 92 z "},"Ơ":{"ha":1117,"x_min":91,"x_max":1149,"o":"m 1029 486 q 976 223 1029 336 q 819 49 923 111 q 562 -14 715 -14 q 298 49 403 -14 q 142 224 193 112 q 91 487 91 337 q 142 747 91 635 q 298 921 193 859 q 564 983 404 983 q 768 946 680 983 q 916 842 857 909 q 993 909 977 858 q 1009 1031 1009 961 l 1139 1031 l 1149 1016 q 1094 868 1134 936 q 964 769 1054 801 q 1029 486 1029 654 m 220 486 q 302 197 220 302 q 562 92 385 92 q 820 197 740 92 q 901 486 901 302 q 820 772 901 668 q 564 876 740 876 q 302 772 385 876 q 220 486 220 668 z "},"ơ":{"ha":937,"x_min":82,"x_max":982,"o":"m 846 365 q 742 85 846 184 q 461 -14 637 -14 q 266 31 352 -14 q 131 160 180 75 q 82 365 82 244 q 185 643 82 545 q 466 741 288 741 q 615 716 547 741 q 733 647 684 692 q 805 687 783 659 q 834 754 827 715 q 840 838 840 793 l 971 838 l 982 823 q 917 667 961 730 q 790 575 873 604 q 831 480 816 532 q 846 365 846 427 m 206 365 q 268 157 206 228 q 464 85 329 85 q 661 157 600 85 q 722 365 722 228 q 660 571 722 501 q 463 640 598 640 q 267 571 328 640 q 206 365 206 501 z "},"Ƣ":{"ha":1472,"x_min":91,"x_max":1338,"o":"m 937 486 q 889 223 937 336 q 748 49 842 111 q 515 -14 654 -14 q 278 49 372 -14 q 137 224 184 112 q 91 487 91 337 q 137 747 91 635 q 278 921 184 859 q 516 983 372 983 q 690 951 614 983 q 819 860 766 919 q 929 953 861 923 q 1072 983 998 983 q 1273 913 1208 983 q 1338 688 1338 844 l 1338 0 l 1216 0 l 1216 688 q 1177 830 1216 783 q 1053 878 1138 878 q 866 795 916 878 q 937 486 937 671 m 220 486 q 292 197 220 302 q 515 92 363 92 q 738 197 667 92 q 808 486 808 302 q 738 772 808 669 q 516 876 668 876 q 292 772 363 876 q 220 486 220 669 z "},"ƣ":{"ha":1239,"x_min":82,"x_max":1118,"o":"m 776 365 q 682 85 776 184 q 427 -14 587 -14 q 250 31 328 -14 q 127 160 172 75 q 82 365 82 244 q 175 643 82 545 q 430 741 269 741 q 677 643 586 741 q 770 717 714 693 q 886 741 826 741 q 1061 677 1004 741 q 1118 473 1118 614 l 1118 -326 l 1001 -326 l 1001 468 q 863 640 1001 640 q 721 581 767 640 q 776 365 776 494 m 205 365 q 259 161 205 236 q 428 85 313 85 q 598 161 544 85 q 652 365 652 236 q 598 567 652 494 q 429 640 544 640 q 259 567 312 640 q 205 365 205 494 z "},"Ƥ":{"ha":940,"x_min":15,"x_max":864,"o":"m 364 0 l 242 0 l 242 864 l 207 864 q 144 845 164 864 q 124 796 124 827 q 129 753 124 774 q 138 723 134 732 l 31 723 q 20 759 24 737 q 15 798 15 781 q 207 968 15 968 l 499 968 q 777 894 690 968 q 864 684 864 819 q 828 534 864 604 q 707 420 791 464 q 476 377 622 377 l 364 377 l 364 0 m 364 481 l 463 481 q 670 527 602 481 q 738 678 738 572 q 678 818 738 772 q 488 864 618 864 l 364 864 l 364 481 z "},"ƥ":{"ha":874,"x_min":127,"x_max":792,"o":"m 296 1038 q 346 1032 321 1038 q 386 1020 371 1026 l 386 921 q 356 930 376 925 q 313 935 336 935 q 264 917 281 935 q 246 856 246 899 l 246 747 q 243 687 246 722 q 238 628 240 652 l 246 628 q 335 708 280 675 q 482 741 390 741 q 707 647 622 741 q 792 365 792 553 q 707 83 792 179 q 481 -14 622 -14 q 336 18 393 -14 q 246 92 279 50 l 238 92 q 243 34 240 69 q 246 -27 246 -1 l 246 -326 l 127 -326 l 127 848 q 296 1038 127 1038 m 462 640 q 296 578 345 640 q 246 388 246 515 l 246 365 q 293 158 246 231 q 465 85 340 85 q 619 165 569 85 q 669 366 669 244 q 618 565 669 490 q 462 640 568 640 z "},"Ʀ":{"ha":878,"x_min":144,"x_max":856,"o":"m 856 -136 l 713 -136 l 470 264 l 267 264 l 267 0 l 144 0 l 144 968 l 267 968 l 267 833 l 420 833 q 694 764 606 833 q 783 557 783 696 q 754 429 783 480 q 679 347 725 378 q 582 298 633 315 l 856 -136 m 267 368 l 421 368 q 601 414 544 368 q 657 552 657 460 q 597 687 657 647 q 414 727 538 727 l 267 727 l 267 368 z "},"Ƨ":{"ha":748,"x_min":70,"x_max":673,"o":"m 370 982 q 589 916 505 982 q 673 735 673 850 q 612 557 673 623 q 429 448 550 492 q 291 388 343 416 q 216 328 239 361 q 192 248 192 296 q 246 134 192 176 q 406 92 300 92 q 553 114 481 92 q 672 156 624 135 l 672 39 q 558 2 627 17 q 410 -14 490 -14 q 162 58 254 -14 q 70 259 70 130 q 103 385 70 335 q 198 471 136 435 q 342 538 259 507 q 466 594 420 568 q 531 652 511 620 q 551 734 551 685 q 506 836 551 797 q 372 875 460 875 q 264 860 316 875 q 166 823 212 845 l 128 928 q 240 967 180 952 q 370 982 300 982 z "},"ƨ":{"ha":707,"x_min":67,"x_max":631,"o":"m 334 741 q 554 691 479 741 q 630 548 630 641 q 600 450 630 488 q 514 386 570 412 q 381 331 458 359 q 261 282 304 304 q 200 239 218 260 q 182 190 182 217 q 229 112 182 141 q 378 83 275 83 q 518 101 450 83 q 631 141 585 120 l 631 33 q 527 -2 587 10 q 383 -14 467 -14 q 67 201 67 -14 q 96 297 67 259 q 178 363 124 336 q 309 416 233 391 q 431 463 385 443 q 497 503 477 482 q 517 555 517 524 q 473 619 517 595 q 345 643 429 643 q 249 630 298 643 q 151 597 199 616 l 109 692 q 218 727 162 714 q 334 741 274 741 z "},"Ʃ":{"ha":824,"x_min":56,"x_max":766,"o":"m 766 0 l 56 0 l 56 100 l 399 500 l 71 867 l 71 968 l 749 968 l 749 860 l 374 860 q 325 860 353 860 q 269 860 296 860 q 228 861 243 861 l 528 532 l 528 495 l 197 109 q 303 109 252 109 q 412 110 355 110 l 766 110 l 766 0 z "},"ƪ":{"ha":732,"x_min":2,"x_max":791,"o":"m 239 1038 q 402 990 336 1038 q 468 846 468 943 l 468 -98 q 508 -195 468 -163 q 640 -228 547 -228 q 728 -223 681 -228 q 791 -213 774 -218 l 791 -304 q 724 -319 770 -313 q 636 -326 678 -326 q 489 -306 553 -326 q 389 -237 425 -286 q 353 -99 353 -188 l 353 735 l 237 735 q 57 778 112 735 q 2 887 2 821 q 22 960 2 925 q 94 1016 42 994 q 239 1038 145 1038 m 239 940 q 167 924 186 940 q 148 887 148 907 q 178 845 148 858 q 252 833 209 833 l 353 833 l 353 850 q 331 915 353 889 q 239 940 309 940 z "},"ƫ":{"ha":519,"x_min":24,"x_max":487,"o":"m 320 -326 q 271 -320 293 -326 q 235 -309 249 -314 l 235 -210 q 266 -218 247 -214 q 309 -222 286 -222 q 360 -205 341 -222 q 379 -152 379 -189 l 379 -14 l 348 -14 q 246 6 294 -14 q 166 75 197 26 q 136 212 136 123 l 136 635 l 24 635 l 24 692 l 136 739 l 186 894 l 255 894 l 255 727 l 481 727 l 481 635 l 255 635 l 255 214 q 380 84 255 84 q 439 89 408 84 q 487 99 470 93 l 487 -145 q 447 -279 487 -233 q 320 -326 406 -326 z "},"Ƭ":{"ha":933,"x_min":15,"x_max":917,"o":"m 536 0 l 415 0 l 415 861 l 234 861 q 129 796 129 861 q 135 753 129 774 q 145 723 140 732 l 33 723 q 20 759 25 737 q 15 798 15 781 q 233 968 15 968 l 917 968 l 917 861 l 536 861 l 536 0 z "},"ƭ":{"ha":519,"x_min":24,"x_max":487,"o":"m 346 1038 q 408 1032 378 1038 q 456 1020 437 1026 l 456 921 q 410 930 443 925 q 343 935 376 935 q 255 842 255 935 l 255 727 l 481 727 l 481 635 l 255 635 l 255 214 q 290 116 255 149 q 380 84 325 84 q 439 89 408 84 q 487 99 470 93 l 487 8 q 431 -7 468 -1 q 362 -14 395 -14 q 250 6 302 -14 q 167 75 198 26 q 136 212 136 123 l 136 635 l 24 635 l 24 692 l 138 739 l 138 829 q 189 984 138 930 q 346 1038 239 1038 z "},"Ʈ":{"ha":878,"x_min":15,"x_max":862,"o":"m 580 -326 q 429 -275 478 -326 q 379 -113 379 -224 l 379 861 l 15 861 l 15 968 l 862 968 l 862 861 l 500 861 l 500 -107 q 527 -195 500 -171 q 604 -218 553 -218 q 640 -215 623 -218 q 673 -205 657 -211 l 673 -308 q 632 -321 657 -316 q 580 -326 606 -326 z "},"Ư":{"ha":1050,"x_min":134,"x_max":1107,"o":"m 869 968 l 869 837 q 953 899 933 847 q 972 1031 972 951 l 1099 1031 l 1107 1016 q 1072 897 1097 951 q 999 805 1047 842 q 869 753 951 767 l 869 342 q 831 161 869 241 q 714 34 794 81 q 507 -14 634 -14 q 230 85 325 -14 q 134 345 134 183 l 134 968 l 256 968 l 256 339 q 319 157 256 222 q 509 92 382 92 q 693 162 639 92 q 748 340 748 232 l 748 968 l 869 968 z "},"ư":{"ha":937,"x_min":117,"x_max":988,"o":"m 979 840 l 988 825 q 952 704 977 761 q 878 609 927 648 q 747 562 829 570 l 747 0 l 649 0 l 631 96 l 626 96 q 526 13 589 39 q 392 -14 463 -14 q 186 50 255 -14 q 117 251 117 113 l 117 726 l 239 726 l 239 259 q 406 85 239 85 q 579 154 531 85 q 627 349 627 222 l 627 726 l 747 726 l 747 646 q 833 709 814 657 q 852 840 852 762 l 979 840 z "},"Ʊ":{"ha":1088,"x_min":55,"x_max":1031,"o":"m 545 92 q 789 181 711 92 q 867 425 867 270 q 815 670 867 560 q 635 871 764 781 l 635 968 l 1031 968 l 1031 861 l 785 861 q 935 684 874 795 q 996 420 996 572 q 943 190 996 288 q 790 39 890 92 q 545 -15 689 -15 q 208 102 324 -15 q 92 419 92 220 q 152 684 92 572 q 300 861 212 795 l 55 861 l 55 968 l 452 968 l 452 871 q 271 670 323 781 q 219 425 219 559 q 298 181 219 270 q 545 92 376 92 z "},"Ʋ":{"ha":989,"x_min":134,"x_max":854,"o":"m 490 -14 q 225 85 316 -14 q 134 345 134 183 l 134 968 l 256 968 l 256 340 q 316 157 256 222 q 497 92 376 92 q 677 162 621 92 q 733 342 733 232 l 733 779 q 712 853 733 831 q 652 875 692 875 q 602 867 626 875 q 556 848 577 860 l 556 951 q 609 974 576 965 q 676 982 642 982 q 854 787 854 982 l 854 342 q 814 161 854 241 q 695 34 775 81 q 490 -14 614 -14 z "},"Ƴ":{"ha":865,"x_min":0,"x_max":857,"o":"m 486 0 l 363 0 l 363 370 l 0 968 l 134 968 l 425 492 l 630 882 q 693 963 659 943 q 771 983 728 983 q 822 979 801 983 q 857 968 844 974 l 857 869 q 798 880 831 880 q 743 833 759 880 l 486 376 l 486 0 z "},"ƴ":{"ha":933,"x_min":3,"x_max":933,"o":"m 848 741 q 895 736 876 741 q 933 724 915 732 l 933 636 q 910 641 926 638 q 882 643 895 643 q 838 625 854 643 q 809 570 822 608 l 458 -100 q 385 -219 427 -169 q 284 -298 344 -270 q 136 -326 224 -326 q 61 -322 92 -326 q 7 -315 30 -319 l 7 -220 q 54 -225 26 -222 q 114 -228 81 -228 q 250 -193 198 -228 q 332 -99 301 -158 l 387 -3 l 3 727 l 127 727 l 351 313 q 407 209 383 258 q 442 115 431 160 l 450 115 q 489 204 461 149 q 545 315 517 259 l 696 609 q 765 713 732 686 q 848 741 799 741 z "},"Ƶ":{"ha":840,"x_min":56,"x_max":783,"o":"m 117 456 l 117 552 l 390 552 l 620 860 l 75 860 l 75 968 l 768 968 l 768 876 l 528 552 l 714 552 l 714 456 l 465 456 l 205 109 l 783 109 l 783 0 l 56 0 l 56 92 l 328 456 l 117 456 z "},"ƶ":{"ha":797,"x_min":58,"x_max":739,"o":"m 90 727 l 728 727 l 728 637 l 514 425 l 708 425 l 708 330 l 440 330 l 192 92 l 739 92 l 739 0 l 58 0 l 58 79 l 311 330 l 91 330 l 91 425 l 382 425 l 600 635 l 90 635 l 90 727 z "},"Ʒ":{"ha":774,"x_min":52,"x_max":692,"o":"m 79 968 l 653 968 l 653 872 l 340 552 q 598 478 504 546 q 692 277 692 411 q 600 68 692 150 q 319 -14 509 -14 q 178 -2 245 -14 q 52 39 111 10 l 52 151 q 184 103 113 120 q 319 87 256 87 q 504 137 443 87 q 565 278 565 186 q 493 411 565 369 q 286 453 422 453 l 200 453 l 200 552 l 498 860 l 79 860 l 79 968 z "},"Ƹ":{"ha":774,"x_min":82,"x_max":722,"o":"m 440 -14 q 235 28 314 -14 q 119 138 156 70 q 82 286 82 206 q 125 457 82 389 q 237 559 168 525 q 388 597 307 594 l 121 872 l 121 968 l 696 968 l 696 860 l 277 860 l 537 586 l 537 498 l 438 498 q 275 449 340 498 q 210 289 210 400 q 271 141 210 195 q 455 87 332 87 q 591 103 519 87 q 722 151 662 120 l 722 39 q 595 -2 664 10 q 440 -14 526 -14 z "},"ƹ":{"ha":711,"x_min":50,"x_max":691,"o":"m 412 -326 q 219 -284 300 -326 q 94 -173 138 -243 q 50 -15 50 -103 q 99 161 50 92 q 228 267 147 231 q 406 309 309 303 l 90 640 l 90 727 l 671 727 l 671 627 l 228 627 l 547 297 l 547 214 l 462 214 q 310 192 376 214 q 207 119 244 169 q 170 -12 170 69 q 240 -168 170 -109 q 421 -227 311 -227 q 576 -209 507 -227 q 691 -170 646 -191 l 691 -278 q 578 -313 646 -300 q 412 -326 509 -326 z "},"ƺ":{"ha":720,"x_min":41,"x_max":647,"o":"m 312 -326 q 120 -287 196 -326 q 43 -164 43 -248 q 65 -83 43 -120 q 145 -23 87 -45 q 309 0 203 0 q 480 40 432 0 q 528 165 528 79 q 457 288 528 252 q 252 323 386 323 l 168 323 l 168 406 l 436 627 l 41 627 l 41 727 l 608 727 l 608 640 l 335 418 q 567 348 488 412 q 647 167 647 285 q 613 30 647 90 q 504 -64 578 -30 q 308 -99 429 -99 q 213 -107 245 -99 q 169 -130 180 -115 q 157 -164 157 -144 q 197 -210 157 -193 q 312 -227 236 -227 q 441 -211 385 -227 q 539 -178 498 -196 l 539 -286 q 443 -315 500 -304 q 312 -326 385 -326 z "},"ƻ":{"ha":878,"x_min":71,"x_max":804,"o":"m 397 1038 q 623 972 540 1038 q 705 792 705 907 q 688 682 705 735 q 629 568 670 629 l 795 568 l 795 473 l 568 473 l 201 100 l 201 95 l 804 95 l 804 0 l 71 0 l 71 99 l 431 473 l 123 473 l 123 568 l 498 568 q 563 682 544 631 q 582 789 582 732 q 531 897 582 861 q 398 933 481 933 q 267 910 323 933 q 151 844 210 888 l 85 924 q 227 1005 149 972 q 397 1038 305 1038 z "},"Ƽ":{"ha":878,"x_min":52,"x_max":796,"o":"m 363 -14 q 200 -2 278 -14 q 52 39 123 10 l 52 151 q 209 103 125 120 q 368 87 292 87 q 594 143 519 87 q 669 301 669 199 q 631 412 669 369 q 531 477 593 456 q 392 498 468 498 l 202 498 l 202 860 l 61 860 l 61 968 l 749 968 l 749 860 l 327 860 l 327 598 l 395 598 q 600 564 509 598 q 744 462 691 529 q 796 300 796 395 q 749 138 796 208 q 605 27 701 67 q 363 -14 509 -14 z "},"ƽ":{"ha":659,"x_min":49,"x_max":592,"o":"m 290 -14 q 49 34 134 -14 l 49 141 q 155 102 93 120 q 289 84 217 84 q 421 118 368 84 q 475 232 475 153 q 426 337 475 304 q 276 370 376 370 l 157 370 l 157 627 l 62 627 l 62 727 l 550 727 l 550 627 l 264 627 l 264 468 l 304 468 q 475 439 412 468 q 565 358 538 410 q 592 240 592 307 q 560 116 592 174 q 460 22 528 58 q 290 -14 393 -14 z "},"ƾ":{"ha":636,"x_min":54,"x_max":569,"o":"m 281 -14 q 150 -2 205 -14 q 54 33 96 10 l 54 141 q 158 101 96 120 q 283 83 220 83 q 413 112 373 83 q 454 190 454 141 q 423 256 454 229 q 301 321 392 284 q 215 388 242 346 q 189 513 189 429 l 189 635 l 66 635 l 66 692 l 190 739 l 237 894 l 308 894 l 308 727 l 517 727 l 517 635 l 308 635 l 308 510 q 322 443 308 463 q 372 410 336 422 q 517 330 465 376 q 569 201 569 283 q 491 41 569 95 q 281 -14 414 -14 z "},"ƿ":{"ha":841,"x_min":127,"x_max":770,"o":"m 473 741 q 626 706 559 741 q 731 605 692 672 q 770 438 770 538 q 702 211 770 309 q 516 54 635 113 q 246 -14 398 -4 l 246 -326 l 127 -326 l 127 727 l 224 727 l 241 628 l 246 628 q 332 708 279 675 q 473 741 385 741 m 450 640 q 293 578 340 640 q 246 388 246 515 l 246 84 q 541 199 435 106 q 646 435 646 291 q 595 584 646 528 q 450 640 543 640 z "},"ǀ":{"ha":360,"x_min":130,"x_max":231,"o":"m 231 0 l 130 0 l 130 1031 l 231 1031 l 231 0 z "},"ǁ":{"ha":611,"x_min":130,"x_max":481,"o":"m 231 0 l 130 0 l 130 1031 l 231 1031 l 231 0 m 481 0 l 380 0 l 380 1031 l 481 1031 l 481 0 z "},"ǂ":{"ha":636,"x_min":97,"x_max":539,"o":"m 268 1031 l 369 1031 l 369 688 l 539 688 l 539 590 l 369 590 l 369 460 l 539 460 l 539 362 l 369 362 l 369 0 l 268 0 l 268 362 l 97 362 l 97 460 l 268 460 l 268 590 l 97 590 l 97 688 l 268 688 l 268 1031 z "},"ǃ":{"ha":401,"x_min":107,"x_max":293,"o":"m 277 968 l 235 273 l 168 273 l 125 968 l 277 968 m 107 73 q 134 144 107 123 q 200 164 161 164 q 265 144 237 164 q 293 73 293 123 q 265 3 293 24 q 200 -19 237 -19 q 134 3 161 -19 q 107 73 107 24 z "},"Ǆ":{"ha":1812,"x_min":144,"x_max":1754,"o":"m 1476 1063 l 1354 1063 q 1305 1131 1336 1094 q 1241 1202 1274 1167 q 1183 1263 1208 1237 l 1183 1280 l 1264 1280 q 1340 1225 1301 1257 q 1414 1156 1379 1192 q 1491 1225 1452 1192 q 1567 1280 1530 1257 l 1651 1280 l 1651 1263 q 1590 1202 1624 1237 q 1524 1131 1555 1167 q 1476 1063 1493 1094 m 941 494 q 804 124 941 249 q 421 0 667 0 l 144 0 l 144 968 l 451 968 q 711 915 601 968 q 881 755 821 861 q 941 494 941 649 m 1754 109 l 1754 0 l 1066 0 l 1066 92 l 1593 860 l 1083 860 l 1083 968 l 1741 968 l 1741 876 l 1214 109 l 1754 109 m 812 490 q 713 773 812 683 q 432 864 614 864 l 267 864 l 267 104 l 404 104 q 812 490 812 104 z "},"ǅ":{"ha":1786,"x_min":144,"x_max":1728,"o":"m 1498 822 l 1375 822 q 1323 889 1356 852 q 1254 961 1290 926 q 1192 1021 1219 996 l 1192 1039 l 1274 1039 q 1356 983 1314 1016 q 1435 914 1398 951 q 1518 983 1476 951 q 1600 1039 1560 1016 l 1685 1039 l 1685 1021 q 1619 961 1657 996 q 1549 889 1582 926 q 1498 822 1516 852 m 997 494 q 850 124 997 249 q 439 0 703 0 l 144 0 l 144 968 l 471 968 q 749 915 631 968 q 932 755 867 861 q 997 494 997 649 m 867 490 q 758 773 867 683 q 450 864 648 864 l 267 864 l 267 104 l 419 104 q 867 490 867 104 m 1728 92 l 1728 0 l 1149 0 l 1149 79 l 1588 635 l 1175 635 l 1175 727 l 1718 727 l 1718 637 l 1285 92 l 1728 92 z "},"ǆ":{"ha":1604,"x_min":82,"x_max":1546,"o":"m 1318 822 l 1196 822 q 1143 889 1177 852 q 1075 961 1110 926 q 1013 1021 1040 996 l 1013 1039 l 1095 1039 q 1176 983 1134 1016 q 1255 914 1219 951 q 1337 983 1295 951 q 1419 1039 1379 1016 l 1504 1039 l 1504 1021 q 1439 961 1476 996 q 1369 889 1402 926 q 1318 822 1335 852 m 412 -14 q 172 81 262 -14 q 82 362 82 175 q 173 645 82 549 q 413 741 264 741 q 566 709 507 741 q 663 633 625 678 l 672 633 q 667 686 670 651 q 663 741 663 720 l 663 1031 l 783 1031 l 783 0 l 685 0 l 669 98 l 663 98 q 567 19 627 51 q 412 -14 507 -14 m 1546 92 l 1546 0 l 970 0 l 970 79 l 1406 635 l 996 635 l 996 727 l 1537 727 l 1537 637 l 1107 92 l 1546 92 m 426 85 q 610 149 557 85 q 663 339 663 212 l 663 361 q 641 514 663 451 q 568 609 620 576 q 425 642 516 642 q 260 565 315 642 q 206 359 206 489 q 261 157 206 229 q 426 85 315 85 z "},"Ǉ":{"ha":1191,"x_min":144,"x_max":1055,"o":"m 753 0 l 144 0 l 144 968 l 267 968 l 267 109 l 753 109 l 753 0 m 780 -258 q 717 -253 745 -258 q 670 -240 690 -248 l 670 -137 q 722 -147 694 -143 q 781 -151 750 -151 q 853 -137 819 -151 q 910 -90 888 -124 q 933 5 933 -56 l 933 968 l 1055 968 l 1055 15 q 980 -192 1055 -125 q 780 -258 905 -258 z "},"ǈ":{"ha":1142,"x_min":144,"x_max":1027,"o":"m 886 924 q 907 982 886 964 q 958 1000 928 1000 q 1006 982 985 1000 q 1027 924 1027 964 q 1006 866 1027 885 q 958 848 985 848 q 907 866 928 848 q 886 924 886 885 m 733 0 l 144 0 l 144 968 l 267 968 l 267 109 l 733 109 l 733 0 m 798 -326 q 733 -321 760 -326 q 687 -309 707 -316 l 687 -213 q 732 -223 709 -219 q 785 -227 756 -227 q 865 -202 834 -227 q 897 -113 897 -178 l 897 727 l 1016 727 l 1016 -109 q 964 -268 1016 -210 q 798 -326 911 -326 z "},"ǉ":{"ha":770,"x_min":127,"x_max":655,"o":"m 246 1031 l 246 0 l 127 0 l 127 1031 l 246 1031 m 511 924 q 533 982 511 964 q 585 1000 554 1000 q 634 982 612 1000 q 655 924 655 964 q 634 866 655 885 q 585 848 612 848 q 533 866 554 848 q 511 924 511 885 m 414 -326 q 345 -321 373 -326 q 297 -309 317 -316 l 297 -213 q 346 -223 321 -219 q 403 -227 372 -227 q 489 -202 456 -227 q 523 -113 523 -178 l 523 727 l 642 727 l 642 -109 q 587 -268 642 -210 q 414 -326 532 -326 z "},"Ǌ":{"ha":1448,"x_min":144,"x_max":1312,"o":"m 927 968 l 927 0 l 785 0 l 252 804 l 246 804 q 254 686 250 757 q 258 541 258 616 l 258 0 l 144 0 l 144 968 l 285 968 l 817 167 l 823 167 q 819 232 821 189 q 815 327 817 275 q 813 422 813 378 l 813 968 l 927 968 m 1057 -258 q 998 -253 1023 -258 q 954 -240 973 -248 l 954 -137 q 1001 -147 976 -143 q 1055 -151 1026 -151 q 1120 -137 1089 -151 q 1171 -90 1151 -124 q 1190 5 1190 -56 l 1190 968 l 1312 968 l 1312 15 q 1242 -192 1312 -125 q 1057 -258 1172 -258 z "},"ǋ":{"ha":1423,"x_min":144,"x_max":1309,"o":"m 1169 924 q 1190 982 1169 964 q 1240 1000 1211 1000 q 1288 982 1267 1000 q 1309 924 1309 964 q 1288 866 1309 885 q 1240 848 1267 848 q 1190 866 1211 848 q 1169 924 1169 885 m 926 968 l 926 0 l 784 0 l 252 804 l 246 804 q 254 686 250 757 q 258 541 258 616 l 258 0 l 144 0 l 144 968 l 286 968 l 816 167 l 821 167 q 818 232 820 189 q 813 327 815 275 q 812 422 812 378 l 812 968 l 926 968 m 1090 -326 q 1029 -321 1055 -326 q 984 -309 1003 -316 l 984 -213 q 1027 -223 1005 -219 q 1076 -227 1048 -227 q 1150 -202 1121 -227 q 1179 -113 1179 -178 l 1179 727 l 1298 727 l 1298 -109 q 1248 -268 1298 -210 q 1090 -326 1198 -326 z "},"ǌ":{"ha":1255,"x_min":127,"x_max":1141,"o":"m 1000 924 q 1021 982 1000 964 q 1072 1000 1042 1000 q 1120 982 1099 1000 q 1141 924 1141 964 q 1120 866 1141 885 q 1072 848 1099 848 q 1021 866 1042 848 q 1000 924 1000 885 m 492 741 q 700 677 630 741 q 770 473 770 614 l 770 0 l 652 0 l 652 465 q 476 640 652 640 q 296 572 346 640 q 246 377 246 505 l 246 0 l 127 0 l 127 727 l 224 727 l 242 628 l 249 628 q 353 713 287 685 q 492 741 419 741 m 916 -326 q 853 -321 880 -326 q 808 -309 827 -316 l 808 -213 q 852 -223 829 -219 q 903 -227 875 -227 q 980 -202 950 -227 q 1010 -113 1010 -178 l 1010 727 l 1129 727 l 1129 -109 q 1078 -268 1129 -210 q 916 -326 1027 -326 z "},"Ǎ":{"ha":958,"x_min":0,"x_max":957,"o":"m 536 1063 l 414 1063 q 361 1131 395 1094 q 291 1202 328 1167 q 228 1263 255 1237 l 228 1280 l 309 1280 q 393 1225 349 1257 q 474 1156 437 1192 q 558 1225 515 1192 q 641 1280 601 1257 l 726 1280 l 726 1263 q 660 1202 697 1237 q 588 1131 622 1167 q 536 1063 554 1094 m 957 0 l 833 0 l 694 300 l 258 300 l 121 0 l 0 0 l 431 972 l 529 972 l 957 0 m 656 408 l 527 701 q 513 741 523 712 q 493 799 503 769 q 477 846 483 829 q 454 765 466 805 q 432 701 441 725 l 302 408 l 656 408 z "},"ǎ":{"ha":767,"x_min":68,"x_max":646,"o":"m 441 822 l 319 822 q 273 889 302 852 q 212 961 243 926 q 156 1021 180 996 l 156 1039 l 237 1039 q 309 983 272 1016 q 379 914 346 951 q 452 983 415 951 q 523 1039 488 1016 l 607 1039 l 607 1021 q 549 961 582 996 q 487 889 517 926 q 441 822 458 852 m 391 739 q 584 681 521 739 q 646 495 646 623 l 646 0 l 560 0 l 537 103 l 532 103 q 434 15 485 43 q 293 -14 382 -14 q 133 39 197 -14 q 68 202 68 92 q 152 370 68 311 q 409 434 235 428 l 530 438 l 530 481 q 491 608 530 572 q 384 643 453 643 q 278 626 328 643 q 184 587 228 609 l 147 677 q 258 721 194 703 q 391 739 321 739 m 528 355 l 425 351 q 242 308 293 347 q 192 201 192 270 q 228 111 192 140 q 321 83 264 83 q 469 134 410 83 q 528 290 528 184 l 528 355 z "},"Ǐ":{"ha":400,"x_min":1,"x_max":400,"o":"m 261 1063 l 140 1063 q 100 1131 125 1094 q 48 1202 75 1167 q 1 1263 22 1237 l 1 1280 l 83 1280 q 141 1225 112 1257 q 199 1156 171 1192 q 259 1225 229 1192 q 318 1280 289 1257 l 400 1280 l 400 1263 q 353 1202 380 1237 q 300 1131 326 1167 q 261 1063 275 1094 m 355 71 l 355 0 l 43 0 l 43 71 l 139 96 l 139 871 l 43 898 l 43 968 l 355 968 l 355 898 l 261 871 l 261 96 l 355 71 z "},"ǐ":{"ha":401,"x_min":-5,"x_max":408,"o":"m 260 822 l 140 822 q 98 889 124 852 q 44 961 72 926 q -5 1021 16 996 l -5 1039 l 75 1039 q 199 914 138 991 q 262 983 231 951 q 325 1039 294 1016 l 408 1039 l 408 1021 q 357 961 386 996 q 302 889 328 926 q 260 822 275 852 m 260 727 l 260 0 l 141 0 l 141 727 l 260 727 z "},"Ǒ":{"ha":1079,"x_min":91,"x_max":988,"o":"m 600 1063 l 478 1063 q 430 1131 460 1094 q 368 1202 400 1167 q 311 1263 335 1237 l 311 1280 l 392 1280 q 466 1225 428 1257 q 538 1156 505 1192 q 613 1225 574 1192 q 686 1280 651 1257 l 770 1280 l 770 1263 q 711 1202 745 1237 q 647 1131 677 1167 q 600 1063 616 1094 m 988 486 q 937 223 988 336 q 787 49 886 111 q 541 -14 687 -14 q 289 49 389 -14 q 140 224 189 112 q 91 487 91 337 q 140 747 91 635 q 289 921 189 859 q 542 983 389 983 q 787 922 688 983 q 937 748 886 860 q 988 486 988 636 m 220 486 q 298 197 220 302 q 541 92 376 92 q 783 197 707 92 q 859 486 859 302 q 783 772 859 669 q 542 876 707 876 q 298 772 376 876 q 220 486 220 669 z "},"ǒ":{"ha":853,"x_min":82,"x_max":773,"o":"m 488 822 l 366 822 q 316 889 347 852 q 252 961 285 926 q 193 1021 218 996 l 193 1039 l 275 1039 q 351 983 312 1016 q 425 914 391 951 q 502 983 463 951 q 578 1039 541 1016 l 662 1039 l 662 1021 q 601 961 635 996 q 535 889 566 926 q 488 822 505 852 m 773 365 q 679 85 773 184 q 425 -14 585 -14 q 249 31 326 -14 q 126 160 171 75 q 82 365 82 244 q 175 643 82 545 q 429 741 269 741 q 608 696 530 741 q 729 569 686 652 q 773 365 773 485 m 206 365 q 259 161 206 236 q 428 85 313 85 q 596 161 543 85 q 650 365 650 236 q 596 567 650 494 q 427 640 542 640 q 259 567 311 640 q 206 365 206 494 z "},"Ǔ":{"ha":962,"x_min":134,"x_max":827,"o":"m 542 1063 l 420 1063 q 376 1131 404 1094 q 319 1202 349 1167 q 267 1263 289 1237 l 267 1280 l 347 1280 q 479 1156 415 1232 q 548 1225 513 1192 q 615 1280 582 1257 l 698 1280 l 698 1263 q 644 1202 675 1237 q 585 1131 613 1167 q 542 1063 557 1094 m 827 968 l 827 342 q 789 161 827 241 q 673 34 751 81 q 477 -14 596 -14 q 222 85 309 -14 q 134 345 134 183 l 134 968 l 256 968 l 256 340 q 313 157 256 222 q 483 92 370 92 q 653 162 600 92 q 706 342 706 232 l 706 968 l 827 968 z "},"ǔ":{"ha":862,"x_min":117,"x_max":735,"o":"m 490 822 l 368 822 q 320 889 351 852 q 258 961 290 926 q 201 1021 225 996 l 201 1039 l 282 1039 q 356 983 318 1016 q 428 914 395 951 q 503 983 465 951 q 576 1039 541 1016 l 661 1039 l 661 1021 q 601 961 635 996 q 537 889 568 926 q 490 822 507 852 m 616 727 l 735 727 l 735 0 l 637 0 l 620 96 l 614 96 q 516 13 579 39 q 383 -14 454 -14 q 184 50 252 -14 q 117 251 117 113 l 117 727 l 239 727 l 239 259 q 401 85 239 85 q 569 154 522 85 q 616 349 616 222 l 616 727 z "},"Ǖ":{"ha":962,"x_min":134,"x_max":827,"o":"m 294 1375 l 669 1375 l 669 1279 l 294 1279 l 294 1375 m 363 1191 q 406 1174 389 1191 q 424 1123 424 1158 q 406 1072 424 1088 q 363 1057 389 1057 q 320 1072 338 1057 q 302 1123 302 1088 q 320 1174 302 1158 q 363 1191 338 1191 m 599 1191 q 642 1174 625 1191 q 660 1123 660 1158 q 642 1072 660 1088 q 599 1057 625 1057 q 556 1072 574 1057 q 538 1123 538 1088 q 556 1174 538 1158 q 599 1191 574 1191 m 827 968 l 827 342 q 789 161 827 241 q 673 34 751 81 q 477 -14 596 -14 q 222 85 309 -14 q 134 345 134 183 l 134 968 l 256 968 l 256 340 q 313 157 256 222 q 483 92 370 92 q 653 162 600 92 q 706 342 706 232 l 706 968 l 827 968 z "},"ǖ":{"ha":862,"x_min":117,"x_max":735,"o":"m 228 1134 l 632 1134 l 632 1038 l 228 1038 l 228 1134 m 302 949 q 347 933 328 949 q 366 882 366 916 q 347 831 366 846 q 302 815 328 815 q 258 831 277 815 q 239 882 239 846 q 258 933 239 916 q 302 949 277 949 m 557 949 q 603 933 584 949 q 621 882 621 916 q 603 831 621 846 q 557 815 584 815 q 513 831 532 815 q 494 882 494 846 q 513 933 494 916 q 557 949 532 949 m 616 727 l 735 727 l 735 0 l 637 0 l 620 96 l 614 96 q 516 13 579 39 q 383 -14 454 -14 q 184 50 252 -14 q 117 251 117 113 l 117 727 l 239 727 l 239 259 q 401 85 239 85 q 569 154 522 85 q 616 349 616 222 l 616 727 z "},"Ǘ":{"ha":962,"x_min":134,"x_max":827,"o":"m 413 1226 l 413 1242 q 476 1329 442 1280 q 532 1423 511 1377 l 672 1423 l 672 1409 q 626 1351 657 1384 q 558 1284 594 1317 q 493 1226 522 1251 l 413 1226 m 363 1057 q 320 1072 338 1057 q 302 1123 302 1088 q 320 1174 302 1158 q 363 1191 338 1191 q 406 1174 389 1191 q 424 1123 424 1158 q 406 1072 424 1088 q 363 1057 389 1057 m 599 1057 q 556 1072 574 1057 q 538 1123 538 1088 q 556 1174 538 1158 q 599 1191 574 1191 q 642 1174 625 1191 q 660 1123 660 1158 q 642 1072 660 1088 q 599 1057 625 1057 m 827 968 l 827 342 q 789 161 827 241 q 673 34 751 81 q 477 -14 596 -14 q 222 85 309 -14 q 134 345 134 183 l 134 968 l 256 968 l 256 340 q 313 157 256 222 q 483 92 370 92 q 653 162 600 92 q 706 342 706 232 l 706 968 l 827 968 z "},"ǘ":{"ha":862,"x_min":117,"x_max":735,"o":"m 357 985 l 357 1001 q 427 1087 389 1039 q 488 1181 465 1136 l 631 1181 l 631 1168 q 581 1109 615 1143 q 508 1042 547 1076 q 437 985 469 1009 l 357 985 m 302 815 q 258 831 277 815 q 239 882 239 846 q 258 933 239 916 q 302 949 277 949 q 347 933 328 949 q 366 882 366 916 q 347 831 366 846 q 302 815 328 815 m 557 815 q 513 831 532 815 q 494 882 494 846 q 513 933 494 916 q 557 949 532 949 q 603 933 584 949 q 621 882 621 916 q 603 831 621 846 q 557 815 584 815 m 616 727 l 735 727 l 735 0 l 637 0 l 620 96 l 614 96 q 516 13 579 39 q 383 -14 454 -14 q 184 50 252 -14 q 117 251 117 113 l 117 727 l 239 727 l 239 259 q 401 85 239 85 q 569 154 522 85 q 616 349 616 222 l 616 727 z "},"Ǚ":{"ha":962,"x_min":134,"x_max":827,"o":"m 541 1233 l 421 1233 q 377 1297 405 1263 q 321 1361 350 1330 q 269 1419 292 1393 l 269 1436 l 345 1436 q 414 1388 379 1413 q 479 1325 448 1362 q 548 1388 513 1362 q 616 1436 583 1413 l 695 1436 l 695 1419 q 641 1361 671 1393 q 584 1297 611 1330 q 541 1233 556 1263 m 363 1057 q 320 1072 338 1057 q 302 1123 302 1088 q 320 1174 302 1158 q 363 1191 338 1191 q 406 1174 389 1191 q 424 1123 424 1158 q 406 1072 424 1088 q 363 1057 389 1057 m 599 1057 q 556 1072 574 1057 q 538 1123 538 1088 q 556 1174 538 1158 q 599 1191 574 1191 q 642 1174 625 1191 q 660 1123 660 1158 q 642 1072 660 1088 q 599 1057 625 1057 m 827 968 l 827 342 q 789 161 827 241 q 673 34 751 81 q 477 -14 596 -14 q 222 85 309 -14 q 134 345 134 183 l 134 968 l 256 968 l 256 340 q 313 157 256 222 q 483 92 370 92 q 653 162 600 92 q 706 342 706 232 l 706 968 l 827 968 z "},"ǚ":{"ha":862,"x_min":117,"x_max":735,"o":"m 490 991 l 368 991 q 320 1055 351 1022 q 258 1120 290 1088 q 201 1177 225 1152 l 201 1195 l 282 1195 q 356 1146 318 1172 q 428 1084 395 1120 q 503 1146 465 1120 q 576 1195 541 1172 l 661 1195 l 661 1177 q 601 1120 635 1152 q 537 1055 568 1088 q 490 991 507 1022 m 302 815 q 258 831 277 815 q 239 882 239 846 q 258 933 239 916 q 302 949 277 949 q 347 933 328 949 q 366 882 366 916 q 347 831 366 846 q 302 815 328 815 m 557 815 q 513 831 532 815 q 494 882 494 846 q 513 933 494 916 q 557 949 532 949 q 603 933 584 949 q 621 882 621 916 q 603 831 621 846 q 557 815 584 815 m 616 727 l 735 727 l 735 0 l 637 0 l 620 96 l 614 96 q 516 13 579 39 q 383 -14 454 -14 q 184 50 252 -14 q 117 251 117 113 l 117 727 l 239 727 l 239 259 q 401 85 239 85 q 569 154 522 85 q 616 349 616 222 l 616 727 z "},"Ǜ":{"ha":962,"x_min":134,"x_max":827,"o":"m 292 1423 l 432 1423 q 487 1329 453 1377 q 551 1242 522 1280 l 551 1226 l 471 1226 q 406 1284 442 1251 q 339 1351 370 1317 q 292 1409 308 1384 l 292 1423 m 363 1191 q 406 1174 389 1191 q 424 1123 424 1158 q 406 1072 424 1088 q 363 1057 389 1057 q 320 1072 338 1057 q 302 1123 302 1088 q 320 1174 302 1158 q 363 1191 338 1191 m 599 1191 q 642 1174 625 1191 q 660 1123 660 1158 q 642 1072 660 1088 q 599 1057 625 1057 q 556 1072 574 1057 q 538 1123 538 1088 q 556 1174 538 1158 q 599 1191 574 1191 m 827 968 l 827 342 q 789 161 827 241 q 673 34 751 81 q 477 -14 596 -14 q 222 85 309 -14 q 134 345 134 183 l 134 968 l 256 968 l 256 340 q 313 157 256 222 q 483 92 370 92 q 653 162 600 92 q 706 342 706 232 l 706 968 l 827 968 z "},"ǜ":{"ha":862,"x_min":117,"x_max":735,"o":"m 231 1181 l 374 1181 q 434 1087 396 1136 q 504 1001 473 1039 l 504 985 l 424 985 q 353 1042 393 1009 q 280 1109 314 1076 q 231 1168 246 1143 l 231 1181 m 302 949 q 347 933 328 949 q 366 882 366 916 q 347 831 366 846 q 302 815 328 815 q 258 831 277 815 q 239 882 239 846 q 258 933 239 916 q 302 949 277 949 m 557 949 q 603 933 584 949 q 621 882 621 916 q 603 831 621 846 q 557 815 584 815 q 513 831 532 815 q 494 882 494 846 q 513 933 494 916 q 557 949 532 949 m 616 727 l 735 727 l 735 0 l 637 0 l 620 96 l 614 96 q 516 13 579 39 q 383 -14 454 -14 q 184 50 252 -14 q 117 251 117 113 l 117 727 l 239 727 l 239 259 q 401 85 239 85 q 569 154 522 85 q 616 349 616 222 l 616 727 z "},"ǝ":{"ha":774,"x_min":76,"x_max":692,"o":"m 345 741 q 526 698 448 741 q 648 573 604 656 q 692 369 692 490 q 652 164 692 250 q 541 32 612 78 q 374 -14 469 -14 q 215 27 281 -14 q 112 142 148 68 q 76 315 76 216 l 76 387 l 569 387 q 507 574 566 510 q 340 639 447 639 q 218 626 271 639 q 109 589 165 613 l 109 693 q 218 729 164 718 q 345 741 271 741 m 566 292 l 201 292 q 244 142 202 199 q 375 84 286 84 q 508 139 459 84 q 566 292 557 194 z "},"Ǟ":{"ha":958,"x_min":0,"x_max":957,"o":"m 254 1375 l 698 1375 l 698 1279 l 254 1279 l 254 1375 m 336 1191 q 382 1174 362 1191 q 401 1123 401 1158 q 382 1072 401 1088 q 336 1057 362 1057 q 289 1072 309 1057 q 268 1123 268 1088 q 289 1174 268 1158 q 336 1191 309 1191 m 617 1191 q 665 1174 645 1191 q 685 1123 685 1158 q 665 1072 685 1088 q 617 1057 645 1057 q 570 1072 591 1057 q 549 1123 549 1088 q 570 1174 549 1158 q 617 1191 591 1191 m 957 0 l 833 0 l 694 300 l 258 300 l 121 0 l 0 0 l 431 972 l 529 972 l 957 0 m 656 408 l 527 701 q 513 741 523 712 q 493 799 503 769 q 477 846 483 829 q 454 765 466 805 q 432 701 441 725 l 302 408 l 656 408 z "},"ǟ":{"ha":767,"x_min":68,"x_max":646,"o":"m 183 1134 l 578 1134 l 578 1038 l 183 1038 l 183 1134 m 256 949 q 300 933 282 949 q 318 882 318 916 q 300 831 318 846 q 256 815 282 815 q 212 831 231 815 q 193 882 193 846 q 212 933 193 916 q 256 949 231 949 m 505 949 q 550 933 531 949 q 568 882 568 916 q 550 831 568 846 q 505 815 531 815 q 461 831 480 815 q 442 882 442 846 q 461 933 442 916 q 505 949 480 949 m 391 739 q 584 681 521 739 q 646 495 646 623 l 646 0 l 560 0 l 537 103 l 532 103 q 434 15 485 43 q 293 -14 382 -14 q 133 39 197 -14 q 68 202 68 92 q 152 370 68 311 q 409 434 235 428 l 530 438 l 530 481 q 491 608 530 572 q 384 643 453 643 q 278 626 328 643 q 184 587 228 609 l 147 677 q 258 721 194 703 q 391 739 321 739 m 528 355 l 425 351 q 242 308 293 347 q 192 201 192 270 q 228 111 192 140 q 321 83 264 83 q 469 134 410 83 q 528 290 528 184 l 528 355 z "},"Ǡ":{"ha":958,"x_min":0,"x_max":957,"o":"m 254 1358 l 698 1358 l 698 1261 l 254 1261 l 254 1358 m 479 1196 q 531 1178 508 1196 q 553 1120 553 1160 q 531 1063 553 1082 q 479 1044 508 1044 q 425 1063 448 1044 q 403 1120 403 1082 q 425 1178 403 1160 q 479 1196 448 1196 m 957 0 l 833 0 l 694 300 l 258 300 l 121 0 l 0 0 l 431 972 l 529 972 l 957 0 m 656 408 l 527 701 q 513 741 523 712 q 493 799 503 769 q 477 846 483 829 q 454 765 466 805 q 432 701 441 725 l 302 408 l 656 408 z "},"ǡ":{"ha":767,"x_min":68,"x_max":646,"o":"m 183 1135 l 578 1135 l 578 1039 l 183 1039 l 183 1135 m 380 974 q 428 956 408 974 q 448 898 448 938 q 428 841 448 859 q 380 822 408 822 q 331 841 351 822 q 311 898 311 859 q 331 956 311 938 q 380 974 351 974 m 391 739 q 584 681 521 739 q 646 495 646 623 l 646 0 l 560 0 l 537 103 l 532 103 q 434 15 485 43 q 293 -14 382 -14 q 133 39 197 -14 q 68 202 68 92 q 152 370 68 311 q 409 434 235 428 l 530 438 l 530 481 q 491 608 530 572 q 384 643 453 643 q 278 626 328 643 q 184 587 228 609 l 147 677 q 258 721 194 703 q 391 739 321 739 m 528 355 l 425 351 q 242 308 293 347 q 192 201 192 270 q 228 111 192 140 q 321 83 264 83 q 469 134 410 83 q 528 290 528 184 l 528 355 z "},"Ǣ":{"ha":1259,"x_min":-2,"x_max":1170,"o":"m 1170 107 l 1170 0 l 641 0 l 641 300 l 281 300 l 123 0 l -2 0 l 486 968 l 1170 968 l 1170 861 l 763 861 l 763 559 l 1143 559 l 1143 453 l 763 453 l 763 107 l 1170 107 m 557 860 l 329 408 l 641 408 l 641 860 l 557 860 m 480 1160 l 924 1160 l 924 1063 l 480 1063 l 480 1160 z "},"ǣ":{"ha":1182,"x_min":68,"x_max":1106,"o":"m 399 918 l 801 918 l 801 822 l 399 822 l 399 918 m 823 741 q 974 700 911 741 q 1072 585 1038 659 q 1106 415 1106 512 l 1106 342 l 642 342 q 699 150 646 212 q 852 88 751 88 q 971 101 919 88 q 1074 138 1023 114 l 1074 34 q 968 -2 1021 9 q 848 -14 916 -14 q 685 25 755 -14 q 574 140 615 64 q 465 28 527 70 q 299 -14 404 -14 q 135 39 201 -14 q 68 202 68 92 q 150 370 68 311 q 399 434 231 429 l 521 438 l 521 484 q 479 608 521 573 q 369 643 438 643 q 263 626 315 643 q 166 587 211 610 l 130 677 q 245 721 178 703 q 378 739 312 739 q 518 711 463 739 q 600 623 572 684 q 693 710 636 679 q 823 741 749 741 m 821 643 q 698 590 743 643 q 645 435 652 536 l 981 435 q 942 586 981 529 q 821 643 903 643 m 518 355 l 416 351 q 241 308 290 347 q 192 201 192 270 q 227 111 192 140 q 318 83 261 83 q 460 134 403 83 q 518 290 518 184 l 518 355 z "},"Ǥ":{"ha":1109,"x_min":91,"x_max":1095,"o":"m 631 -14 q 324 47 444 -14 q 148 219 204 109 q 91 480 91 330 q 158 744 91 631 q 351 920 224 857 q 655 982 477 982 q 829 967 747 982 q 981 925 911 951 l 932 819 q 798 858 873 842 q 643 875 722 875 q 330 774 441 875 q 218 484 218 673 q 262 276 218 363 q 400 140 305 188 q 648 92 494 92 q 778 99 725 92 q 875 115 831 105 l 875 214 l 644 214 l 644 311 l 875 311 l 875 416 l 627 416 l 627 525 l 998 525 l 998 311 l 1095 311 l 1095 214 l 998 214 l 998 41 q 834 2 918 18 q 631 -14 751 -14 z "},"ǥ":{"ha":866,"x_min":82,"x_max":821,"o":"m 391 741 q 524 714 464 741 q 626 631 585 687 l 633 631 l 650 727 l 745 727 l 745 -43 l 821 -43 l 821 -140 l 733 -140 q 635 -274 714 -222 q 410 -326 556 -326 q 142 -279 246 -326 l 142 -170 q 418 -227 252 -227 q 545 -204 498 -227 q 608 -140 591 -181 l 374 -140 l 374 -43 l 627 -43 l 627 45 q 628 93 627 67 q 631 134 629 119 l 625 134 q 392 24 549 24 q 164 119 246 24 q 82 382 82 213 q 164 644 82 547 q 391 741 245 741 m 406 640 q 258 573 310 640 q 205 381 205 505 q 257 189 205 255 q 408 122 309 122 q 575 177 524 122 q 627 354 627 231 l 627 376 q 574 577 627 514 q 406 640 520 640 z "},"Ǧ":{"ha":1004,"x_min":91,"x_max":894,"o":"m 616 1063 l 494 1063 q 447 1131 477 1094 q 385 1202 417 1167 q 328 1263 353 1237 l 328 1280 l 410 1280 q 554 1156 485 1231 q 629 1225 591 1192 q 702 1280 667 1257 l 786 1280 l 786 1263 q 727 1202 760 1237 q 663 1131 693 1167 q 616 1063 633 1094 m 559 403 l 559 511 l 894 511 l 894 37 q 736 -1 816 12 q 554 -14 656 -14 q 301 47 404 -14 q 144 219 197 108 q 91 484 91 331 q 150 747 91 635 q 322 921 210 859 q 592 982 434 982 q 746 967 673 982 q 881 925 819 951 l 835 819 q 719 858 783 842 q 585 875 654 875 q 315 770 412 875 q 218 484 218 665 q 255 280 218 368 q 373 142 292 192 q 583 92 453 92 q 691 99 647 92 q 772 115 736 106 l 772 403 l 559 403 z "},"ǧ":{"ha":866,"x_min":82,"x_max":739,"o":"m 477 822 l 355 822 q 306 889 337 852 q 242 961 275 926 q 184 1021 210 996 l 184 1039 l 266 1039 q 341 983 302 1016 q 414 914 380 951 q 491 983 452 951 q 566 1039 530 1016 l 650 1039 l 650 1021 q 590 961 624 996 q 525 889 555 926 q 477 822 494 852 m 388 741 q 520 714 460 741 q 621 631 580 687 l 629 631 l 645 727 l 739 727 l 739 -12 q 659 -247 739 -168 q 408 -326 578 -326 q 141 -279 245 -326 l 141 -170 q 416 -227 251 -227 q 567 -172 511 -227 q 622 -22 622 -117 l 622 7 q 624 54 622 23 q 626 96 625 84 l 620 96 q 389 -14 544 -14 q 163 85 244 -14 q 82 362 82 184 q 163 638 82 536 q 388 741 244 741 m 403 640 q 257 568 309 640 q 206 361 206 495 q 257 155 206 227 q 406 84 307 84 q 571 143 519 84 q 623 334 623 203 l 623 362 q 569 575 623 511 q 403 640 516 640 z "},"Ǩ":{"ha":907,"x_min":144,"x_max":907,"o":"m 559 1063 l 436 1063 q 385 1131 417 1094 q 317 1202 352 1167 q 255 1263 281 1237 l 255 1280 l 336 1280 q 418 1225 376 1257 q 496 1156 460 1192 q 577 1225 536 1192 q 659 1280 619 1257 l 743 1280 l 743 1263 q 679 1202 715 1237 q 609 1131 642 1167 q 559 1063 576 1094 m 465 547 l 907 0 l 762 0 l 376 463 l 267 376 l 267 0 l 144 0 l 144 968 l 267 968 l 267 491 q 360 583 313 537 q 455 675 408 629 l 745 968 l 889 968 l 465 547 z "},"ǩ":{"ha":812,"x_min":-60,"x_max":799,"o":"m 256 1126 l 133 1126 q 78 1193 113 1156 q 6 1264 43 1230 q -60 1325 -31 1299 l -60 1343 l 23 1343 q 110 1287 64 1320 q 193 1218 155 1255 q 280 1287 235 1255 q 366 1343 324 1320 l 452 1343 l 452 1325 q 383 1264 422 1299 q 309 1193 344 1230 q 256 1126 274 1156 m 254 1031 l 254 492 q 252 436 254 471 q 250 374 250 400 l 256 374 q 283 406 265 385 q 322 447 302 426 q 357 481 342 468 l 633 727 l 775 727 l 431 416 l 799 0 l 653 0 l 350 339 l 254 267 l 254 0 l 137 0 l 137 1031 l 254 1031 z "},"Ǫ":{"ha":1079,"x_min":91,"x_max":988,"o":"m 536 -157 q 597 -218 536 -218 q 636 -215 621 -218 q 663 -210 652 -212 l 663 -286 q 624 -295 644 -291 q 578 -298 605 -298 q 473 -264 507 -298 q 439 -171 439 -231 q 465 -85 439 -127 q 523 -14 490 -44 q 281 54 377 -9 q 138 229 185 117 q 91 487 91 340 q 140 747 91 635 q 289 921 189 859 q 542 983 389 983 q 787 922 688 983 q 937 748 886 860 q 988 486 988 636 q 895 150 988 282 q 620 -8 801 17 q 557 -83 578 -49 q 536 -157 536 -117 m 220 486 q 298 197 220 302 q 541 92 376 92 q 783 197 707 92 q 859 486 859 302 q 783 772 859 669 q 542 876 707 876 q 298 772 376 876 q 220 486 220 669 z "},"ǫ":{"ha":853,"x_min":82,"x_max":773,"o":"m 427 -157 q 490 -218 427 -218 q 529 -215 513 -218 q 556 -210 545 -212 l 556 -286 q 517 -295 536 -291 q 471 -298 498 -298 q 362 -264 397 -298 q 328 -171 328 -231 q 354 -85 328 -127 q 414 -14 381 -44 q 243 34 318 -11 q 125 163 168 79 q 82 365 82 246 q 175 643 82 545 q 429 741 269 741 q 608 697 530 741 q 729 569 686 653 q 773 365 773 485 q 705 117 773 212 q 517 -4 636 22 q 449 -81 472 -46 q 427 -157 427 -117 m 206 365 q 259 161 206 236 q 428 85 313 85 q 596 161 543 85 q 650 365 650 236 q 596 567 650 494 q 427 640 542 640 q 259 567 311 640 q 206 365 206 494 z "},"Ǭ":{"ha":1079,"x_min":91,"x_max":988,"o":"m 338 1160 l 742 1160 l 742 1063 l 338 1063 l 338 1160 m 553 -157 q 614 -218 553 -218 q 653 -215 637 -218 q 680 -210 669 -212 l 680 -286 q 641 -295 661 -291 q 595 -298 622 -298 q 489 -264 523 -298 q 455 -171 455 -231 q 480 -85 455 -127 q 538 -14 506 -44 q 288 50 387 -13 q 140 225 189 113 q 91 487 91 337 q 140 747 91 635 q 289 921 189 859 q 542 983 389 983 q 787 922 688 983 q 937 748 886 860 q 988 486 988 636 q 900 157 988 288 q 640 -5 812 26 q 575 -82 597 -47 q 553 -157 553 -117 m 220 486 q 298 197 220 302 q 541 92 376 92 q 783 197 707 92 q 859 486 859 302 q 783 772 859 669 q 542 876 707 876 q 298 772 376 876 q 220 486 220 669 z "},"ǭ":{"ha":853,"x_min":82,"x_max":773,"o":"m 220 918 l 633 918 l 633 822 l 220 822 l 220 918 m 427 -157 q 490 -218 427 -218 q 529 -215 513 -218 q 556 -210 545 -212 l 556 -286 q 517 -295 536 -291 q 470 -298 497 -298 q 362 -264 396 -298 q 328 -171 328 -231 q 354 -85 328 -127 q 414 -14 380 -44 q 242 34 317 -11 q 125 163 168 79 q 82 365 82 246 q 175 643 82 545 q 429 741 269 741 q 608 697 530 741 q 729 569 686 653 q 773 365 773 485 q 705 117 773 212 q 517 -4 636 22 q 449 -81 472 -46 q 427 -157 427 -117 m 206 365 q 259 161 206 236 q 428 85 313 85 q 596 161 543 85 q 650 365 650 236 q 596 567 650 494 q 427 640 542 640 q 259 567 311 640 q 206 365 206 494 z "},"Ǯ":{"ha":774,"x_min":52,"x_max":692,"o":"m 423 1063 l 301 1063 q 256 1131 284 1094 q 197 1202 227 1167 q 142 1263 166 1237 l 142 1280 l 224 1280 q 361 1156 295 1231 q 431 1225 395 1192 q 500 1280 467 1257 l 584 1280 l 584 1263 q 528 1202 559 1237 q 468 1131 496 1167 q 423 1063 439 1094 m 79 968 l 653 968 l 653 872 l 340 552 q 598 478 504 546 q 692 277 692 411 q 600 68 692 150 q 319 -14 509 -14 q 178 -2 245 -14 q 52 39 111 10 l 52 151 q 184 103 113 120 q 319 87 256 87 q 504 137 443 87 q 565 278 565 186 q 493 411 565 369 q 286 453 422 453 l 200 453 l 200 552 l 498 860 l 79 860 l 79 968 z "},"ǯ":{"ha":711,"x_min":20,"x_max":661,"o":"m 394 822 l 271 822 q 221 889 253 852 q 155 961 189 926 q 94 1021 121 996 l 94 1039 l 176 1039 q 255 983 214 1016 q 331 914 296 951 q 411 983 370 951 q 489 1039 452 1016 l 574 1039 l 574 1021 q 511 961 547 996 q 443 889 475 926 q 394 822 411 852 m 39 727 l 622 727 l 622 640 l 305 309 q 484 268 403 303 q 613 166 565 232 q 661 1 661 100 q 614 -169 661 -95 q 483 -284 568 -242 q 284 -326 398 -326 q 133 -313 200 -326 q 20 -278 66 -300 l 20 -170 q 137 -209 67 -191 q 291 -227 207 -227 q 472 -166 402 -227 q 543 -1 543 -106 q 461 163 543 113 q 250 214 379 214 l 165 214 l 165 297 l 484 627 l 39 627 l 39 727 z "},"ǰ":{"ha":422,"x_min":-13,"x_max":433,"o":"m 277 822 l 156 822 q 112 889 140 852 q 55 961 85 926 q 3 1021 26 996 l 3 1039 l 84 1039 q 216 914 153 989 q 283 983 249 951 q 350 1039 317 1016 l 433 1039 l 433 1021 q 379 961 410 996 q 320 889 348 926 q 277 822 293 852 m 85 -326 q 29 -321 54 -326 q -13 -309 5 -316 l -13 -213 q 25 -223 5 -219 q 68 -227 45 -227 q 133 -202 107 -227 q 158 -113 158 -178 l 158 727 l 277 727 l 277 -109 q 232 -268 277 -210 q 85 -326 186 -326 z "},"Ǳ":{"ha":1812,"x_min":144,"x_max":1754,"o":"m 941 494 q 804 124 941 249 q 421 0 667 0 l 144 0 l 144 968 l 451 968 q 711 915 601 968 q 881 755 821 861 q 941 494 941 649 m 1754 109 l 1754 0 l 1066 0 l 1066 92 l 1593 860 l 1083 860 l 1083 968 l 1741 968 l 1741 876 l 1214 109 l 1754 109 m 812 490 q 713 773 812 683 q 432 864 614 864 l 267 864 l 267 104 l 404 104 q 812 490 812 104 z "},"ǲ":{"ha":1786,"x_min":144,"x_max":1728,"o":"m 997 494 q 850 124 997 249 q 439 0 703 0 l 144 0 l 144 968 l 471 968 q 749 915 631 968 q 932 755 867 861 q 997 494 997 649 m 867 490 q 758 773 867 683 q 450 864 648 864 l 267 864 l 267 104 l 419 104 q 867 490 867 104 m 1728 92 l 1728 0 l 1149 0 l 1149 79 l 1588 635 l 1175 635 l 1175 727 l 1718 727 l 1718 637 l 1285 92 l 1728 92 z "},"ǳ":{"ha":1604,"x_min":82,"x_max":1546,"o":"m 412 -14 q 172 81 262 -14 q 82 362 82 175 q 173 645 82 549 q 413 741 264 741 q 566 709 507 741 q 663 633 625 678 l 672 633 q 667 686 670 651 q 663 741 663 720 l 663 1031 l 783 1031 l 783 0 l 685 0 l 669 98 l 663 98 q 567 19 627 51 q 412 -14 507 -14 m 1546 92 l 1546 0 l 970 0 l 970 79 l 1406 635 l 996 635 l 996 727 l 1537 727 l 1537 637 l 1107 92 l 1546 92 m 426 85 q 610 149 557 85 q 663 339 663 212 l 663 361 q 641 514 663 451 q 568 609 620 576 q 425 642 516 642 q 260 565 315 642 q 206 359 206 489 q 261 157 206 229 q 426 85 315 85 z "},"Ǵ":{"ha":1004,"x_min":91,"x_max":894,"o":"m 559 403 l 559 511 l 894 511 l 894 37 q 736 -1 816 12 q 554 -14 656 -14 q 301 47 404 -14 q 144 219 197 108 q 91 484 91 331 q 150 747 91 635 q 322 921 210 859 q 592 982 434 982 q 746 967 673 982 q 881 925 819 951 l 835 819 q 719 858 783 842 q 585 875 654 875 q 315 770 412 875 q 218 484 218 665 q 255 280 218 368 q 373 142 292 192 q 583 92 453 92 q 691 99 647 92 q 772 115 736 106 l 772 403 l 559 403 m 781 1280 l 781 1267 q 725 1203 763 1242 q 642 1126 687 1164 q 559 1063 597 1088 l 480 1063 l 480 1080 q 533 1140 505 1105 q 587 1213 561 1175 q 631 1280 614 1250 l 781 1280 z "},"ǵ":{"ha":866,"x_min":82,"x_max":739,"o":"m 388 741 q 520 714 460 741 q 621 631 580 687 l 629 631 l 645 727 l 739 727 l 739 -12 q 659 -247 739 -168 q 408 -326 578 -326 q 141 -279 245 -326 l 141 -170 q 416 -227 251 -227 q 567 -172 511 -227 q 622 -22 622 -117 l 622 7 q 624 54 622 23 q 626 96 625 84 l 620 96 q 389 -14 544 -14 q 163 85 244 -14 q 82 362 82 184 q 163 638 82 536 q 388 741 244 741 m 403 640 q 257 568 309 640 q 206 361 206 495 q 257 155 206 227 q 406 84 307 84 q 571 143 519 84 q 623 334 623 203 l 623 362 q 569 575 623 511 q 403 640 516 640 m 641 1039 l 641 1025 q 585 962 623 1000 q 503 885 547 923 q 419 822 458 846 l 340 822 l 340 838 q 393 899 365 863 q 448 971 421 934 q 492 1039 474 1008 l 641 1039 z "},"Ƕ":{"ha":1427,"x_min":144,"x_max":1293,"o":"m 267 0 l 144 0 l 144 968 l 267 968 l 267 559 l 753 559 l 753 968 l 874 968 l 874 222 q 912 127 874 161 q 1024 94 950 94 q 1136 130 1101 94 q 1171 224 1171 167 l 1171 727 l 1293 727 l 1293 224 q 1225 56 1293 123 q 1019 -12 1158 -12 q 822 53 890 -12 q 753 225 753 117 l 753 452 l 267 452 l 267 0 z "},"Ƿ":{"ha":768,"x_min":126,"x_max":696,"o":"m 459 983 q 630 903 564 983 q 696 654 696 823 q 654 413 696 533 q 514 184 612 293 q 249 -14 416 75 l 249 -326 l 126 -326 l 126 970 l 221 970 l 241 838 l 246 838 q 327 941 277 899 q 459 983 377 983 m 430 878 q 289 792 328 878 q 249 567 249 707 l 249 100 q 491 339 410 196 q 573 652 573 481 q 535 822 573 766 q 430 878 498 878 z "},"Ǹ":{"ha":1026,"x_min":144,"x_max":882,"o":"m 882 968 l 882 0 l 738 0 l 252 804 l 246 804 q 253 686 250 757 q 257 541 257 616 l 257 0 l 144 0 l 144 968 l 288 968 l 772 167 l 777 167 q 774 232 777 189 q 770 327 772 275 q 768 422 768 378 l 768 968 l 882 968 m 304 1280 l 452 1280 q 495 1213 469 1250 q 550 1140 522 1175 q 605 1080 579 1105 l 605 1063 l 525 1063 q 442 1126 488 1088 q 359 1203 397 1164 q 304 1267 321 1242 l 304 1280 z "},"ǹ":{"ha":862,"x_min":127,"x_max":741,"o":"m 477 741 q 675 677 608 741 q 741 473 741 614 l 741 0 l 624 0 l 624 465 q 460 640 624 640 q 293 572 339 640 q 246 377 246 505 l 246 0 l 127 0 l 127 727 l 224 727 l 241 628 l 248 628 q 346 713 284 685 q 477 741 408 741 m 222 1039 l 370 1039 q 413 971 387 1008 q 468 899 439 934 q 523 838 497 863 l 523 822 l 443 822 q 360 885 406 846 q 277 962 315 923 q 222 1025 239 1000 l 222 1039 z "}}}
